<svg width="44" height="33" viewBox="0 0 44 33" fill="none" xmlns="http://www.w3.org/2000/svg">
<g clip-path="url(#clip0_45_2263)">
<path d="M0 0H44V33H0V0Z" fill="#003399"/>
<path d="M31.676 15.125L31.1871 16.7546L32.0019 16.9176L31.676 15.125Z" fill="#FFCC00"/>
<path d="M31.676 15.125L32.1649 16.7546L31.35 16.9176L31.676 15.125Z" fill="#FFCC00"/>
<path d="M33.2258 16.2511L31.5249 16.2897L31.6217 17.115L33.2258 16.2511Z" fill="#FFCC00"/>
<path d="M33.2258 16.2511L31.827 17.2196L31.4202 16.4951L33.2258 16.2511Z" fill="#FFCC00"/>
<path d="M32.6338 18.073L32.0713 16.4674L31.3162 16.8144L32.6338 18.073Z" fill="#FFCC00"/>
<path d="M32.6338 18.073L31.2804 17.042L31.8438 16.4312L32.6338 18.073Z" fill="#FFCC00"/>
<path d="M30.1261 16.2511L31.827 16.2897L31.7302 17.115L30.1261 16.2511Z" fill="#FFCC00"/>
<path d="M30.1261 16.2511L31.5249 17.2196L31.9317 16.4951L30.1261 16.2511Z" fill="#FFCC00"/>
<path d="M30.7181 18.073L31.2806 16.4674L32.0357 16.8144L30.7181 18.073Z" fill="#FFCC00"/>
<path d="M30.7181 18.073L32.0715 17.042L31.5081 16.4312L30.7181 18.073Z" fill="#FFCC00"/>
<path d="M12.426 15.125L11.9371 16.7546L12.7519 16.9176L12.426 15.125Z" fill="#FFCC00"/>
<path d="M12.426 15.125L12.9149 16.7546L12.1 16.9176L12.426 15.125Z" fill="#FFCC00"/>
<path d="M13.9758 16.2511L12.2749 16.2897L12.3717 17.115L13.9758 16.2511Z" fill="#FFCC00"/>
<path d="M13.9758 16.2511L12.577 17.2196L12.1702 16.4951L13.9758 16.2511Z" fill="#FFCC00"/>
<path d="M13.3838 18.073L12.8213 16.4674L12.0662 16.8144L13.3838 18.073Z" fill="#FFCC00"/>
<path d="M13.3838 18.073L12.0304 17.042L12.5938 16.4312L13.3838 18.073Z" fill="#FFCC00"/>
<path d="M10.8761 16.2511L12.577 16.2897L12.4802 17.115L10.8761 16.2511Z" fill="#FFCC00"/>
<path d="M10.8761 16.2511L12.2749 17.2196L12.6817 16.4951L10.8761 16.2511Z" fill="#FFCC00"/>
<path d="M11.4681 18.073L12.0306 16.4674L12.7857 16.8144L11.4681 18.073Z" fill="#FFCC00"/>
<path d="M11.4681 18.073L12.8215 17.042L12.2581 16.4312L11.4681 18.073Z" fill="#FFCC00"/>
<path d="M22.326 23.9248L21.8371 25.5544L22.6519 25.7174L22.326 23.9248Z" fill="#FFCC00"/>
<path d="M22.326 23.9248L22.8148 25.5544L22 25.7174L22.326 23.9248Z" fill="#FFCC00"/>
<path d="M23.8758 25.0509L22.1749 25.0895L22.2717 25.9148L23.8758 25.0509Z" fill="#FFCC00"/>
<path d="M23.8758 25.0509L22.477 26.0195L22.0702 25.2949L23.8758 25.0509Z" fill="#FFCC00"/>
<path d="M23.2838 26.8728L22.7213 25.2672L21.9662 25.6142L23.2838 26.8728Z" fill="#FFCC00"/>
<path d="M23.2838 26.8728L21.9304 25.8418L22.4938 25.231L23.2838 26.8728Z" fill="#FFCC00"/>
<path d="M20.7761 25.0509L22.477 25.0895L22.3802 25.9148L20.7761 25.0509Z" fill="#FFCC00"/>
<path d="M20.7761 25.0509L22.1749 26.0195L22.5816 25.2949L20.7761 25.0509Z" fill="#FFCC00"/>
<path d="M21.3681 26.8728L21.9306 25.2672L22.6857 25.6142L21.3681 26.8728Z" fill="#FFCC00"/>
<path d="M21.3681 26.8728L22.7215 25.8418L22.1581 25.231L21.3681 26.8728Z" fill="#FFCC00"/>
<path d="M16.2732 9.58227L17.6266 8.55123L17.0632 7.94046L16.2732 9.58227Z" fill="#FFCC00"/>
<path d="M16.2732 9.58228L16.8355 7.97652L17.5905 8.32362L16.2732 9.58228Z" fill="#FFCC00"/>
<path d="M15.6814 7.75988L17.0802 8.72861L17.4869 8.00402L15.6814 7.75988Z" fill="#FFCC00"/>
<path d="M15.6812 7.76013L17.3821 7.79875L17.2853 8.62404L15.6812 7.76013Z" fill="#FFCC00"/>
<path d="M17.231 6.63428L16.7422 8.26391L17.557 8.42687L17.231 6.63428Z" fill="#FFCC00"/>
<path d="M17.2311 6.63428L17.7199 8.26391L16.9051 8.42687L17.2311 6.63428Z" fill="#FFCC00"/>
<path d="M18.1889 9.58225L16.8356 8.5512L17.399 7.9404L18.1889 9.58225Z" fill="#FFCC00"/>
<path d="M18.1889 9.58228L17.6266 7.97652L16.8716 8.32362L18.1889 9.58228Z" fill="#FFCC00"/>
<path d="M18.7808 7.76016L17.382 8.7284L16.9751 8.00384L18.7808 7.76016Z" fill="#FFCC00"/>
<path d="M18.7809 7.76013L17.08 7.79875L17.1768 8.62404L18.7809 7.76013Z" fill="#FFCC00"/>
<path d="M14.5639 13.2073L14.0015 11.6015L13.2466 11.9486L14.5639 13.2073Z" fill="#FFCC00"/>
<path d="M14.5639 13.2073L13.2105 12.1762L13.7739 11.5655L14.5639 13.2073Z" fill="#FFCC00"/>
<path d="M12.6482 13.2075L14.0015 12.1764L13.4381 11.5656L12.6482 13.2075Z" fill="#FFCC00"/>
<path d="M12.6481 13.2075L13.2105 11.6018L13.9655 11.9489L12.6481 13.2075Z" fill="#FFCC00"/>
<path d="M12.0562 11.3854L13.455 12.3536L13.8619 11.6291L12.0562 11.3854Z" fill="#FFCC00"/>
<path d="M12.0561 11.3854L13.7571 11.424L13.6603 12.2493L12.0561 11.3854Z" fill="#FFCC00"/>
<path d="M15.1557 11.3849L13.7569 12.3536L13.3502 11.629L15.1557 11.3849Z" fill="#FFCC00"/>
<path d="M15.1559 11.3851L13.4549 11.4237L13.5517 12.249L15.1559 11.3851Z" fill="#FFCC00"/>
<path d="M13.606 10.2593L14.0949 11.8889L13.2801 12.0519L13.606 10.2593Z" fill="#FFCC00"/>
<path d="M13.606 10.2593L13.1171 11.8889L13.9319 12.0519L13.606 10.2593Z" fill="#FFCC00"/>
<path d="M15.1577 21.1866L13.4567 21.2253L13.5535 22.0506L15.1577 21.1866Z" fill="#FFCC00"/>
<path d="M15.1577 21.1867L13.7589 22.1552L13.3521 21.4306L15.1577 21.1867Z" fill="#FFCC00"/>
<path d="M14.5657 23.0086L14.0033 21.4028L13.2483 21.7499L14.5657 23.0086Z" fill="#FFCC00"/>
<path d="M14.5657 23.0085L13.2123 21.9775L13.7757 21.3667L14.5657 23.0085Z" fill="#FFCC00"/>
<path d="M12.6498 23.0083L14.0034 21.9774L13.4399 21.3667L12.6498 23.0083Z" fill="#FFCC00"/>
<path d="M12.6499 23.0086L13.2123 21.4028L13.9673 21.7499L12.6499 23.0086Z" fill="#FFCC00"/>
<path d="M13.6078 20.0605L14.0967 21.6902L13.2819 21.8531L13.6078 20.0605Z" fill="#FFCC00"/>
<path d="M13.6078 20.0605L13.1189 21.6902L13.9337 21.8531L13.6078 20.0605Z" fill="#FFCC00"/>
<path d="M12.0579 21.1866L13.7589 21.2253L13.662 22.0506L12.0579 21.1866Z" fill="#FFCC00"/>
<path d="M12.0579 21.1867L13.4567 22.1552L13.8635 21.4306L12.0579 21.1867Z" fill="#FFCC00"/>
<path d="M18.6945 24.4669L16.9936 24.5055L17.0904 25.3308L18.6945 24.4669Z" fill="#FFCC00"/>
<path d="M18.6945 24.4669L17.2957 25.4355L16.889 24.7109L18.6945 24.4669Z" fill="#FFCC00"/>
<path d="M18.1025 26.2888L17.5402 24.6831L16.7852 25.0302L18.1025 26.2888Z" fill="#FFCC00"/>
<path d="M18.1025 26.2888L16.7491 25.2578L17.3125 24.647L18.1025 26.2888Z" fill="#FFCC00"/>
<path d="M16.1867 26.2886L17.5402 25.2576L16.9768 24.6469L16.1867 26.2886Z" fill="#FFCC00"/>
<path d="M16.1868 26.2888L16.7491 24.6831L17.5041 25.0302L16.1868 26.2888Z" fill="#FFCC00"/>
<path d="M17.1447 23.3408L17.6335 24.9704L16.8187 25.1334L17.1447 23.3408Z" fill="#FFCC00"/>
<path d="M17.1447 23.3408L16.6558 24.9704L17.4706 25.1334L17.1447 23.3408Z" fill="#FFCC00"/>
<path d="M15.5948 24.4669L17.2957 24.5055L17.1989 25.3308L15.5948 24.4669Z" fill="#FFCC00"/>
<path d="M15.5948 24.4669L16.9936 25.4355L17.4003 24.7109L15.5948 24.4669Z" fill="#FFCC00"/>
<path d="M21.776 5.7749L22.2649 7.40453L21.45 7.56749L21.776 5.7749Z" fill="#FFCC00"/>
<path d="M21.776 5.7749L21.2871 7.40453L22.1019 7.56749L21.776 5.7749Z" fill="#FFCC00"/>
<path d="M20.2261 6.901L21.9271 6.93962L21.8303 7.76491L20.2261 6.901Z" fill="#FFCC00"/>
<path d="M20.2261 6.90101L21.6249 7.86955L22.0317 7.14497L20.2261 6.90101Z" fill="#FFCC00"/>
<path d="M20.8182 8.72286L21.3807 7.11728L22.1357 7.4643L20.8182 8.72286Z" fill="#FFCC00"/>
<path d="M20.8181 8.72289L22.1715 7.69186L21.6081 7.08108L20.8181 8.72289Z" fill="#FFCC00"/>
<path d="M23.3258 6.901L21.6249 6.93962L21.7217 7.76491L23.3258 6.901Z" fill="#FFCC00"/>
<path d="M23.3259 6.90101L21.9271 7.86955L21.5203 7.14497L23.3259 6.90101Z" fill="#FFCC00"/>
<path d="M22.7338 8.72286L22.1713 7.11728L21.4163 7.4643L22.7338 8.72286Z" fill="#FFCC00"/>
<path d="M22.7338 8.72289L21.3804 7.69186L21.9439 7.08108L22.7338 8.72289Z" fill="#FFCC00"/>
<path d="M27.7268 9.58251L26.3734 8.55148L26.9368 7.9407L27.7268 9.58251Z" fill="#FFCC00"/>
<path d="M27.7268 9.58253L27.1644 7.97677L26.4094 8.32386L27.7268 9.58253Z" fill="#FFCC00"/>
<path d="M28.3185 7.76012L26.9198 8.72885L26.5131 8.00426L28.3185 7.76012Z" fill="#FFCC00"/>
<path d="M28.3187 7.76037L26.6178 7.79899L26.7146 8.62429L28.3187 7.76037Z" fill="#FFCC00"/>
<path d="M26.7689 6.63452L27.2578 8.26415L26.443 8.42711L26.7689 6.63452Z" fill="#FFCC00"/>
<path d="M26.7689 6.63452L26.28 8.26415L27.0948 8.42711L26.7689 6.63452Z" fill="#FFCC00"/>
<path d="M25.811 9.5825L27.1644 8.55144L26.601 7.94064L25.811 9.5825Z" fill="#FFCC00"/>
<path d="M25.811 9.58253L26.3734 7.97677L27.1284 8.32386L25.811 9.58253Z" fill="#FFCC00"/>
<path d="M25.2191 7.76041L26.6179 8.72864L27.0248 8.00408L25.2191 7.76041Z" fill="#FFCC00"/>
<path d="M25.219 7.76037L26.92 7.79899L26.8232 8.62429L25.219 7.76037Z" fill="#FFCC00"/>
<path d="M29.436 13.2075L29.9984 11.6018L30.7534 11.9489L29.436 13.2075Z" fill="#FFCC00"/>
<path d="M29.4361 13.2075L30.7894 12.1765L30.226 11.5657L29.4361 13.2075Z" fill="#FFCC00"/>
<path d="M31.3518 13.2077L29.9984 12.1767L30.5618 11.5659L31.3518 13.2077Z" fill="#FFCC00"/>
<path d="M31.3518 13.2078L30.7894 11.602L30.0345 11.9491L31.3518 13.2078Z" fill="#FFCC00"/>
<path d="M31.9437 11.3857L30.5449 12.3539L30.138 11.6293L31.9437 11.3857Z" fill="#FFCC00"/>
<path d="M31.9438 11.3856L30.2429 11.4242L30.3397 12.2495L31.9438 11.3856Z" fill="#FFCC00"/>
<path d="M28.8443 11.3851L30.2431 12.3538L30.6497 11.6293L28.8443 11.3851Z" fill="#FFCC00"/>
<path d="M28.8441 11.3854L30.545 11.424L30.4482 12.2493L28.8441 11.3854Z" fill="#FFCC00"/>
<path d="M30.3939 10.2595L29.905 11.8892L30.7198 12.0521L30.3939 10.2595Z" fill="#FFCC00"/>
<path d="M30.3939 10.2595L30.8828 11.8892L30.068 12.0521L30.3939 10.2595Z" fill="#FFCC00"/>
<path d="M28.8423 21.1869L30.5432 21.2255L30.4464 22.0508L28.8423 21.1869Z" fill="#FFCC00"/>
<path d="M28.8423 21.1869L30.2411 22.1554L30.6478 21.4309L28.8423 21.1869Z" fill="#FFCC00"/>
<path d="M29.4343 23.0088L29.9966 21.403L30.7516 21.7501L29.4343 23.0088Z" fill="#FFCC00"/>
<path d="M29.4343 23.0088L30.7877 21.9777L30.2243 21.367L29.4343 23.0088Z" fill="#FFCC00"/>
<path d="M31.3501 23.0086L29.9966 21.9776L30.56 21.3669L31.3501 23.0086Z" fill="#FFCC00"/>
<path d="M31.35 23.0088L30.7877 21.403L30.0327 21.7501L31.35 23.0088Z" fill="#FFCC00"/>
<path d="M30.3921 20.0608L29.9033 21.6904L30.7181 21.8534L30.3921 20.0608Z" fill="#FFCC00"/>
<path d="M30.3922 20.0608L30.881 21.6904L30.0662 21.8534L30.3922 20.0608Z" fill="#FFCC00"/>
<path d="M31.942 21.1869L30.2411 21.2255L30.3379 22.0508L31.942 21.1869Z" fill="#FFCC00"/>
<path d="M31.942 21.1869L30.5432 22.1554L30.1365 21.4309L31.942 21.1869Z" fill="#FFCC00"/>
<path d="M25.3054 24.4669L27.0064 24.5055L26.9095 25.3308L25.3054 24.4669Z" fill="#FFCC00"/>
<path d="M25.3054 24.4669L26.7042 25.4355L27.111 24.7109L25.3054 24.4669Z" fill="#FFCC00"/>
<path d="M25.8974 26.2888L26.4598 24.6831L27.2148 25.0302L25.8974 26.2888Z" fill="#FFCC00"/>
<path d="M25.8974 26.2888L27.2508 25.2578L26.6874 24.647L25.8974 26.2888Z" fill="#FFCC00"/>
<path d="M27.8133 26.2886L26.4597 25.2576L27.0232 24.6469L27.8133 26.2886Z" fill="#FFCC00"/>
<path d="M27.8132 26.2888L27.2508 24.6831L26.4958 25.0302L27.8132 26.2888Z" fill="#FFCC00"/>
<path d="M26.8553 23.3408L26.3664 24.9704L27.1812 25.1334L26.8553 23.3408Z" fill="#FFCC00"/>
<path d="M26.8553 23.3408L27.3442 24.9704L26.5294 25.1334L26.8553 23.3408Z" fill="#FFCC00"/>
<path d="M28.4052 24.4669L26.7042 24.5055L26.801 25.3308L28.4052 24.4669Z" fill="#FFCC00"/>
<path d="M28.4052 24.4669L27.0064 25.4355L26.5996 24.7109L28.4052 24.4669Z" fill="#FFCC00"/>
</g>
<defs>
<clipPath id="clip0_45_2263">
<rect width="44" height="33" fill="white"/>
</clipPath>
</defs>
</svg>
