<svg width="40" height="30" viewBox="0 0 40 30" fill="none" xmlns="http://www.w3.org/2000/svg">
<g clip-path="url(#clip0_45_2015)">
<path d="M0 20H40V30H0V20Z" fill="#1EB53A"/>
<path d="M0 0H40V10H0V0Z" fill="#0099B5"/>
<path d="M0 9.6001H40V20.4001H0V9.6001Z" fill="#CE1126"/>
<path d="M0 10.2H40V19.8H0V10.2Z" fill="white"/>
<path d="M8.39999 8.39995C10.3882 8.39995 12 6.78818 12 4.79995C12 2.81173 10.3882 1.19995 8.39999 1.19995C6.41176 1.19995 4.79999 2.81173 4.79999 4.79995C4.79999 6.78818 6.41176 8.39995 8.39999 8.39995Z" fill="white"/>
<path d="M9.6 8.39995C11.5882 8.39995 13.2 6.78818 13.2 4.79995C13.2 2.81173 11.5882 1.19995 9.6 1.19995C7.61178 1.19995 6 2.81173 6 4.79995C6 6.78818 7.61178 8.39995 9.6 8.39995Z" fill="#0099B5"/>
<path d="M16.3188 6.96118L16.0908 7.64518L16.4388 7.76518" fill="white"/>
<path d="M16.3188 6.96118L16.5468 7.64518L16.1988 7.76518" fill="white"/>
<path d="M17.0035 7.45878L16.2826 7.45331L16.276 7.82136" fill="white"/>
<path d="M17.0035 7.4587L16.4235 7.8869L16.2018 7.59302" fill="white"/>
<path d="M15.634 7.4587L16.2141 7.8869L16.4357 7.59302" fill="white"/>
<path d="M15.634 7.45878L16.355 7.45331L16.3615 7.82136" fill="white"/>
<path d="M16.7418 8.26369L16.5243 7.57623L16.1723 7.68374" fill="white"/>
<path d="M16.742 8.26368L16.1555 7.84435L16.3665 7.54271" fill="white"/>
<path d="M15.8956 8.26369L16.4821 7.84434L16.2711 7.54271" fill="white"/>
<path d="M15.8956 8.26365L16.1132 7.57627L16.4652 7.68374" fill="white"/>
<path d="M16.3188 6.96118L16.0908 7.64518L16.4388 7.76518" fill="white"/>
<path d="M16.3188 6.96118L16.5468 7.64518L16.1988 7.76518" fill="white"/>
<path d="M17.0035 7.45878L16.2826 7.45331L16.276 7.82136" fill="white"/>
<path d="M17.0035 7.4587L16.4235 7.8869L16.2018 7.59302" fill="white"/>
<path d="M15.634 7.4587L16.2141 7.8869L16.4357 7.59302" fill="white"/>
<path d="M15.634 7.45878L16.355 7.45331L16.3615 7.82136" fill="white"/>
<path d="M16.7418 8.26369L16.5243 7.57623L16.1723 7.68374" fill="white"/>
<path d="M16.742 8.26368L16.1555 7.84435L16.3665 7.54271" fill="white"/>
<path d="M15.8956 8.26369L16.4821 7.84434L16.2711 7.54271" fill="white"/>
<path d="M15.8956 8.26365L16.1132 7.57627L16.4652 7.68374" fill="white"/>
<path d="M16.3188 6.96118L16.0908 7.64518L16.4388 7.76518" fill="white"/>
<path d="M16.3188 6.96118L16.5468 7.64518L16.1988 7.76518" fill="white"/>
<path d="M17.0035 7.45878L16.2826 7.45331L16.276 7.82136" fill="white"/>
<path d="M17.0035 7.4587L16.4235 7.8869L16.2018 7.59302" fill="white"/>
<path d="M15.634 7.4587L16.2141 7.8869L16.4357 7.59302" fill="white"/>
<path d="M15.634 7.45878L16.355 7.45331L16.3615 7.82136" fill="white"/>
<path d="M16.7418 8.26369L16.5243 7.57623L16.1723 7.68374" fill="white"/>
<path d="M16.742 8.26368L16.1555 7.84435L16.3665 7.54271" fill="white"/>
<path d="M15.8956 8.26369L16.4821 7.84434L16.2711 7.54271" fill="white"/>
<path d="M15.8956 8.26365L16.1132 7.57627L16.4652 7.68374" fill="white"/>
<path d="M16.3188 6.96118L16.0908 7.64518L16.4388 7.76518" fill="white"/>
<path d="M16.3188 6.96118L16.5468 7.64518L16.1988 7.76518" fill="white"/>
<path d="M17.0035 7.45878L16.2826 7.45331L16.276 7.82136" fill="white"/>
<path d="M17.0035 7.4587L16.4235 7.8869L16.2018 7.59302" fill="white"/>
<path d="M15.634 7.4587L16.2141 7.8869L16.4357 7.59302" fill="white"/>
<path d="M15.634 7.45878L16.355 7.45331L16.3615 7.82136" fill="white"/>
<path d="M16.7418 8.26369L16.5243 7.57623L16.1723 7.68374" fill="white"/>
<path d="M16.742 8.26368L16.1555 7.84435L16.3665 7.54271" fill="white"/>
<path d="M15.8956 8.26369L16.4821 7.84434L16.2711 7.54271" fill="white"/>
<path d="M15.8956 8.26365L16.1132 7.57627L16.4652 7.68374" fill="white"/>
<path d="M16.3188 6.96118L16.0908 7.64518L16.4388 7.76518" fill="white"/>
<path d="M16.3188 6.96118L16.5468 7.64518L16.1988 7.76518" fill="white"/>
<path d="M17.0035 7.45878L16.2826 7.45331L16.276 7.82136" fill="white"/>
<path d="M17.0035 7.4587L16.4235 7.8869L16.2018 7.59302" fill="white"/>
<path d="M15.634 7.4587L16.2141 7.8869L16.4357 7.59302" fill="white"/>
<path d="M15.634 7.45878L16.355 7.45331L16.3615 7.82136" fill="white"/>
<path d="M16.7418 8.26369L16.5243 7.57623L16.1723 7.68374" fill="white"/>
<path d="M16.742 8.26368L16.1555 7.84435L16.3665 7.54271" fill="white"/>
<path d="M15.8956 8.26369L16.4821 7.84434L16.2711 7.54271" fill="white"/>
<path d="M15.8956 8.26365L16.1132 7.57627L16.4652 7.68374" fill="white"/>
<path d="M16.3188 6.96118L16.0908 7.64518L16.4388 7.76518" fill="white"/>
<path d="M16.3188 6.96118L16.5468 7.64518L16.1988 7.76518" fill="white"/>
<path d="M17.0035 7.45878L16.2826 7.45331L16.276 7.82136" fill="white"/>
<path d="M17.0035 7.4587L16.4235 7.8869L16.2018 7.59302" fill="white"/>
<path d="M15.634 7.4587L16.2141 7.8869L16.4357 7.59302" fill="white"/>
<path d="M15.634 7.45878L16.355 7.45331L16.3615 7.82136" fill="white"/>
<path d="M16.7418 8.26369L16.5243 7.57623L16.1723 7.68374" fill="white"/>
<path d="M16.742 8.26368L16.1555 7.84435L16.3665 7.54271" fill="white"/>
<path d="M15.8956 8.26369L16.4821 7.84434L16.2711 7.54271" fill="white"/>
<path d="M15.8956 8.26365L16.1132 7.57627L16.4652 7.68374" fill="white"/>
<path d="M16.3188 6.96118L16.0908 7.64518L16.4388 7.76518" fill="white"/>
<path d="M16.3188 6.96118L16.5468 7.64518L16.1988 7.76518" fill="white"/>
<path d="M17.0035 7.45878L16.2826 7.45331L16.276 7.82136" fill="white"/>
<path d="M17.0035 7.4587L16.4235 7.8869L16.2018 7.59302" fill="white"/>
<path d="M15.634 7.4587L16.2141 7.8869L16.4357 7.59302" fill="white"/>
<path d="M15.634 7.45878L16.355 7.45331L16.3615 7.82136" fill="white"/>
<path d="M16.7418 8.26369L16.5243 7.57623L16.1723 7.68374" fill="white"/>
<path d="M16.742 8.26368L16.1555 7.84435L16.3665 7.54271" fill="white"/>
<path d="M15.8956 8.26369L16.4821 7.84434L16.2711 7.54271" fill="white"/>
<path d="M15.8956 8.26365L16.1132 7.57627L16.4652 7.68374" fill="white"/>
<path d="M16.3188 6.96118L16.0908 7.64518L16.4388 7.76518" fill="white"/>
<path d="M16.3188 6.96118L16.5468 7.64518L16.1988 7.76518" fill="white"/>
<path d="M17.0035 7.45878L16.2826 7.45331L16.276 7.82136" fill="white"/>
<path d="M17.0035 7.4587L16.4235 7.8869L16.2018 7.59302" fill="white"/>
<path d="M15.634 7.4587L16.2141 7.8869L16.4357 7.59302" fill="white"/>
<path d="M15.634 7.45878L16.355 7.45331L16.3615 7.82136" fill="white"/>
<path d="M16.7418 8.26369L16.5243 7.57623L16.1723 7.68374" fill="white"/>
<path d="M16.742 8.26368L16.1555 7.84435L16.3665 7.54271" fill="white"/>
<path d="M15.8956 8.26369L16.4821 7.84434L16.2711 7.54271" fill="white"/>
<path d="M15.8956 8.26365L16.1132 7.57627L16.4652 7.68374" fill="white"/>
<path d="M16.3188 6.96118L16.0908 7.64518L16.4388 7.76518" fill="white"/>
<path d="M16.3188 6.96118L16.5468 7.64518L16.1988 7.76518" fill="white"/>
<path d="M17.0035 7.45878L16.2826 7.45331L16.276 7.82136" fill="white"/>
<path d="M17.0035 7.4587L16.4235 7.8869L16.2018 7.59302" fill="white"/>
<path d="M15.634 7.4587L16.2141 7.8869L16.4357 7.59302" fill="white"/>
<path d="M15.634 7.45878L16.355 7.45331L16.3615 7.82136" fill="white"/>
<path d="M16.7418 8.26369L16.5243 7.57623L16.1723 7.68374" fill="white"/>
<path d="M16.742 8.26368L16.1555 7.84435L16.3665 7.54271" fill="white"/>
<path d="M15.8956 8.26369L16.4821 7.84434L16.2711 7.54271" fill="white"/>
<path d="M15.8956 8.26365L16.1132 7.57627L16.4652 7.68374" fill="white"/>
<path d="M16.3188 6.96118L16.0908 7.64518L16.4388 7.76518" fill="white"/>
<path d="M16.3188 6.96118L16.5468 7.64518L16.1988 7.76518" fill="white"/>
<path d="M17.0035 7.45878L16.2826 7.45331L16.276 7.82136" fill="white"/>
<path d="M17.0035 7.4587L16.4235 7.8869L16.2018 7.59302" fill="white"/>
<path d="M15.634 7.4587L16.2141 7.8869L16.4357 7.59302" fill="white"/>
<path d="M15.634 7.45878L16.355 7.45331L16.3615 7.82136" fill="white"/>
<path d="M16.7418 8.26369L16.5243 7.57623L16.1723 7.68374" fill="white"/>
<path d="M16.742 8.26368L16.1555 7.84435L16.3665 7.54271" fill="white"/>
<path d="M15.8956 8.26369L16.4821 7.84434L16.2711 7.54271" fill="white"/>
<path d="M15.8956 8.26365L16.1132 7.57627L16.4652 7.68374" fill="white"/>
<path d="M16.3188 6.96118L16.0908 7.64518L16.4388 7.76518" fill="white"/>
<path d="M16.3188 6.96118L16.5468 7.64518L16.1988 7.76518" fill="white"/>
<path d="M17.0035 7.45878L16.2826 7.45331L16.276 7.82136" fill="white"/>
<path d="M17.0035 7.4587L16.4235 7.8869L16.2018 7.59302" fill="white"/>
<path d="M15.634 7.4587L16.2141 7.8869L16.4357 7.59302" fill="white"/>
<path d="M15.634 7.45878L16.355 7.45331L16.3615 7.82136" fill="white"/>
<path d="M16.7418 8.26369L16.5243 7.57623L16.1723 7.68374" fill="white"/>
<path d="M16.742 8.26368L16.1555 7.84435L16.3665 7.54271" fill="white"/>
<path d="M15.8956 8.26369L16.4821 7.84434L16.2711 7.54271" fill="white"/>
<path d="M15.8956 8.26365L16.1132 7.57627L16.4652 7.68374" fill="white"/>
<path d="M16.3188 6.96118L16.0908 7.64518L16.4388 7.76518" fill="white"/>
<path d="M16.3188 6.96118L16.5468 7.64518L16.1988 7.76518" fill="white"/>
<path d="M17.0035 7.45878L16.2826 7.45331L16.276 7.82136" fill="white"/>
<path d="M17.0035 7.4587L16.4235 7.8869L16.2018 7.59302" fill="white"/>
<path d="M15.634 7.4587L16.2141 7.8869L16.4357 7.59302" fill="white"/>
<path d="M15.634 7.45878L16.355 7.45331L16.3615 7.82136" fill="white"/>
<path d="M16.7418 8.26369L16.5243 7.57623L16.1723 7.68374" fill="white"/>
<path d="M16.742 8.26368L16.1555 7.84435L16.3665 7.54271" fill="white"/>
<path d="M15.8956 8.26369L16.4821 7.84434L16.2711 7.54271" fill="white"/>
<path d="M15.8956 8.26365L16.1132 7.57627L16.4652 7.68374" fill="white"/>
</g>
<defs>
<clipPath id="clip0_45_2015">
<rect width="40" height="30" fill="white"/>
</clipPath>
</defs>
</svg>
