<svg width="76" height="76" viewBox="0 0 76 76" fill="none" xmlns="http://www.w3.org/2000/svg">
<circle cx="38" cy="38" r="38" fill="url(#paint0_linear_51_162)"/>
<g clip-path="url(#clip0_51_162)">
<path d="M40.0899 13.2832C39.6114 13.5567 39.3086 13.9961 33.2051 22.9512L26.8184 32.336H23.4492L23.459 32.0625C23.459 31.9161 23.6446 30.002 23.8692 27.8047L24.2793 23.8106L24.9141 23.4786C25.7246 23.0489 26.3008 22.5704 26.75 21.9747C27.1797 21.3985 26.9649 21.4082 30.1875 21.7403C31.5059 21.877 32.6973 21.9844 32.8535 21.9844C33.2344 21.9844 33.5078 21.6719 33.5078 21.2227C33.5078 20.5489 33.4785 20.5391 30.1485 20.2071C28.3711 20.0313 27.0235 19.9336 26.7988 19.9825C26.4961 20.0313 26.2617 20.2266 25.5488 20.959C24.8653 21.6622 24.5137 21.9454 23.9668 22.2188C23.3223 22.5411 22.9903 22.8536 22.834 23.2832C22.7949 23.3809 22.5899 25.2559 22.375 27.4336C22.1602 29.6211 21.9649 31.6133 21.9258 31.8672L21.8672 32.336H21.4864C21.2813 32.336 21.1055 32.2871 21.1055 32.2286C21.1055 31.877 22.3848 19.1426 22.4434 18.8692C22.4824 18.6836 22.6387 18.4493 22.7754 18.3418L23.0391 18.1563L28.586 18.7032C31.6426 19.0059 34.2891 19.25 34.4649 19.25C34.8848 19.25 35.168 18.9571 35.168 18.5176C35.168 18.0684 34.9141 17.8243 34.377 17.7461C33.3321 17.5997 23.8301 16.7012 23.2539 16.6914C22.7949 16.6817 22.502 16.7403 22.2188 16.8868C21.7305 17.1407 21.1641 17.7461 21.0176 18.1856C20.9395 18.4297 19.836 28.9864 19.836 29.5039C19.836 29.543 19.25 29.6016 18.5371 29.6211C17.2774 29.6504 17.209 29.6602 16.75 29.9434C16.0762 30.3633 15.666 31.0664 15.5781 31.9649C15.5196 32.6094 15.5 32.6582 15.1485 32.8731C14.7285 33.1368 14.3379 33.5762 14.0449 34.1329L13.8301 34.5332L13.8008 47.5118C13.7715 62.4141 13.6934 61.0762 14.6992 62.0821C15.7246 63.0977 13.3418 63 36.8672 63H57.4824L58.0196 62.7461C58.6836 62.4434 59.2207 61.9356 59.5625 61.2911L59.8262 60.8028L59.8848 53.1563L60.5586 53.1172C61.3106 53.0782 61.6231 52.9121 62.0039 52.3555L62.2188 52.0332V43.3028L61.9942 42.9805C61.6817 42.5118 61.2324 42.2774 60.5098 42.2188L59.875 42.17V38.5274C59.875 34.3477 59.8555 34.2305 59.0449 33.3516C58.6543 32.9317 58.6055 32.834 58.6055 32.4239C58.6055 30.7832 57.7461 29.7383 56.3008 29.6114L55.6758 29.5528L56.7207 28.0391C57.2871 27.209 57.834 26.3497 57.9317 26.1348C58.293 25.3536 58.127 24.2793 57.541 23.6446C57.1992 23.2735 43.0684 13.586 42.2969 13.1954C41.6914 12.8829 40.7246 12.9219 40.0899 13.2832ZM42.1504 14.9239C45.793 17.3555 56.0762 24.4063 56.3008 24.6211C56.4863 24.8067 56.584 25.002 56.584 25.1875C56.584 25.3926 55.9785 26.3594 54.25 28.8985L51.916 32.336H51.4375C50.9883 32.336 50.9688 32.3262 51.0957 32.1407C51.1739 32.0332 51.7207 31.2325 52.3067 30.3633L53.3809 28.7911V28.1954C53.3711 27.7559 53.3028 27.4336 53.0879 26.9649C52.8438 26.418 52.7949 26.1641 52.7461 25.2071C52.7071 24.4063 52.6485 23.9961 52.5215 23.7715C52.3653 23.4688 51.3496 22.7461 45.8516 19.0254C43.8203 17.6582 43.6934 17.6192 42.541 18.0879C41.8574 18.3711 41.6133 18.42 40.5781 18.459C39.5528 18.5079 39.3574 18.5469 39.0645 18.752C38.8203 18.918 37.3653 20.9786 34.1817 25.6563L29.6504 32.3262L29.1719 32.336H28.7031L28.8789 32.0625C30.2071 30.0215 40.6172 14.8457 40.793 14.6797C41.1446 14.3672 41.3887 14.4063 42.1504 14.9239ZM47.4043 21.9649L51.1934 24.5723L51.2227 25.5489C51.252 26.3204 51.3106 26.6622 51.5156 27.209C51.6621 27.5801 51.8086 27.9707 51.8379 28.0586C51.8672 28.1661 51.3887 28.9571 50.4903 30.2754L49.0938 32.336H47.9414C46.8281 32.336 46.7891 32.3262 46.75 32.1114C46.4278 30.4024 46.0469 29.6309 45.041 28.625C43.1856 26.7696 40.4805 26.3497 38.1074 27.5411C37.3457 27.9317 36.2324 28.9766 35.793 29.7286C35.4121 30.3731 35.0899 31.252 35.002 31.8965L34.9434 32.336H33.2539C32.3164 32.336 31.5547 32.3164 31.5547 32.2969C31.5547 32.2774 33.4297 29.5039 35.7344 26.125L39.9043 20.002L40.6367 20.0215C41.3985 20.0411 42.6289 19.7872 43.1465 19.5039C43.293 19.4258 43.4688 19.3575 43.5176 19.3575C43.5762 19.3575 45.3242 20.5293 47.4043 21.9649ZM42.209 28.625C42.9512 28.8789 43.4785 29.211 44.0156 29.7676C44.4746 30.2364 45.0801 31.3789 45.1875 31.9649L45.2461 32.336H36.5059L36.5742 31.9161C36.6621 31.3496 37.1211 30.4219 37.5606 29.9141C38.6934 28.6153 40.5977 28.0879 42.209 28.625ZM19.6406 31.3985C19.6406 31.5743 19.6114 31.8672 19.5821 32.0332L19.5235 32.336H17.1016V32.0528C17.1016 31.711 17.502 31.1934 17.8145 31.1348C17.9317 31.1153 18.3906 31.086 18.8399 31.0762L19.6406 31.0664V31.3985ZM56.7598 31.4375C56.9356 31.6329 57.043 31.8575 57.043 32.043V32.336H53.8008L53.9766 32.0625C54.0645 31.9161 54.2598 31.6329 54.3965 31.4278L54.6406 31.0469L55.5586 31.086C56.4473 31.1153 56.4766 31.125 56.7598 31.4375ZM57.4922 34.084C57.668 34.1914 57.9317 34.4356 58.0781 34.6407C58.3516 34.9922 58.3613 35.0508 58.4004 36.2618L58.4297 37.5118H15.2461V36.3985C15.2461 34.9434 15.4024 34.5625 16.1739 34.084C16.4571 33.9082 17.1309 33.8985 36.8281 33.8985C56.7012 33.8985 57.1992 33.9082 57.4922 34.084ZM58.4102 42.1797L54.5821 42.2286C50.4317 42.2676 50.3047 42.2871 49.1426 42.8438C48.3711 43.2149 47.1992 44.4063 46.8086 45.2266C46.4668 45.92 46.2031 46.9746 46.2031 47.6778C46.1934 49.7481 47.5313 51.8184 49.416 52.6582C50.4024 53.0977 50.8321 53.1368 54.7285 53.1368H58.4102V56.3594H23.3418L23.1074 56.6036C22.7852 56.9161 22.7852 57.3653 23.1074 57.6778L23.3418 57.9219H58.4297L58.3906 59.1231C58.3613 60.2559 58.3418 60.3536 58.0879 60.7442C57.9121 61.0079 57.6582 61.2325 57.4043 61.3496C57.0039 61.5254 56.4278 61.5352 36.8477 61.5352C18.9375 61.5352 16.6621 61.5157 16.3496 61.3887C15.4805 61.0274 15.2559 60.5293 15.2461 59.0157V57.9219H17.1895C18.2637 57.9219 19.25 57.8829 19.377 57.834C19.709 57.7071 19.8946 57.2188 19.7481 56.8575C19.5528 56.4082 19.3184 56.3594 17.1992 56.3594H15.2461V38.9766H58.4102V42.1797ZM60.7344 47.6582C60.7539 50.6758 60.7246 51.5254 60.6367 51.5938C60.4512 51.7012 52.043 51.6817 51.2324 51.5743C49.8653 51.3692 48.7324 50.5586 48.127 49.3379C47.834 48.7422 47.8145 48.625 47.8145 47.7168C47.8145 46.7696 47.834 46.7012 48.1856 45.9883C48.7129 44.9239 49.6797 44.1231 50.7637 43.8692C50.9688 43.8204 53.293 43.7911 55.9199 43.7911L60.7051 43.8106L60.7344 47.6582Z" fill="white"/>
<path d="M51.1348 44.8261C50.3633 45.0312 49.5625 45.6562 49.2012 46.3496C49.0644 46.623 48.9863 46.9843 48.957 47.5312C48.918 48.2343 48.9473 48.4004 49.1523 48.8496C49.6602 49.9531 50.4414 50.5 51.6328 50.5781C52.9121 50.6562 53.918 50.0898 54.4746 48.957C54.8457 48.205 54.8555 47.1699 54.5137 46.457C54.2109 45.8515 53.6348 45.2656 53.0781 45.0214C52.5996 44.8066 51.584 44.7089 51.1348 44.8261ZM52.5312 46.4961C53.5078 47.0918 53.4492 48.3906 52.4238 48.9277C51.8281 49.2304 51.3789 49.1523 50.8809 48.6543C50.4023 48.1757 50.3144 47.7461 50.5781 47.1406C50.9297 46.3593 51.8184 46.0664 52.5312 46.4961Z" fill="white"/>
</g>
<defs>
<linearGradient id="paint0_linear_51_162" x1="38" y1="0" x2="38" y2="76" gradientUnits="userSpaceOnUse">
<stop stop-color="#346CEC"/>
<stop offset="1" stop-color="#0A2C79"/>
</linearGradient>
<clipPath id="clip0_51_162">
<rect width="50" height="50" fill="white" transform="translate(13 13)"/>
</clipPath>
</defs>
</svg>
