<svg width="76" height="76" viewBox="0 0 76 76" fill="none" xmlns="http://www.w3.org/2000/svg">
<circle cx="38" cy="38" r="38" fill="url(#paint0_linear_51_204)"/>
<path d="M26.2324 18.5273C19.9532 21.5645 14.7481 24.1133 14.6895 24.2012C14.5039 24.4453 14.5039 51.5547 14.6797 51.7988C14.8848 52.0625 37.6485 63 38 63C38.3614 63 61.1153 52.0625 61.3203 51.7988C61.4961 51.5547 61.4961 24.4453 61.3203 24.2012C61.252 24.1133 56.0469 21.5547 49.7578 18.5176C41.4473 14.5137 38.2246 13 37.9903 13C37.7559 13.0098 34.1719 14.6895 26.2324 18.5273ZM48.4492 19.6602C54.1426 22.4043 58.7715 24.6895 58.7324 24.7285C58.6836 24.7773 57.3653 25.4219 55.793 26.1836L52.9414 27.5508L42.6192 22.5703C36.9356 19.8262 32.2578 17.5508 32.2188 17.5117C32.1504 17.4434 37.7266 14.6797 37.9707 14.6699C38.0391 14.6602 42.7559 16.9062 48.4492 19.6602ZM40.6856 23.3906C46.3496 26.1348 50.9883 28.4004 50.9883 28.4297C50.9883 28.5176 47.1309 30.3828 46.9551 30.3828C46.8867 30.3828 42.502 28.293 37.2188 25.7344C31.9258 23.1758 27.2676 20.9297 26.8672 20.7441L26.1348 20.3926L28.1856 19.3867C29.3184 18.8398 30.2657 18.3906 30.3047 18.4004C30.3438 18.4102 35.0117 20.6562 40.6856 23.3906ZM35.2657 26.5547L46.1543 31.8184L46.2032 36.3691C46.252 40.9199 46.252 40.9199 46.4668 41.1445C46.6133 41.2812 46.7989 41.3594 47.0039 41.3496C47.3848 41.3496 52.8047 38.7617 53.0586 38.4688C53.2246 38.2832 53.2344 37.9121 53.2344 33.7129L53.2442 29.1621L56.291 27.707C57.9707 26.8965 59.4551 26.1836 59.6114 26.1152L59.875 25.9785V38.4102L59.8653 50.8418L49.4942 55.8418C43.791 58.5957 39.0449 60.8711 38.9473 60.9102C38.791 60.9688 38.7813 60.3535 38.8008 48.5469L38.8301 36.1348L41.3692 34.9141C42.7657 34.2402 43.9864 33.6055 44.084 33.4883C44.4649 33.0391 44.0938 32.2383 43.5078 32.2383C43.3711 32.2383 42.0723 32.8047 40.627 33.498L38 34.7676L36.877 34.2207C35.6758 33.6445 35.4512 33.6152 35.0703 33.9961C34.7969 34.2695 34.8164 34.7871 35.0996 35.0508C35.2168 35.1582 35.7442 35.4512 36.2715 35.6953L37.2188 36.1348V48.5566C37.2188 60.334 37.209 60.9688 37.0528 60.9004C36.9551 60.8711 32.209 58.5859 26.5059 55.8418L16.1348 50.8418L16.125 38.4199V25.9883L16.6328 26.2227C16.916 26.3496 20.5684 28.1074 24.7481 30.1289C28.9278 32.1504 32.4532 33.8008 32.5899 33.8008C33.166 33.8008 33.5176 32.9902 33.1465 32.541C33.0489 32.4238 29.4551 30.6367 25.1582 28.5664C20.8614 26.4961 17.3164 24.7676 17.2676 24.7285C17.1895 24.6504 23.9766 21.3203 24.2305 21.3105C24.3086 21.3008 29.2793 23.6641 35.2657 26.5547ZM51.6719 33.7324V37.4727L49.7188 38.4102L47.7657 39.3477V35.5781L47.7754 31.7988L49.6504 30.9004C50.6856 30.4023 51.5547 30.002 51.6035 29.9922C51.6426 29.9922 51.6719 31.6719 51.6719 33.7324Z" fill="white"/>
<path d="M17.9414 42.9902C17.7461 43.1465 17.6875 43.2734 17.6875 43.5566C17.6875 43.7519 17.7461 43.9863 17.8145 44.0742C17.873 44.1621 19.4551 44.9629 21.3203 45.8613C24.2012 47.248 24.748 47.4824 25.002 47.4238C25.5879 47.2969 25.7832 46.6133 25.3828 46.1738C25.1289 45.9004 18.7031 42.7851 18.4004 42.7851C18.293 42.7851 18.0879 42.873 17.9414 42.9902Z" fill="white"/>
<path d="M17.8829 46.4961C17.6289 46.75 17.6192 47.375 17.8633 47.5996C18.1563 47.8633 21.4961 49.4258 21.7793 49.4258C22.375 49.4258 22.7461 48.7812 22.4239 48.2832C22.209 47.9707 18.8204 46.3008 18.3809 46.3008C18.2051 46.3008 17.9903 46.3887 17.8829 46.4961Z" fill="white"/>
<defs>
<linearGradient id="paint0_linear_51_204" x1="38" y1="0" x2="38" y2="76" gradientUnits="userSpaceOnUse">
<stop stop-color="#346CEC"/>
<stop offset="1" stop-color="#0A2C79"/>
</linearGradient>
</defs>
</svg>
