<svg width="42" height="54" viewBox="0 0 42 54" fill="none" xmlns="http://www.w3.org/2000/svg">
<path d="M18.0996 0.147655C14.8828 0.674999 12.2356 1.70859 9.66212 3.42773C5.27462 6.35976 2.22658 10.916 1.10861 16.1895C0.771108 17.7504 0.644546 20.8934 0.844936 22.5387C1.42501 27.232 3.89298 32.9484 7.97462 39.034C9.82033 41.7762 12.7313 45.5309 15.0727 48.1992C16.391 49.6863 19.1438 52.6395 19.8715 53.3461C20.4938 53.9367 20.5992 54 21.0211 54C21.4641 54 21.4957 53.9789 22.8668 52.5867C27.9926 47.3449 32.8442 41.1961 35.8922 36.0809C38.8031 31.1977 40.5223 26.8418 41.1024 22.8867C41.3555 21.0937 41.2606 17.9191 40.8914 16.1895C39.1934 8.16328 33.0973 2.06719 25.0606 0.358593C23.9531 0.116015 23.4891 0.0738272 21.3692 0.0527334C19.7028 0.0210928 18.6797 0.0527334 18.0996 0.147655ZM23.3203 11.3379C24.3645 11.6016 26.0203 12.4453 26.8535 13.152C30.9879 16.6324 31.3254 22.7496 27.6024 26.6625C24.8813 29.5207 20.3039 30.2695 16.8024 28.4238C14.3871 27.1477 12.6574 24.9434 12.0352 22.3594C11.7504 21.1359 11.7504 19.3641 12.0352 18.1406C12.4887 16.2633 13.6699 14.3754 15.1781 13.1203C15.9797 12.4559 17.6672 11.591 18.6797 11.3273C20.0613 10.9687 21.907 10.9687 23.3203 11.3379Z" fill="url(#paint0_linear_6_110)"/>
<defs>
<linearGradient id="paint0_linear_6_110" x1="20.9967" y1="54" x2="20.9967" y2="0.0408669" gradientUnits="userSpaceOnUse">
<stop stop-color="#0A2C79"/>
<stop offset="1" stop-color="#1346BA"/>
</linearGradient>
</defs>
</svg>
