<svg width="54" height="54" viewBox="0 0 54 54" fill="none" xmlns="http://www.w3.org/2000/svg">
<g clip-path="url(#clip0_6_100)">
<path d="M23.5196 0.168751C12.7407 1.55039 3.78636 9.35508 0.896512 19.8809C0.274246 22.1695 0.0844027 23.509 0.0316683 26.2406C-0.0316129 28.9301 0.0633089 30.259 0.485184 32.3367C1.87737 39.382 6.11722 45.6469 12.1817 49.6336C15.6727 51.9223 19.5012 53.325 23.7305 53.8523C25.3336 54.0527 28.7086 54.0422 30.375 53.8418C38.2641 52.8609 45.3094 48.4418 49.7075 41.7129C51.9223 38.3273 53.3356 34.4355 53.8418 30.375C54.0528 28.6664 54.0528 25.3336 53.8418 23.625C52.8715 15.7781 48.4735 8.74336 41.8184 4.36641C38.3485 2.08828 34.4883 0.674999 30.375 0.158203C28.7614 -0.0421867 25.091 -0.0316391 23.5196 0.168751ZM39.8567 16.6641C40.2153 17.0332 40.3418 17.5289 40.2469 18.1723C40.0254 19.5328 35.7223 39.5613 35.5746 39.8988C35.3532 40.4051 34.8785 40.8164 34.5094 40.8164C33.9821 40.8059 33.3809 40.4262 30.1325 38.032C28.3395 36.7137 26.8102 35.6062 26.7258 35.5746C26.6309 35.543 25.9137 36.1652 24.7746 37.241C22.8762 39.0656 22.834 39.0973 22.3594 39.2344C22.0746 39.3187 22.0641 39.3082 22.1063 38.9285C22.1274 38.7176 22.2223 37.4309 22.3067 36.0703C22.391 34.7098 22.4965 33.3492 22.5282 33.0434L22.5809 32.4949L28.909 26.7891C32.9379 23.1398 35.2266 21.0094 35.2266 20.8828C35.2266 20.6086 34.8891 20.5242 34.4672 20.7035C34.2774 20.7879 30.6492 23.0449 26.4094 25.7133L18.6996 30.5648L16.0207 29.7316C14.5442 29.2676 12.9516 28.7719 12.4875 28.6242C11.0848 28.2023 10.7262 27.6434 11.4328 27.0211C11.6438 26.8418 12.4032 26.4727 13.2996 26.1246C14.1328 25.7977 20.1551 23.4668 26.6836 20.9461C35.9543 17.3707 38.6543 16.3582 39.0446 16.3582C39.4559 16.3477 39.5825 16.4004 39.8567 16.6641Z" fill="url(#paint0_linear_6_100)"/>
</g>
<defs>
<linearGradient id="paint0_linear_6_100" x1="27.0069" y1="53.9975" x2="27.0069" y2="0.0130806" gradientUnits="userSpaceOnUse">
<stop stop-color="#0A2C79"/>
<stop offset="0.9999" stop-color="#1346BA"/>
<stop offset="1" stop-color="#0A2C79" stop-opacity="0"/>
</linearGradient>
<clipPath id="clip0_6_100">
<rect width="54" height="54" fill="white"/>
</clipPath>
</defs>
</svg>
