<svg width="40" height="30" viewBox="0 0 40 30" fill="none" xmlns="http://www.w3.org/2000/svg">
<g clip-path="url(#clip0_45_2242)">
<mask id="mask0_45_2242" style="mask-type:luminance" maskUnits="userSpaceOnUse" x="-1" y="0" width="41" height="30">
<path d="M-0.00546265 0H39.9965V30H-0.00546265V0Z" fill="white"/>
</mask>
<g mask="url(#mask0_45_2242)">
<path fill-rule="evenodd" clip-rule="evenodd" d="M-2.52499 0H42.5219V30H-2.52499V0Z" fill="#FF0000"/>
<path fill-rule="evenodd" clip-rule="evenodd" d="M11.1566 15.2988C11.9535 14.3262 13.6117 15.2754 14.9652 14.5781C13.3598 14.666 12.4867 13.8047 11.2211 13.9277C12.5336 13.1191 13.6527 14.1914 15.1176 13.7637C13.1781 13.5996 13.2602 12.7266 11.4906 12.6035C13.0609 11.9355 13.8344 13.2949 15.3754 12.9844C13.559 12.5684 13.3246 11.502 11.977 11.2734C13.9457 10.9805 13.8168 12.1406 15.7445 12.2813C13.7875 11.4434 14.2973 10.7109 12.6625 10.0723C14.4965 10.0312 14.3734 11.3027 16.2367 11.6309C14.643 10.623 14.8363 9.70313 13.5297 8.98242C15.0824 9.01172 15.2289 10.5996 16.8168 11.0918C15.4047 9.97266 15.7738 9.02344 14.5551 8.02148C16.102 8.38477 15.8734 9.75586 17.4848 10.6348C16.2895 9.31055 16.7465 8.36133 15.7094 7.27734C17.1977 7.75195 16.6293 9.05859 18.1703 10.3008C17.2914 8.8418 17.8363 7.91016 16.9633 6.68555C18.3461 7.39453 17.6781 8.73047 18.9555 10.0547C18.352 8.56055 18.9555 7.63477 18.3402 6.31055C19.5238 7.18945 18.8207 8.61328 19.7758 9.97266C19.4242 8.09766 20.2328 7.79297 19.9809 6.15234C20.8774 7.25391 19.8754 8.35547 20.5668 9.97852C20.4789 8.13281 21.4633 7.70508 21.2934 6.22852C22.1781 7.55273 20.7953 8.70703 21.3754 10.125C21.5219 8.37891 22.6703 7.92188 22.6879 6.5625C23.391 7.81055 21.8676 8.71289 22.1137 10.3711C22.6117 8.54297 23.8363 8.32031 23.9887 7.08984C24.4047 8.53125 22.7348 9.19922 22.8344 10.8047C23.3324 9.18164 24.8617 8.98828 25.1781 7.79297C25.3715 9.31641 23.8656 9.5918 23.4379 11.2793C24.2289 9.90234 25.6176 9.79102 26.2387 8.70117C26.1918 10.2129 24.4926 10.4121 23.9711 11.8242C24.9496 10.623 26.1801 10.8281 27.1586 9.76758C27.0531 11.1328 25.3246 11.0566 24.4047 12.4688C25.4652 11.4902 27.0648 11.7832 27.8793 10.9395C27.8383 12.1465 25.7172 12.0527 24.7152 13.1367C25.9457 12.457 27.516 12.8555 28.4184 12.2285C28.2543 13.2832 26.016 13.0371 24.9438 13.8691C26.4203 13.459 27.5629 14.0859 28.7523 13.6348C28.1723 14.6602 26.1391 14.0098 25.0609 14.6777C26.35 14.4609 27.7094 15.2402 28.8754 14.9883C28.4945 15.8789 26.2621 14.9297 25.0668 15.4863C26.4965 15.4746 27.4281 16.3945 28.7582 16.3301C28.0375 17.1387 26.0805 16.0312 24.9379 16.2188C26.3324 16.5117 27.3988 17.6602 28.4535 17.7188C27.5805 18.3809 25.9633 16.8691 24.6449 17.0566C26.0043 17.4199 27.141 18.9609 27.9145 18.9961C27.0766 19.5703 25.4242 17.6777 24.2934 17.748C25.6703 18.3691 26.2973 19.9453 27.2055 20.168C26.0863 20.5254 24.9848 18.457 23.7836 18.3809C25.1781 19.2598 25.2543 20.6074 26.3266 21.2051C25.1957 21.4805 24.393 19.1426 23.2035 18.9434C24.3461 19.7812 24.5219 21.5801 25.2777 22.1426C24.1293 22.2012 23.7133 19.7578 22.5356 19.4063C23.5434 20.25 23.3031 22.0781 24.0883 22.8633C22.893 22.6113 23.0453 20.4844 21.7973 19.7637C22.6938 20.9004 22.2367 22.5117 22.8227 23.4199C21.6566 22.9512 22.1606 21.041 21.0531 19.9629C21.6566 21.1699 21.0063 22.5762 21.4867 23.7422C20.4203 23.2207 21.1352 20.9648 20.3207 20.0684C20.6957 21.4629 20.0043 22.6172 20.2856 23.8652C19.1957 22.6055 20.4496 21.334 19.5063 20.0508C19.7523 21.5215 18.7211 22.5527 18.8852 23.7832C18.0238 22.7754 19.3539 21.1641 18.6801 19.8926C18.8207 21.3398 17.4906 22.6113 17.5844 23.5254C16.8813 22.3535 18.3637 20.9707 17.9652 19.6406C17.8832 21.0234 16.5356 21.7734 16.2836 23.0332C15.8324 21.6445 17.432 20.6426 17.2914 19.2773C16.8344 20.5723 15.5336 21.0938 15.0766 22.3535C14.7016 20.9648 16.6 20.2324 16.6469 18.7793C16.0609 20.1387 14.5082 20.4434 13.9926 21.4863C13.7992 20.1094 15.9731 19.4941 16.0551 18.1875C15.352 19.4414 13.6527 19.4941 13.0668 20.4902C12.9789 19.1191 15.2699 18.9492 15.6273 17.5137C14.9301 18.5801 13.0668 18.4453 12.2875 19.3125C12.4106 18.041 14.8891 17.9648 15.2875 16.8164C14.3617 17.707 12.6508 17.3438 11.684 18.0469C12.2231 16.793 14.5492 17.0566 15.0707 16.1543C14.0453 16.6875 12.2231 16.166 11.3207 16.7051C12.141 15.5215 13.9457 16.2305 14.9711 15.416C13.307 15.6563 12.3051 14.9941 11.1508 15.2988H11.1566Z" fill="#FFFF00"/>
<path fill-rule="evenodd" clip-rule="evenodd" d="M25.8344 15.0059C25.8344 16.5482 25.2217 18.0274 24.1311 19.118C23.0405 20.2086 21.5613 20.8213 20.019 20.8213C18.4766 20.8213 16.9974 20.2086 15.9068 19.118C14.8162 18.0274 14.2035 16.5482 14.2035 15.0059C14.2035 13.4643 14.8159 11.9859 15.906 10.8958C16.996 9.80575 18.4745 9.19336 20.016 9.19336C21.5576 9.19336 23.036 9.80575 24.1261 10.8958C25.2161 11.9859 25.8285 13.4643 25.8285 15.0059H25.8344Z" fill="#FFFF00"/>
<path fill-rule="evenodd" clip-rule="evenodd" d="M25.0844 15.0176C25.0844 16.3587 24.5516 17.6449 23.6033 18.5932C22.655 19.5415 21.3688 20.0742 20.0277 20.0742C18.6866 20.0742 17.4005 19.5415 16.4522 18.5932C15.5039 17.6449 14.9711 16.3587 14.9711 15.0176C14.9711 13.6765 15.5039 12.3903 16.4522 11.442C17.4005 10.4937 18.6866 9.96094 20.0277 9.96094C21.3688 9.96094 22.655 10.4937 23.6033 11.442C24.5516 12.3903 25.0844 13.6765 25.0844 15.0176Z" fill="#FF0000"/>
<path fill-rule="evenodd" clip-rule="evenodd" d="M24.3813 15.0293C24.3813 16.1808 23.9238 17.2852 23.1096 18.0994C22.2953 18.9137 21.191 19.3711 20.0395 19.3711C18.8879 19.3711 17.7836 18.9137 16.9693 18.0994C16.1551 17.2852 15.6977 16.1808 15.6977 15.0293C15.6977 13.8778 16.1551 12.7734 16.9693 11.9592C17.7836 11.1449 18.8879 10.6875 20.0395 10.6875C21.191 10.6875 22.2953 11.1449 23.1096 11.9592C23.9238 12.7734 24.3813 13.8778 24.3813 15.0293Z" fill="#FFFF00"/>
<path fill-rule="evenodd" clip-rule="evenodd" d="M16.3422 12.1875C17.5434 12.1582 19.0375 12.2695 20.0277 13.0547C21.0856 12.3945 22.3311 12.1001 23.5727 12.2168L24.2172 13.3945C23.2157 13.3032 22.2074 13.4685 21.2875 13.875C21.9449 14.3599 22.4735 14.9985 22.8269 15.735C23.1804 16.4715 23.3479 17.2834 23.3148 18.0996C23.1566 18.2988 22.9047 18.5156 22.7465 18.7148C22.9809 17.0449 22.102 15.1816 20.8188 14.2031C21.8617 15.7031 22.477 17.0508 22.307 18.9141L21.7211 19.2891C21.9906 17.6484 21.6039 15.7148 20.391 14.6016C21.0941 15.627 21.7856 17.4727 21.352 19.3477C21.1645 19.4063 20.8715 19.5645 20.684 19.6172C20.9137 18.8479 20.9761 18.0384 20.8669 17.243C20.7578 16.4476 20.4796 15.6848 20.0512 15.0059C19.2426 16.166 18.9789 17.9355 19.4359 19.5762C19.2133 19.5176 19.0434 19.4473 18.8148 19.3945C18.4809 17.6367 18.9438 15.6445 19.7465 14.6074C18.9262 15.082 18.1586 17.1094 18.3754 19.1777L17.8305 18.9258C17.5668 17.3848 18.2641 15.375 19.266 14.2148C18.1293 14.9297 17.2035 16.6934 17.3617 18.5859C17.1859 18.4336 17.0277 18.3574 16.852 18.1992C16.6527 16.5469 17.6137 14.8828 18.7328 13.8867C17.7895 13.459 16.975 13.377 15.8031 13.3945C15.9848 13.0137 16.1547 12.5684 16.3422 12.1816V12.1875Z" fill="#FF0000"/>
</g>
</g>
<defs>
<clipPath id="clip0_45_2242">
<rect width="40" height="30" fill="white"/>
</clipPath>
</defs>
</svg>
