<svg width="40" height="30" viewBox="0 0 40 30" fill="none" xmlns="http://www.w3.org/2000/svg">
<g clip-path="url(#clip0_45_5193)">
<path fill-rule="evenodd" clip-rule="evenodd" d="M0 0H40V30H0V0Z" fill="#00ABC2"/>
<path fill-rule="evenodd" clip-rule="evenodd" d="M3.7625 29.1875C3.96875 29.3875 3.9 29.7188 4.46875 29.675C5.33125 29.675 5.35625 29.15 5.35625 28.7813C5.35625 28.4125 4.0625 27.9 4 27.3563C3.9375 26.8125 4.3 26.6688 4.6 26.6688C4.89375 26.6688 5.1 26.8375 5.1 26.9875C5.1 27.1375 4.9625 27.1875 4.75 27.1875C4.5375 27.1875 4.84375 27.0813 4.6625 27C4.48125 26.9188 4.3625 27.125 4.3625 27.25C4.3625 27.3875 4.8125 27.425 5.1125 27.3313C5.175 27.625 5.2 27.6438 4.78125 28.1438C5.08125 27.95 5.10625 27.9063 5.4375 28.0188C5.10625 27.7313 5.35625 27.1563 5.3625 27.0125C5.36875 26.8688 5.3 26.6938 5.175 26.6063C4.93125 26.3875 4.4125 26.375 4.1 26.5188C3.64375 26.7188 3.61875 27.3188 3.7375 27.5188L5 28.7938C5.0875 28.9438 5.125 29.3688 4.5875 29.3875C4.025 29.4313 3.825 28.6625 3.725 28.4063C3.59375 28.6875 3.44375 29.4563 2.875 29.4125C2.3375 29.3938 2.2375 28.975 2.325 28.8188L3.61875 27.5063C3.74375 27.3063 3.71875 26.7063 3.2625 26.5063C2.95 26.3625 2.43125 26.3813 2.19375 26.5938C2.05625 26.6813 1.98125 26.85 1.99375 27C2.00625 27.15 2.25 27.7188 1.925 28C2.25 27.8938 2.28125 27.9375 2.58125 28.125C2.1625 27.6313 2.19375 27.6125 2.25 27.3125C2.55 27.4125 3 27.375 3 27.2438C3 27.1125 2.875 26.8938 2.69375 26.9813C2.51875 27.0688 2.81875 27.175 2.60625 27.175C2.4 27.175 2.25 27.1313 2.25 26.9875C2.25 26.8438 2.45625 26.6563 2.75625 26.6563C3.05625 26.6563 3.4125 26.8063 3.35 27.35C3.2875 27.8938 1.975 28.4813 1.975 28.85C1.975 29.225 2.0625 29.6688 2.925 29.6688C3.4875 29.7125 3.55625 29.3813 3.7625 29.1813V29.1875Z" fill="#FFEC2D"/>
<path fill-rule="evenodd" clip-rule="evenodd" d="M3.69375 21.4562C3.9 21.2562 4.06875 20.6687 4.63125 20.7062C5.49375 20.7062 5.81875 21.1875 5.81875 21.5562C5.81875 21.925 4.06875 24.9313 4.00625 25.475C3.94375 26.0188 4.30625 26.1688 4.6 26.1688C4.9 26.1688 5.10625 26 5.10625 25.8438C5.10625 25.6875 4.95625 25.6562 4.75 25.6562C4.54375 25.6562 4.8375 25.7625 4.6625 25.8438C4.4875 25.925 4.3625 25.7187 4.3625 25.5875C4.3625 25.4562 4.8125 25.4125 5.1125 25.5125C5.16875 25.2188 5.19375 25.2 4.78125 24.7C5.08125 24.8875 5.10625 24.9375 5.4375 24.825C5.10625 25.1125 5.35 25.6813 5.3625 25.825C5.375 25.9688 5.3 26.15 5.16875 26.2375C4.93125 26.4562 4.40625 26.4625 4.09375 26.325C3.64375 26.1188 3.61875 25.525 3.7375 25.325L5.4375 21.6625C5.53125 21.5125 5.29375 21.0125 4.75625 20.9937C4.19375 20.95 4 21.5437 3.9 21.8L4.66875 21.7375C4.66875 21.7375 4.7 21.8625 4.66875 21.9375C4.41082 21.9563 4.15417 21.9897 3.9 22.0375L3.86875 22.425H4.24375L4.21875 22.6C4.21875 22.6 3.9 22.575 3.86875 22.6C3.8375 22.6188 3.80625 22.9875 3.80625 22.9875C3.80625 22.9875 3.74375 23.0125 3.68125 23.0125C3.61875 23.0125 3.55625 22.9875 3.55625 22.9875C3.55625 22.9875 3.53125 22.6188 3.5 22.6C3.46875 22.575 3.15 22.6 3.15 22.6L3.11875 22.425H3.5L3.46875 22.0375C3.46875 22.0375 3.09375 21.9625 2.7 21.9375C2.675 21.8625 2.7 21.7437 2.7 21.7437L3.46875 21.8C3.36875 21.5437 3.175 20.95 2.6125 20.9875C2.075 21.0125 1.8375 21.5125 1.925 21.6625L3.625 25.325C3.74375 25.5188 3.71875 26.1188 3.26875 26.325C2.95625 26.4625 2.43125 26.45 2.19375 26.2375C2.0625 26.15 1.9875 25.975 2 25.8312C2.0125 25.6875 2.25 25.1062 1.925 24.8312C2.25625 24.9375 2.2875 24.8938 2.58125 24.7C2.16875 25.2 2.19375 25.2188 2.25625 25.5125C2.55 25.4125 3 25.45 3 25.5875C3 25.7125 2.875 25.9313 2.7 25.8438C2.525 25.7562 2.825 25.6562 2.6125 25.6562C2.40625 25.6562 2.25625 25.6937 2.25625 25.8438C2.25625 25.9938 2.4625 26.1688 2.75625 26.1688C3.05 26.1688 3.4125 26.0188 3.35625 25.4813C3.29375 24.9375 1.54375 21.9187 1.54375 21.5562C1.54375 21.1812 1.86875 20.7125 2.73125 20.7125C3.29375 20.6687 3.5 21.2562 3.7 21.4562H3.69375Z" fill="#FFEC2D"/>
<path fill-rule="evenodd" clip-rule="evenodd" d="M3.69375 19.9625C3.9 20.1625 4.06875 20.75 4.63125 20.7125C5.49375 20.7125 5.81875 20.2312 5.81875 19.8625C5.81875 19.4937 4.06875 16.4875 4.00625 15.9438C3.94375 15.4 4.30625 15.25 4.6 15.25C4.9 15.25 5.10625 15.4187 5.10625 15.575C5.10625 15.7312 4.95625 15.7625 4.75 15.7625C4.54375 15.7625 4.8375 15.6625 4.6625 15.575C4.4875 15.4875 4.3625 15.7 4.3625 15.8313C4.3625 15.9625 4.8125 16.0063 5.1125 15.9062C5.16875 16.2 5.19375 16.2187 4.78125 16.7188C5.08125 16.5312 5.10625 16.4812 5.4375 16.5938C5.10625 16.3062 5.35 15.7375 5.3625 15.5938C5.375 15.45 5.3 15.2687 5.16875 15.1812C4.93125 14.9687 4.40625 14.9562 4.09375 15.0938C3.64375 15.3 3.61875 15.8937 3.7375 16.0938L5.4375 19.75C5.53125 19.9 5.29375 20.4 4.75625 20.4188C4.19375 20.4625 4 19.8687 3.9 19.6125L4.66875 19.675C4.66875 19.675 4.7 19.55 4.66875 19.475C4.41082 19.4562 4.15417 19.4228 3.9 19.375L3.86875 18.9875H4.24375L4.21875 18.8125C4.21875 18.8125 3.9 18.8375 3.86875 18.8125C3.8375 18.7937 3.80625 18.425 3.80625 18.425C3.80625 18.425 3.74375 18.4 3.68125 18.4C3.61875 18.4 3.55625 18.425 3.55625 18.425C3.55625 18.425 3.53125 18.7937 3.5 18.8125C3.46875 18.8375 3.15 18.8125 3.15 18.8125L3.11875 18.9875H3.5L3.46875 19.375C3.46875 19.375 3.09375 19.45 2.7 19.475C2.675 19.55 2.7 19.6688 2.7 19.6688L3.46875 19.6125C3.36875 19.8687 3.175 20.4625 2.6125 20.425C2.075 20.4 1.8375 19.9 1.925 19.75L3.625 16.0938C3.74375 15.8937 3.71875 15.3 3.26875 15.0938C2.95625 14.9562 2.43125 14.9687 2.19375 15.1812C2.0625 15.2687 1.9875 15.4437 2 15.5875C2.0125 15.7312 2.25 16.3062 1.925 16.5875C2.25625 16.4812 2.2875 16.525 2.58125 16.7188C2.16875 16.2187 2.19375 16.2 2.25625 15.9062C2.55 16.0063 3 15.9688 3 15.8313C3 15.7063 2.875 15.4875 2.7 15.575C2.525 15.6625 2.825 15.7625 2.6125 15.7625C2.40625 15.7625 2.25625 15.725 2.25625 15.575C2.25625 15.425 2.4625 15.25 2.75625 15.25C3.05 15.25 3.4125 15.4 3.35625 15.9375C3.29375 16.4813 1.54375 19.5 1.54375 19.8625C1.54375 20.2375 1.86875 20.7062 2.73125 20.7062C3.29375 20.75 3.5 20.1625 3.7 19.9625H3.69375Z" fill="#FFEC2D"/>
<path fill-rule="evenodd" clip-rule="evenodd" d="M3.69375 10.0375C3.9 9.8375 4.06875 9.25 4.63125 9.2875C5.49375 9.2875 5.81875 9.76875 5.81875 10.1375C5.81875 10.5062 4.06875 13.5125 4.00625 14.0625C3.94375 14.6 4.30625 14.75 4.6 14.75C4.9 14.75 5.10625 14.5812 5.10625 14.4312C5.10625 14.2812 4.95625 14.2312 4.75 14.2312C4.54375 14.2312 4.8375 14.3437 4.6625 14.4312C4.4875 14.5187 4.3625 14.3 4.3625 14.1687C4.3625 14.0437 4.8125 13.9937 5.1125 14.0938C5.16875 13.8 5.19375 13.7812 4.78125 13.2812C5.08125 13.475 5.10625 13.5187 5.4375 13.4062C5.10625 13.6937 5.35 14.2687 5.3625 14.4062C5.375 14.5438 5.3 14.7313 5.16875 14.8188C4.93125 15.0375 4.40625 15.0438 4.09375 14.9062C3.64375 14.7 3.61875 14.1063 3.7375 13.9062L5.4375 10.25C5.53125 10.1 5.29375 9.6 4.75625 9.58125C4.19375 9.5375 4 10.1312 3.9 10.3875L4.66875 10.325C4.66875 10.325 4.7 10.45 4.66875 10.525C4.26875 10.55 3.9 10.625 3.9 10.625L3.86875 11.0125H4.24375L4.21875 11.1875C4.21875 11.1875 3.9 11.1687 3.86875 11.1875C3.8375 11.2063 3.80625 11.5813 3.80625 11.5813C3.80625 11.5813 3.74375 11.6 3.68125 11.6C3.61875 11.6 3.55625 11.5813 3.55625 11.5813C3.55625 11.5813 3.53125 11.2063 3.5 11.1875C3.46875 11.1687 3.15 11.1875 3.15 11.1875L3.11875 11.0125H3.5L3.46875 10.625C3.46875 10.625 3.09375 10.55 2.7 10.525C2.675 10.45 2.7 10.3313 2.7 10.3313L3.46875 10.3875C3.36875 10.1312 3.175 9.5375 2.6125 9.575C2.075 9.6 1.8375 10.1 1.925 10.25L3.625 13.9062C3.74375 14.1063 3.71875 14.7 3.26875 14.9062C2.95625 15.0438 2.43125 15.0313 2.19375 14.8188C2.0625 14.7313 1.9875 14.5563 2 14.4125C2.0125 14.2688 2.25 13.6938 1.925 13.4125C2.25625 13.5188 2.2875 13.475 2.58125 13.2812C2.16875 13.7812 2.19375 13.8 2.25625 14.0938C2.55 13.9937 3 14.0375 3 14.1687C3 14.2937 2.875 14.5125 2.7 14.425C2.525 14.3438 2.825 14.2375 2.6125 14.2375C2.40625 14.2375 2.25625 14.275 2.25625 14.425C2.25625 14.575 2.4625 14.75 2.75625 14.75C3.05 14.75 3.4125 14.6 3.35625 14.0625C3.29375 13.5188 1.54375 10.5062 1.54375 10.1375C1.54375 9.76875 1.86875 9.29375 2.73125 9.29375C3.29375 9.25 3.5 9.8375 3.7 10.0437L3.69375 10.0375Z" fill="#FFEC2D"/>
<path fill-rule="evenodd" clip-rule="evenodd" d="M3.69375 8.54375C3.9 8.74375 4.06875 9.3375 4.63125 9.29375C5.49375 9.29375 5.81875 8.8125 5.81875 8.44375C5.81875 8.075 4.06875 5.06875 4.00625 4.525C3.94375 3.98125 4.30625 3.83125 4.6 3.83125C4.9 3.83125 5.10625 4.00625 5.10625 4.15625C5.10625 4.30625 4.95625 4.35 4.75 4.35C4.54375 4.35 4.8375 4.24375 4.6625 4.15625C4.4875 4.06875 4.3625 4.28125 4.3625 4.4125C4.3625 4.54375 4.8125 4.5875 5.1125 4.4875C5.16875 4.78125 5.19375 4.8 4.78125 5.3C5.08125 5.1125 5.10625 5.0625 5.4375 5.175C5.10625 4.89375 5.35 4.31875 5.3625 4.175C5.375 4.03125 5.3 3.85 5.16875 3.7625C4.93125 3.55 4.40625 3.5375 4.09375 3.68125C3.64375 3.88125 3.61875 4.48125 3.7375 4.675L5.4375 8.3375C5.53125 8.4875 5.29375 8.9875 4.75625 9.0125C4.19375 9.05 4 8.4625 3.9 8.2L4.66875 8.2625C4.66875 8.2625 4.7 8.1375 4.66875 8.0625C4.41096 8.04552 4.15431 8.01423 3.9 7.96875L3.86875 7.575H4.24375L4.21875 7.4C4.21875 7.4 3.9 7.425 3.86875 7.4C3.8375 7.38125 3.80625 7.0125 3.80625 7.0125C3.80625 7.0125 3.74375 6.9875 3.68125 6.9875C3.61875 6.9875 3.55625 7.0125 3.55625 7.0125C3.55625 7.0125 3.53125 7.38125 3.5 7.4C3.46875 7.425 3.15 7.4 3.15 7.4L3.11875 7.575H3.5L3.46875 7.96875C3.46875 7.96875 3.09375 8.0375 2.7 8.0625C2.675 8.14375 2.7 8.2625 2.7 8.2625L3.46875 8.2C3.36875 8.4625 3.175 9.05 2.6125 9.0125C2.075 8.9875 1.8375 8.4875 1.925 8.3375L3.625 4.675C3.74375 4.48125 3.71875 3.88125 3.26875 3.675C2.95625 3.5375 2.43125 3.55 2.19375 3.7625C2.0625 3.85 1.9875 4.025 2 4.16875C2.0125 4.3125 2.25 4.89375 1.925 5.16875C2.25625 5.0625 2.2875 5.10625 2.58125 5.3C2.16875 4.8 2.19375 4.78125 2.25625 4.4875C2.55625 4.5875 3 4.55 3 4.4125C3 4.2875 2.875 4.06875 2.7 4.15625C2.525 4.24375 2.825 4.35 2.6125 4.35C2.40625 4.35 2.25625 4.30625 2.25625 4.15625C2.25625 4.00625 2.4625 3.83125 2.75625 3.83125C3.05 3.83125 3.41875 3.98125 3.35625 4.51875C3.29375 5.0625 1.54375 8.08125 1.54375 8.44375C1.54375 8.81875 1.86875 9.29375 2.73125 9.29375C3.29375 9.3375 3.5 8.74375 3.7 8.54375H3.69375Z" fill="#FFEC2D"/>
<path fill-rule="evenodd" clip-rule="evenodd" d="M3.7625 0.8125C3.96875 0.6125 3.9 0.28125 4.46875 0.325C5.33125 0.325 5.35625 0.85 5.35625 1.21875C5.35625 1.5875 4.0625 2.1 4 2.64375C3.9375 3.1875 4.3 3.33125 4.6 3.33125C4.89375 3.33125 5.1 3.1625 5.1 3.0125C5.1 2.8625 4.9625 2.8125 4.75 2.8125C4.5375 2.8125 4.84375 2.91875 4.6625 3C4.48125 3.08125 4.3625 2.875 4.3625 2.75C4.3625 2.6125 4.8125 2.56875 5.1125 2.66875C5.175 2.375 5.2 2.35625 4.78125 1.85625C5.08125 2.05 5.10625 2.09375 5.4375 1.98125C5.10625 2.26875 5.35625 2.84375 5.3625 2.9875C5.36875 3.13125 5.3 3.30625 5.175 3.39375C4.925 3.625 4.40625 3.625 4.09375 3.4875C3.6375 3.2875 3.6125 2.6875 3.73125 2.4875L5 1.20625C5.0875 1.05625 5.125 0.63125 4.5875 0.6125C4.025 0.56875 3.825 1.3375 3.725 1.59375C3.59375 1.3125 3.44375 0.5375 2.875 0.58125C2.3375 0.6 2.2375 1.01875 2.325 1.175L3.61875 2.4875C3.74375 2.6875 3.71875 3.2875 3.2625 3.4875C2.95 3.63125 2.43125 3.61875 2.19375 3.4C2.05625 3.3125 1.98125 3.14375 1.99375 2.99375C2.00625 2.84375 2.25 2.275 1.925 1.99375C2.25 2.1 2.28125 2.05625 2.575 1.86875C2.1625 2.3625 2.19375 2.38125 2.25 2.68125C2.55 2.58125 3 2.61875 3 2.75C3 2.88125 2.875 3.1 2.69375 3.0125C2.51875 2.925 2.81875 2.81875 2.60625 2.81875C2.4 2.81875 2.25 2.8625 2.25 3.00625C2.25 3.15 2.45625 3.3375 2.75625 3.3375C3.05625 3.3375 3.4125 3.1875 3.35 2.64375C3.2875 2.1 1.975 1.5125 1.975 1.14375C1.975 0.76875 2.0625 0.325 2.925 0.325C3.4875 0.28125 3.55625 0.6125 3.7625 0.8125Z" fill="#FFEC2D"/>
<path d="M27.5948 12.8694C27.5948 9.8982 25.0533 7.48955 21.9181 7.48955C18.783 7.48955 16.2414 9.8982 16.2414 12.8694C16.2414 15.8406 18.783 18.2493 21.9181 18.2493C25.0533 18.2493 27.5948 15.8406 27.5948 12.8694Z" fill="#FFEC2D"/>
<path fill-rule="evenodd" clip-rule="evenodd" d="M21.6513 4.28098C21.598 4.28098 21.3445 6.06871 21.2511 6.46895C21.1577 7.36948 22.4518 7.33613 22.2383 6.43559L21.6513 4.27431V4.28098ZM22.1049 21.6113C22.1516 21.6113 22.5385 19.8435 22.6653 19.45C22.8187 18.5628 21.5246 18.5161 21.6647 19.4233L22.1049 21.6113ZM13.0596 12.8327C13.0596 12.8794 14.9207 13.253 15.3342 13.373C16.2681 13.5265 16.3348 12.3057 15.3743 12.4392L13.0596 12.8394V12.8327ZM31.1836 13.0462C31.1836 12.9995 29.3025 12.6926 28.8823 12.5859C27.9417 12.4725 27.935 13.6932 28.8823 13.5265L31.1836 13.0462ZM14.9674 7.16269C14.934 7.19605 16.1614 8.58353 16.4082 8.92374C17.0486 9.5908 17.8958 8.65691 17.0486 8.20331L14.9674 7.16936V7.16269ZM29.049 18.5695C29.0824 18.5361 27.7349 17.2553 27.4548 16.9418C26.7543 16.3281 26.0006 17.3221 26.8811 17.709L29.049 18.5761V18.5695ZM17.7757 5.22821C17.7357 5.24822 18.3093 6.96924 18.4027 7.37615C18.7229 8.22332 19.8836 7.66966 19.2832 6.94256L17.7824 5.22821H17.7757ZM25.9872 20.7307C26.0339 20.7107 25.587 18.9564 25.5269 18.5494C25.2668 17.6823 24.0728 18.1492 24.6131 18.923L25.9939 20.7241L25.9872 20.7307ZM28.0084 6.42892C27.9684 6.39557 26.4875 7.53625 26.1273 7.76305C25.4135 8.3634 26.3808 9.17722 26.8744 8.38342L28.0084 6.42892ZM15.8012 19.3499C15.8345 19.3833 17.4021 18.3493 17.7757 18.1425C18.5295 17.5956 17.6289 16.715 17.0753 17.4755L15.8078 19.3499H15.8012ZM13.4665 9.73755C13.4464 9.77758 15.0674 10.7181 15.421 10.9649C16.2548 11.3985 16.7417 10.2645 15.7878 10.0844L13.4665 9.73755ZM30.3898 16.3014C30.4098 16.2614 28.8556 15.2141 28.5221 14.9473C27.7216 14.4537 27.1546 15.5543 28.0951 15.7945L30.3898 16.3014ZM25.0133 4.76794C24.9666 4.7546 24.0394 6.32886 23.7926 6.66907C23.793 6.77771 23.8275 6.88348 23.8911 6.97154C23.9547 7.05961 24.0443 7.12556 24.1473 7.16014C24.2503 7.19471 24.3615 7.19618 24.4654 7.16434C24.5693 7.1325 24.6606 7.06894 24.7265 6.98259L25.0133 4.76794ZM18.7496 21.0643C18.7963 21.0843 19.8369 19.5701 20.1037 19.2432C20.5907 18.4694 19.41 17.9758 19.1899 18.8696L18.7496 21.0643ZM13.5799 16.4415C13.5999 16.4816 15.4476 16.0413 15.8812 15.9746C16.7884 15.7211 16.2815 14.6004 15.481 15.1207L13.5799 16.4415ZM30.3965 9.5908C30.3832 9.55078 28.5087 9.8643 28.0751 9.90432C27.1412 10.0978 27.5748 11.2518 28.4087 10.7848L30.3965 9.5908Z" fill="#FFEC2D"/>
<path fill-rule="evenodd" clip-rule="evenodd" d="M23.4924 4.39438C23.4457 4.38771 22.8187 6.08872 22.6319 6.46228C22.3584 7.32946 23.6325 7.54292 23.6125 6.62237L23.4991 4.38771L23.4924 4.39438ZM20.2572 21.4645C20.3039 21.4779 21.0576 19.8169 21.2711 19.45C21.6046 18.6095 20.3505 18.316 20.3039 19.2299L20.2505 21.4645H20.2572ZM19.6101 4.56115C19.5634 4.57449 19.7368 6.37556 19.7368 6.78914C19.8636 7.67633 21.111 7.36948 20.6974 6.54232L19.6101 4.56115ZM24.1461 21.3645C24.1928 21.3578 24.1461 19.55 24.1795 19.1365C24.1194 18.2359 22.8454 18.4627 23.2056 19.3166L24.1395 21.3645H24.1461ZM16.3949 6.05537C16.3548 6.08205 17.242 7.67633 17.4088 8.05656C17.8891 8.83702 18.923 8.10325 18.1959 7.48288L16.3949 6.05537ZM27.3881 19.9236C27.4281 19.8969 26.6543 18.2426 26.5209 17.8557C26.1006 17.0486 25.02 17.7156 25.6937 18.376L27.3881 19.9236ZM14.0468 8.2967C14.0201 8.33672 15.4543 9.52409 15.7545 9.83094C16.4949 10.3913 17.182 9.35066 16.2748 9.0238L14.0468 8.2967ZM29.6694 17.6156C29.6961 17.5755 28.3553 16.2948 28.0751 15.9746C27.3814 15.3676 26.6209 16.3615 27.5015 16.7484L29.6694 17.6156ZM13.0195 11.0917C13.0062 11.1384 14.7739 11.8121 15.1608 12.0056C16.0547 12.3057 16.3415 11.1117 15.3676 11.085L13.0195 11.0917ZM30.8568 14.9473C30.8768 14.9073 29.1624 14.1202 28.7889 13.9C27.9217 13.5398 27.5415 14.7138 28.5087 14.8072L30.8568 14.9473ZM12.9595 14.5271C12.9662 14.5671 14.874 14.5404 15.3076 14.5738C16.2548 14.5271 16.028 13.3197 15.1208 13.6465L12.9595 14.5271ZM30.9835 11.5253C30.9835 11.4786 29.0757 11.3785 28.6488 11.3185C27.6949 11.3051 27.835 12.5259 28.7622 12.2524L30.9835 11.5186V11.5253ZM14.5938 18.0892C14.6205 18.1292 16.3282 17.3154 16.7284 17.162C17.5556 16.7284 16.7951 15.7344 16.1347 16.4082L14.5938 18.0892ZM29.4226 7.92981C29.3959 7.88979 27.6415 8.59021 27.2213 8.71695C26.3608 9.09717 27.0479 10.1378 27.7549 9.51075L29.4226 7.92981ZM17.3688 20.4506C17.4088 20.4706 18.6295 19.0831 18.9364 18.7896C19.5167 18.0758 18.4027 17.4555 18.0759 18.3226L17.3688 20.4506ZM26.6876 5.52172C26.6543 5.49504 25.3335 6.79581 25.0066 7.0693C24.3796 7.74304 25.4469 8.43678 25.8338 7.59628L26.681 5.52172H26.6876Z" fill="#FFEC2D"/>
<path fill-rule="evenodd" clip-rule="evenodd" d="M13.2385 16.4477C13.3404 16.7917 13.3549 18.7183 15.4076 20.576C17.4457 22.4199 20.9396 22.8328 20.9396 22.8328C20.9396 22.8328 20.9542 23.0942 20.7067 23.108C20.4592 23.1355 19.2655 22.9016 18.6686 22.7227C18.0863 22.5575 17.5622 22.2548 17.504 22.2686C17.4312 22.2961 17.3147 22.4887 17.14 22.4612C16.9653 22.4337 16.121 21.608 15.7424 21.3879C14.9854 20.7693 14.3151 20.0618 13.748 19.2825C13.3404 18.6632 13.2385 18.2504 13.1075 18.2504C12.9764 18.2504 12.496 18.5531 12.496 18.5531C12.496 18.5531 12.0593 17.9339 11.6808 16.9431C11.2877 15.9523 11.3314 15.3744 11.4187 15.3331C11.5206 15.2918 11.5206 16.0624 11.8118 16.7642C12.103 17.4798 12.5106 17.7 12.5106 17.7C12.5106 17.7 12.2485 17.3284 12.0447 16.4064C11.8409 15.4845 11.7536 14.59 11.8991 14.3148C12.0447 14.0396 12.1757 13.957 12.1903 13.9708C12.2194 13.9983 11.9428 14.3974 12.1321 15.4569C12.3213 16.5165 12.8309 17.411 12.9473 17.3697C13.0638 17.3284 12.8745 17.1082 12.8017 16.489C12.7289 15.8698 12.8745 15.4845 13.0347 15.4294C13.1075 15.3744 13.2239 16.1175 13.2385 16.4477ZM11.8118 18.2091C11.4187 17.8651 10.8073 16.6679 10.6763 16.7229C10.5307 16.7918 11.6662 18.5119 11.6953 18.6495C11.7244 18.8146 11.9719 19.2825 11.7827 19.2137C11.5934 19.1449 10.2395 17.7963 10.3997 18.0577C10.5598 18.3192 11.5789 19.5026 11.5206 19.5714C11.4624 19.6402 10.6763 18.9109 10.6472 19.0072C10.6326 19.0898 11.4187 19.8054 11.4042 19.8879C11.3896 19.9705 10.8946 19.4338 10.8946 19.5439C10.8946 19.654 11.4042 20.1907 11.4042 20.2732C11.4042 20.3558 10.9674 19.8879 11.113 20.1356C11.244 20.4109 11.6225 20.6448 11.608 20.7273C11.5934 20.8099 11.2877 20.6173 11.2877 20.6585C11.2877 20.6998 11.8555 20.8925 11.9865 21.0438C12.1321 21.1952 13.0638 22.2135 13.7626 22.7227C14.4613 23.2318 16.4703 24.1263 16.6159 24.1263C16.7469 24.1263 16.9508 23.8511 16.9071 23.741C16.8634 23.6309 14.8981 22.9979 14.3594 22.53C13.8062 22.0622 12.4669 20.9338 12.3504 20.8787C12.2485 20.8099 11.9428 20.8374 11.9428 20.7686C11.9428 20.6998 12.3359 20.8099 12.3068 20.7686C12.2922 20.7273 11.7681 20.5072 11.7827 20.4659C11.8118 20.4246 12.1466 20.5485 12.1466 20.5072C12.1466 20.4659 11.5352 20.1494 11.5643 20.0806C11.5789 20.0118 12.0156 20.2732 12.0156 20.2182C12.0156 20.1907 11.4333 19.8054 11.4478 19.7366C11.4624 19.6678 11.8991 20.0393 11.8846 19.9567C11.87 19.8742 11.5352 19.4063 11.5352 19.3513C11.5352 19.2825 12.0593 19.8191 12.1175 19.709C12.1466 19.6127 11.9283 18.7183 11.9428 18.7045C11.9574 18.6907 12.3359 18.8972 12.3941 18.7733C12.4669 18.6357 12.1321 18.4568 11.8118 18.2091ZM18.523 24.9794C18.2464 25.0207 18.1154 24.9244 18.2755 24.7042C18.4939 24.7042 19.0762 24.5253 19.28 24.4428C19.4838 24.3602 19.7022 24.2501 19.8769 24.0988C20.0516 23.9199 20.1681 24.1951 20.0662 24.3464C19.9934 24.4428 19.6585 24.6217 19.4111 24.718C19.0471 24.8281 18.7268 24.9932 18.523 24.9794ZM20.3428 24.2776C20.1535 24.085 20.3137 23.9474 20.5903 23.796C20.9979 23.5896 20.8814 23.3006 21.4055 23.0667C21.6384 22.9291 24.8994 21.6906 25.9621 21.0301C27.0249 20.3696 30.0093 18.2366 30.8099 16.7642C31.5961 15.3056 31.2176 15.1955 31.334 15.1404C31.4359 15.0716 31.5524 15.3469 31.5378 15.6771C31.5087 15.9936 31.2467 16.9569 31.334 17.0532C31.4214 17.1495 32.5278 16.2964 32.9936 15.2643C33.4595 14.2322 33.8089 13.1589 34.0273 13.1589C34.2602 13.1589 33.6488 14.9203 33.2557 15.6083C32.8772 16.2964 32.4259 16.6404 32.5278 16.7917C32.6443 16.9294 33.7798 16.0349 34.1728 15.3744C34.5513 14.7001 34.9153 14.1084 34.9881 14.2322C34.8723 15.0383 34.5361 15.8019 34.0127 16.4477C33.4013 17.1082 32.6734 17.5899 32.7898 17.6862C32.8917 17.7963 33.7215 17.9064 34.5805 17.3559C35.4539 16.7918 35.5413 15.9799 35.6432 16.0211C35.7597 16.0624 35.5413 17.1771 34.7115 17.8651C33.8817 18.5531 32.7898 18.6219 32.819 18.7733C32.8772 18.9109 35.1919 18.1403 35.1482 18.3192C35.1046 18.4843 32.1493 19.5852 32.1202 19.6953C32.1202 19.7779 32.6297 19.8054 33.4304 19.6265C34.2165 19.4614 34.9735 18.8696 35.0754 19.0072C35.1046 19.1999 34.5077 19.6678 33.6051 19.8879C32.6879 20.1081 32.2366 20.3971 32.2075 20.4659C32.193 20.5347 33.838 20.2732 33.838 20.3558C33.838 20.4384 31.6834 20.8374 31.6689 20.9475C31.6398 21.0438 33.707 20.5485 33.6779 20.6723C33.6196 20.7686 30.8682 21.5392 30.8973 21.5805C30.9119 21.6356 33.1975 21.1127 33.1538 21.1952C33.0955 21.2915 29.3105 22.2961 29.2814 22.3649C29.2522 22.4199 32.6297 21.6493 32.6006 21.7181C32.5715 21.7869 30.8536 22.186 30.8536 22.2273C30.8536 22.2686 32.2366 22.0209 32.2075 22.0897C32.193 22.1447 28.7136 22.9841 28.6408 23.108C28.568 23.2456 30.446 22.764 30.4169 23.0116C30.3878 23.2593 26.3843 24.5253 26.3698 24.2914C26.3407 24.0575 28.801 23.4658 28.7864 23.3969C28.7573 23.3281 27.3743 23.5346 27.3452 23.4107C27.3306 23.2731 28.2623 22.9979 28.1895 22.9428C28.1167 22.874 27.4179 23.1355 27.4762 22.9841C27.549 22.8328 28.8737 22.2548 28.8446 22.2135C28.8301 22.1722 28.3642 22.3511 28.4079 22.2135C28.4661 22.0621 31.2758 21.2915 31.2321 21.1952C31.1885 21.1127 29.9365 21.3879 29.82 21.4154C29.7763 21.3328 31.567 20.6998 31.5378 20.5897C31.4796 20.4934 30.577 20.9613 30.5188 20.8374C30.4897 20.6998 32.1056 20.1081 32.0037 20.0118C31.9018 19.9155 31.1739 20.2595 31.072 20.1632C30.9701 20.0668 32.6006 19.0072 32.3531 18.9797C32.1056 18.966 31.7999 19.31 31.7708 19.0898C31.7999 18.8146 33.0373 18.3605 32.7607 18.1403C32.324 18.0165 30.8536 18.2366 30.2422 18.5807C29.6308 18.9247 27.5926 20.8374 27.0977 21.1402C26.6027 21.4292 24.914 22.1034 24.5937 22.241C24.0987 22.4062 24.0114 22.6539 23.5018 22.9016C22.5847 23.1355 22.5993 23.397 22.1625 23.5483C22.0024 23.5896 20.3573 24.3327 20.3428 24.2776ZM18.0426 25.2409C17.766 25.3785 17.5185 25.7088 17.6787 25.8464C17.766 26.0115 18.0426 25.4748 18.261 25.5024L19.4256 25.5574C20.0516 25.5987 20.3573 25.4336 20.7067 25.4611C21.0561 25.4886 21.8277 25.2822 22.1916 25.2822C22.5556 25.2822 22.6284 25.3235 22.6575 25.1721C22.7012 25.0345 21.522 25.1308 20.9979 25.1171C20.4738 25.0895 19.8187 25.2134 19.4256 25.2134C19.0617 25.1996 18.4357 25.0895 18.0426 25.2409Z" fill="#FFEC2D"/>
<path d="M19.7896 25.0758C19.7896 24.9618 19.6788 24.8694 19.5421 24.8694C19.4054 24.8694 19.2946 24.9618 19.2946 25.0758C19.2946 25.1898 19.4054 25.2822 19.5421 25.2822C19.6788 25.2822 19.7896 25.1898 19.7896 25.0758Z" fill="#FFEC2D"/>
<path fill-rule="evenodd" clip-rule="evenodd" d="M25.5982 24.6767C25.8457 24.6354 26.5153 24.8556 26.9812 24.9519C27.8256 25.2684 29.3978 25.1171 29.3978 25.2684C29.3978 25.4198 29.2959 25.5987 28.932 25.6262C28.568 25.6537 27.6509 25.4886 27.68 25.4886C27.7091 25.4886 28.4079 25.8051 28.2041 25.8877C28.0003 25.9702 27.4034 25.7088 27.3015 25.7776C27.1996 25.8464 27.8547 25.9702 27.7382 26.0115C27.6509 26.0528 27.1996 25.9565 27.054 25.9702C26.9084 25.9977 27.1705 26.1491 26.9958 26.2042C26.8211 26.273 26.5299 26.1216 26.4134 26.1629C26.2824 26.2042 26.6755 26.4381 26.5008 26.4656C26.3261 26.4931 25.9185 26.3555 25.6855 26.328C25.4526 26.328 25.9039 26.5482 25.7583 26.5757C25.6128 26.5895 25.2051 26.3968 25.1032 26.3968C25.0013 26.3968 25.1032 26.672 24.9576 26.672C24.8121 26.672 24.6374 26.4381 24.55 26.4381C24.4627 26.4381 24.55 26.7133 24.4044 26.7133C24.2589 26.7133 24.2006 26.4243 24.0842 26.4381C23.9386 26.4656 24.0842 26.8096 23.8804 26.7821C23.6911 26.7683 23.662 26.4243 23.5018 26.4381C23.3563 26.4656 23.531 26.7821 23.3854 26.7821C23.2398 26.7821 23.2107 26.4656 23.0651 26.4381C22.9195 26.4243 22.9778 26.7408 22.8904 26.7408C22.8031 26.7408 22.7157 26.4381 22.6575 26.4381C22.6138 26.4381 22.6575 26.7408 22.4828 26.7133C22.3081 26.6858 22.3081 26.383 22.2644 26.3968C22.2062 26.4243 22.2062 26.6445 22.0897 26.6445C21.9733 26.6445 21.9587 26.4243 21.915 26.4519C21.8568 26.4656 21.6821 26.7408 21.5656 26.6995C21.4346 26.6583 21.5948 26.4381 21.5365 26.4381C21.4783 26.4381 21.3327 26.5895 21.2454 26.5757C21.158 26.5619 21.2454 26.383 21.2162 26.383C21.1871 26.383 20.9688 26.4931 20.8669 26.4931C20.7649 26.4931 20.4883 26.6307 20.4156 26.5069C20.3428 26.3693 20.6048 26.3693 20.663 26.2454C20.7067 26.1216 20.5175 25.75 20.7213 25.6262C20.9105 25.4886 21.5365 25.8051 22.4682 25.5849C24.157 25.1583 25.4672 24.6629 25.5982 24.6767Z" fill="#FFEC2D"/>
</g>
<defs>
<clipPath id="clip0_45_5193">
<rect width="40" height="30" fill="white"/>
</clipPath>
</defs>
</svg>
