<svg width="40" height="30" viewBox="0 0 40 30" fill="none" xmlns="http://www.w3.org/2000/svg">
<g clip-path="url(#clip0_45_5211)">
<path d="M0 0H40V30H0V0Z" fill="#006600"/>
<path d="M0 0H40V21.4312H0V0Z" fill="white"/>
<path d="M0 0H40V8.56875H0V0Z" fill="#CC0000"/>
<path d="M18.8 14.6C18.8589 14.5001 18.9485 14.422 19.0554 14.3772C19.1623 14.3324 19.2809 14.3234 19.3933 14.3516C19.5058 14.3797 19.6062 14.4434 19.6795 14.5332C19.7527 14.623 19.795 14.7342 19.8 14.85V17H20.2V14.8562C20.205 14.7404 20.2472 14.6293 20.3205 14.5395C20.3938 14.4496 20.4942 14.3859 20.6066 14.3578C20.7191 14.3297 20.8376 14.3387 20.9446 14.3835C21.0515 14.4282 21.1411 14.5064 21.2 14.6062C21.262 14.4167 21.2781 14.2151 21.2472 14.0181C21.2163 13.8211 21.1391 13.6342 21.022 13.4728C20.905 13.3113 20.7513 13.1799 20.5737 13.0893C20.396 12.9987 20.1994 12.9514 20 12.9514C19.8006 12.9514 19.604 12.9987 19.4263 13.0893C19.2487 13.1799 19.095 13.3113 18.9779 13.4728C18.8609 13.6342 18.7837 13.8211 18.7528 14.0181C18.7218 14.2151 18.738 14.4167 18.8 14.6062" fill="#F8C300"/>
<path d="M19.0875 14.0437C19.263 14.0074 19.4454 14.0271 19.6091 14.1C19.7728 14.1729 19.9095 14.2953 20 14.45C20.0905 14.2953 20.2272 14.1729 20.3909 14.1C20.5546 14.0271 20.737 14.0074 20.9125 14.0437C20.8863 13.8201 20.7789 13.6139 20.6107 13.4642C20.4424 13.3146 20.2251 13.2319 20 13.2319C19.7749 13.2319 19.5575 13.3146 19.3893 13.4642C19.2211 13.6139 19.1137 13.8201 19.0875 14.0437Z" fill="white"/>
<path d="M19.8 16.1438C19.7734 16.4484 19.6615 16.7393 19.477 16.9832C19.2925 17.227 19.043 17.4138 18.757 17.5222C18.4711 17.6305 18.1604 17.656 17.8607 17.5957C17.5609 17.5354 17.2843 17.3918 17.0625 17.1813C16.9685 17.4213 16.8207 17.6366 16.6305 17.8106C16.4403 17.9847 16.2127 18.1128 15.9653 18.1852C15.7179 18.2576 15.4572 18.2724 15.2032 18.2284C14.9492 18.1844 14.7086 18.0827 14.5 17.9313C14.6562 19.4938 17 19.175 17.175 17.6563C17.9062 18.95 19.525 18.575 20 16.9938L19.8 16.1438Z" fill="#F8C300"/>
<path d="M20.2 16.1438C20.2266 16.4484 20.3385 16.7393 20.523 16.9832C20.7075 17.227 20.957 17.4138 21.243 17.5222C21.5289 17.6305 21.8396 17.656 22.1393 17.5957C22.4391 17.5354 22.7157 17.3918 22.9375 17.1813C23.0315 17.4213 23.1793 17.6366 23.3695 17.8106C23.5597 17.9847 23.7873 18.1128 24.0347 18.1852C24.2821 18.2576 24.5428 18.2724 24.7968 18.2284C25.0508 18.1844 25.2914 18.0827 25.5 17.9313C25.3438 19.4938 23 19.175 22.825 17.6563C22.0938 18.95 20.475 18.575 20 16.9938L20.2 16.1438Z" fill="#F8C300"/>
<path d="M18.2375 18.9126C17.9062 19.6188 17.2563 19.7376 16.6875 19.1688C16.6875 19.1688 16.9125 19.0063 17.1625 18.9626C17.1125 18.7688 17.2063 18.4938 17.3438 18.3501C17.5257 18.4695 17.6605 18.6485 17.725 18.8563C18.0688 18.8126 18.2375 18.9188 18.2375 18.9188V18.9126Z" fill="#F8C300"/>
<path d="M20.7999 18.8332C20.3577 19.4759 19.697 19.4869 19.2288 18.8329C19.2288 18.8329 19.4773 18.7093 19.7311 18.707C19.7134 18.5077 19.8509 18.2517 20.01 18.1323C20.17 18.2798 20.2738 18.4784 20.3034 18.694C20.6497 18.707 20.7988 18.8394 20.7988 18.8394L20.7999 18.8332Z" fill="#F8C300"/>
<path d="M23.3141 19.1679C22.7739 19.7307 22.1201 19.6348 21.7637 18.9137C21.7637 18.9137 22.029 18.8319 22.2798 18.8706C22.2946 18.6711 22.4715 18.4407 22.6479 18.3486C22.782 18.52 22.8523 18.7328 22.8467 18.9503C23.1863 19.0191 23.3121 19.1739 23.3121 19.1739L23.3141 19.1679Z" fill="#F8C300"/>
<path d="M15.8438 20.4875C18.5558 19.6803 21.4442 19.6803 24.1562 20.4875" stroke="#F8C300" stroke-width="1.375"/>
<path d="M20.647 11.178L18.9532 9.94735H21.0469L19.353 11.178L20 9.18677L20.647 11.178Z" fill="#F8C300"/>
<path d="M17.647 11.9837L15.9532 10.753H18.0469L16.353 11.9837L17 9.99243L17.647 11.9837Z" fill="#F8C300"/>
<path d="M15.4527 14.178L13.7589 12.9473H15.8526L14.1588 14.178L14.8058 12.1868L15.4527 14.178Z" fill="#F8C300"/>
<path d="M14.647 17.178L12.9532 15.9473H15.0469L13.353 17.178L14 15.1868L14.647 17.178Z" fill="#F8C300"/>
<path d="M22.353 11.9837L24.0468 10.753H21.9531L23.647 11.9837L23 9.99243L22.353 11.9837Z" fill="#F8C300"/>
<path d="M24.5473 14.178L26.2411 12.9473H24.1474L25.8412 14.178L25.1942 12.1868L24.5473 14.178Z" fill="#F8C300"/>
<path d="M25.353 17.178L27.0468 15.9473H24.9531L26.647 17.178L26 15.1868L25.353 17.178Z" fill="#F8C300"/>
</g>
<defs>
<clipPath id="clip0_45_5211">
<rect width="40" height="30" fill="white"/>
</clipPath>
</defs>
</svg>
