<svg width="41" height="31" viewBox="0 0 41 31" fill="none" xmlns="http://www.w3.org/2000/svg">
<g clip-path="url(#clip0_45_964)">
<path d="M0.00640869 0H41.0064V31H0.00640869V0Z" fill="#3F9C35"/>
<path d="M0.00640869 0H41.0064V20.6667H0.00640869V0Z" fill="#ED2939"/>
<path d="M0.00640869 0H41.0064V10.3333H0.00640869V0Z" fill="#00B9E4"/>
<path d="M19.475 20.1501C22.0224 20.1501 24.0875 18.0682 24.0875 15.5001C24.0875 12.932 22.0224 10.8501 19.475 10.8501C16.9276 10.8501 14.8625 12.932 14.8625 15.5001C14.8625 18.0682 16.9276 20.1501 19.475 20.1501Z" fill="white"/>
<path d="M20.5 19.375C22.6228 19.375 24.3438 17.6401 24.3438 15.5C24.3438 13.3599 22.6228 11.625 20.5 11.625C18.3772 11.625 16.6562 13.3599 16.6562 15.5C16.6562 17.6401 18.3772 19.375 20.5 19.375Z" fill="#ED2939"/>
<path d="M24.6 12.9167L25.0933 14.3053L26.413 13.6724L25.7852 15.0092L27.1625 15.5001L25.7852 15.9974L26.413 17.3278L25.0933 16.6949L24.6 18.0834L24.1067 16.6949L22.787 17.3278L23.4148 15.9974L22.0375 15.5001L23.4148 15.0028L22.787 13.6724L24.1067 14.3053L24.6 12.9167Z" fill="white"/>
</g>
<defs>
<clipPath id="clip0_45_964">
<rect width="41" height="31" fill="white"/>
</clipPath>
</defs>
</svg>
