<svg width="41" height="31" viewBox="0 0 41 31" fill="none" xmlns="http://www.w3.org/2000/svg">
<g clip-path="url(#clip0_45_971)">
<path d="M0 0H41.0004V31H0V0Z" fill="black"/>
<path fill-rule="evenodd" clip-rule="evenodd" d="M0 0H61.5066V20.592H0V0Z" fill="#B20000"/>
<path fill-rule="evenodd" clip-rule="evenodd" d="M0 20.592H61.5066V31H0V20.592Z" fill="#429F00"/>
<path fill-rule="evenodd" clip-rule="evenodd" d="M0 0H6.81137V31H0V0Z" fill="white"/>
<path fill-rule="evenodd" clip-rule="evenodd" d="M0.324351 0.526758H0.648702V1.05352H0.324351V0.526758ZM1.2974 0.526758H2.27046V1.05352H1.2974V0.526758ZM1.62176 0H1.94611V0.526758H1.62176V0ZM3.24351 0H3.56786V0.526758H3.24351V0ZM4.54091 0.526758H5.51397V1.05352H4.54091V0.526758ZM4.86526 0H5.18962V0.526758H4.86526V0ZM0.973053 1.05352H1.62176V1.57422H0.973053V1.05352ZM1.94611 1.05352H2.59481V1.57422H1.94611V1.05352ZM4.21656 1.05352H4.86526V1.57422H4.21656V1.05352ZM5.18962 1.05352H5.83832V1.57422H5.18962V1.05352ZM0.648702 1.57422H1.2974V2.10098H0.648702V1.57422ZM2.27046 1.57422H2.91916V2.10098H2.27046V1.57422ZM3.89221 1.57422H4.54091V2.10098H3.89221V1.57422ZM5.51397 1.57422H6.16267V2.10098H5.51397V1.57422ZM6.16267 0.526758H6.48702V1.05352H6.16267V0.526758ZM0.324351 2.10098H0.973053V2.62773H0.324351V2.10098ZM2.59481 2.10098H3.24351V2.62773H2.59481V2.10098ZM5.83832 2.10098H6.48702V2.62773H5.83832V2.10098ZM0.648702 3.6752H1.2974V4.20195H0.648702V3.6752ZM0.973053 4.20195H1.62176V4.72871H0.973053V4.20195ZM2.27046 3.68125H2.91916V4.20195H2.27046V3.68125ZM1.94611 4.20195H2.59481V4.72871H1.94611V4.20195ZM1.2974 4.72871H2.27046V5.25547H1.2974V4.72871Z" fill="#B20000"/>
<path fill-rule="evenodd" clip-rule="evenodd" d="M1.62176 5.25547H1.94611V5.78223H1.62176V5.25547ZM3.89221 3.68125H4.54091V4.20195H3.89221V3.68125ZM4.21656 4.20195H4.86526V4.72871H4.21656V4.20195ZM5.51397 3.68125H6.16267V4.20195H5.51397V3.68125ZM5.18962 4.20195H5.83832V4.72871H5.18962V4.20195ZM4.54091 4.72871H5.51397V5.25547H4.54091V4.72871ZM4.86526 5.25547H5.18962V5.78223H4.86526V5.25547ZM3.24351 4.72266H3.56786V5.24941H3.24351V4.72266ZM0 4.72266H0.324351V5.24941H0V4.72266ZM6.48702 4.72266H6.81137V5.24941H6.48702V4.72266ZM1.62176 7.35039H1.94611V7.87715H1.62176V7.35039ZM1.2974 7.8832H2.27046V8.40391H1.2974V7.8832ZM0.973053 8.40391H2.59481V8.93066H0.973053V8.40391ZM4.86526 7.35645H5.18962V7.8832H4.86526V7.35645ZM4.54091 7.8832H5.51397V8.40391H4.54091V7.8832ZM4.21656 8.40391H5.83832V8.93066H4.21656V8.40391ZM4.54091 11.0316H6.16267V11.5584H4.54091V11.0316ZM3.89221 8.93066H6.16267V9.45742H3.89221V8.93066ZM0.648702 8.93066H2.91916V9.45742H0.648702V8.93066ZM0.973053 11.5584H1.94611V12.0852H0.973053V11.5584ZM0.648702 11.0316H2.27046V11.5584H0.648702V11.0316ZM5.18962 9.99023H6.81137V10.517H5.18962V9.99023ZM4.86526 11.5645H5.83832V12.0912H4.86526V11.5645Z" fill="#B20000"/>
<path fill-rule="evenodd" clip-rule="evenodd" d="M1.2974 12.0852H1.62176V12.6119H1.2974V12.0852ZM5.18962 12.0852H5.51397V12.6119H5.18962V12.0852ZM0 9.98418H1.62176V10.5109H0V9.98418ZM2.91916 11.0316H3.89221V11.5584H2.91916V11.0316ZM3.24351 11.5645H3.56786V12.0912H3.24351V11.5645ZM2.27046 9.99023H4.54091V10.517H2.27046V9.99023ZM3.56786 2.10098H4.21656V2.62773H3.56786V2.10098ZM2.91916 2.62773H3.89221V3.15449H2.91916V2.62773ZM2.59481 3.15449H3.24351V3.6752H2.59481V3.15449ZM3.56786 3.15449H4.21656V3.6752H3.56786V3.15449ZM0 2.62773H0.648702V3.15449H0V2.62773ZM0.324351 3.15449H0.973053V3.6752H0.324351V3.15449ZM6.16267 2.62773H6.81137V3.14844H6.16267V2.62773ZM5.83832 3.14844H6.48702V3.66914H5.83832V3.14844ZM0 7.87109H0.324351V8.39785H0V7.87109ZM6.48702 7.87109H6.81137V8.39785H6.48702V7.87109ZM2.91916 12.0791H3.89221V12.6059H2.91916V12.0791ZM2.59481 12.6059H3.24351V13.1266H2.59481V12.6059ZM3.56786 12.6059H4.21656V13.1266H3.56786V12.6059ZM2.27046 13.1266H2.91916V13.6533H2.27046V13.1266ZM3.89221 13.1266H4.54091V13.6533H3.89221V13.1266ZM1.94611 13.6533H2.59481V14.1801H1.94611V13.6533ZM4.21656 13.6533H4.86526V14.1801H4.21656V13.6533ZM1.62176 14.1861H2.27046V14.7129H1.62176V14.1861ZM4.54091 14.1861H5.18962V14.7129H4.54091V14.1861ZM0.973053 14.7129H1.94611V15.2396H0.973053V14.7129ZM4.86526 14.7129H5.83832V15.2396H4.86526V14.7129ZM5.51397 14.1861H6.16267V14.7129H5.51397V14.1861ZM5.83832 13.6594H6.48702V14.1861H5.83832V13.6594ZM6.16267 13.1326H6.81137V13.6594H6.16267V13.1326ZM0.648702 14.1861H1.2974V14.7129H0.648702V14.1861ZM0.324351 13.6594H0.973053V14.1861H0.324351V13.6594ZM0 13.1387H0.648702V13.6654H0V13.1387ZM1.2974 15.2457H1.62176V15.7664H1.2974V15.2457ZM5.18962 15.2457H5.51397V15.7664H5.18962V15.2457ZM3.24351 13.6715H3.56786V14.1922H3.24351V13.6715ZM2.27046 15.2457H2.59481V15.7664H2.27046V15.2457ZM4.21656 15.2457H4.54091V15.7664H4.21656V15.2457ZM3.24351 15.2457H3.56786V15.7664H3.24351V15.2457ZM0 15.2457H0.324351V15.7664H0V15.2457ZM6.48702 15.2457H6.81137V15.7664H6.48702V15.2457ZM3.24351 7.8832H3.56786V8.40391H3.24351V7.8832ZM1.62176 2.62773H1.94611V3.15449H1.62176V2.62773ZM4.86526 2.62773H5.18962V3.15449H4.86526V2.62773ZM2.91916 6.30293H3.89221V6.82969H2.91916V6.30293ZM2.27046 6.82969H3.24351V7.35645H2.27046V6.82969ZM2.59481 7.35645H2.91916V7.8832H2.59481V7.35645ZM1.94611 6.30293H2.59481V6.82969H1.94611V6.30293ZM2.27046 5.78223H3.24351V6.30293H2.27046V5.78223ZM2.59481 5.25547H2.91916V5.78223H2.59481V5.25547ZM3.56786 5.78223H4.54091V6.30293H3.56786V5.78223ZM3.89221 5.25547H4.21656V5.78223H3.89221V5.25547ZM4.21656 6.30293H4.86526V6.82969H4.21656V6.30293ZM3.56786 6.82969H4.54091V7.35645H3.56786V6.82969ZM3.89221 7.35645H4.21656V7.8832H3.89221V7.35645ZM5.18962 6.30293H5.83832V6.82969H5.18962V6.30293ZM5.51397 5.78223H6.48702V6.30293H5.51397V5.78223ZM6.16267 6.30293H6.81137V6.82969H6.16267V6.30293ZM5.51397 6.82969H6.48702V7.35645H5.51397V6.82969ZM5.83832 7.35645H6.16267V7.8832H5.83832V7.35645ZM5.83832 5.25547H6.16267V5.78223H5.83832V5.25547ZM0 6.29688H0.648702V6.82363H0V6.29688ZM0.324351 5.77617H1.2974V6.29688H0.324351V5.77617ZM0.973053 6.29688H1.62176V6.82363H0.973053V6.29688ZM0.324351 6.82363H1.2974V7.35039H0.324351V6.82363Z" fill="#B20000"/>
<path fill-rule="evenodd" clip-rule="evenodd" d="M0.648702 7.35645H0.973053V7.8832H0.648702V7.35645ZM0.648702 5.25547H0.973053V5.78223H0.648702V5.25547ZM0.324351 9.45742H1.62176V9.98418L0.324351 9.98418V9.45742ZM1.94611 9.45742H3.24351V9.98418H1.94611V9.45742ZM3.56786 9.45742H4.86526V9.98418H3.56786V9.45742ZM5.18962 9.45742H6.48702V9.98418H5.18962V9.45742ZM2.59481 10.5109H4.21656V11.0316H2.59481V10.5109ZM0.324351 10.5109H1.94611V11.0316H0.324351V10.5109ZM4.86526 10.5109H6.48702V11.0316H4.86526V10.5109ZM6.48702 12.6119H6.81137V13.1326L6.48702 13.1326V12.6119ZM0 12.6119H0.324351V13.1326H0V12.6119ZM0.324351 30.4732H0.648702V29.9525H0.324351V30.4732ZM1.2974 30.4732H2.27046V29.9525H1.2974V30.4732ZM1.62176 31H1.94611V30.4732H1.62176V31ZM3.24351 31H3.56786V30.4732H3.24351V31ZM4.54091 30.4732H5.51397V29.9465H4.54091V30.4732ZM4.86526 31H5.18962V30.4732H4.86526V31ZM0.973053 29.9465H1.62176V29.4258H0.973053V29.9465ZM1.94611 29.9465H2.59481V29.4258H1.94611V29.9465ZM4.21656 29.9465H4.86526V29.4258H4.21656V29.9465ZM5.18962 29.9465H5.83832V29.4258H5.18962V29.9465ZM2.27046 29.4258H2.91916V28.899H2.27046V29.4258ZM3.89221 29.4258H4.54091V28.899H3.89221V29.4258ZM5.51397 29.4258H6.16267V28.899H5.51397V29.4258ZM6.16267 30.4732H6.48702V29.9465H6.16267V30.4732ZM0.324351 28.899H0.973053V28.3723H0.324351V28.899ZM2.59481 28.899H3.24351V28.3723H2.59481V28.899ZM5.83832 28.899H6.48702V28.3723H5.83832V28.899ZM0.648702 27.3248H1.2974V26.798H0.648702V27.3248ZM0.973053 26.798H1.62176V26.2713H0.973053V26.798ZM2.27046 27.3248H2.91916V26.798H2.27046V27.3248ZM1.94611 26.798H2.59481V26.2713H1.94611V26.798ZM1.2974 26.2713H2.27046V25.7445H1.2974V26.2713ZM1.62176 25.7445H1.94611V25.2238H1.62176V25.7445ZM3.89221 27.3188H4.54091V26.798H3.89221V27.3188ZM4.21656 26.798H4.86526V26.2713H4.21656V26.798ZM5.51397 27.3248H6.16267V26.798H5.51397V27.3248ZM5.18962 26.798H5.83832V26.2713H5.18962V26.798ZM4.54091 26.2713H5.51397V25.7445H4.54091V26.2713ZM4.86526 25.7445H5.18962V25.2238H4.86526V25.7445ZM3.24351 26.2773H3.56786V25.7506H3.24351V26.2773ZM0 26.2773H0.324351V25.7506H0V26.2773ZM6.48702 26.2773H6.81137V25.7506H6.48702V26.2773ZM1.62176 23.6496H1.94611V23.1229H1.62176V23.6496ZM1.2974 23.1168H2.27046V22.5961H1.2974V23.1168ZM0.973053 22.5961H2.59481V22.0693H0.973053V22.5961ZM4.86526 23.6436H5.18962V23.1168H4.86526V23.6436Z" fill="#B20000"/>
<path fill-rule="evenodd" clip-rule="evenodd" d="M4.54091 23.1168H5.51397V22.5961H4.54091V23.1168ZM4.21656 22.5961H5.83832V22.0693H4.21656V22.5961ZM4.54091 19.9684H6.16267V19.4355H4.54091V19.9684ZM3.89221 22.0693H6.16267V21.5426H3.89221V22.0693ZM0.648702 22.0693H2.91916V21.5426H0.648702V22.0693ZM0.973053 19.4416H1.94611V18.9148H0.973053V19.4416ZM0.648702 19.9684H2.27046V19.4355H0.648702V19.9684ZM5.18962 21.0098H6.81137V20.483H5.18962V21.0098ZM4.86526 19.4355H5.83832V18.9088H4.86526V19.4355ZM0 21.0098H1.62176V20.483H0V21.0098ZM2.91916 19.9623H3.89221V19.4355H2.91916V19.9623ZM3.24351 19.4355H3.56786V18.9088H3.24351V19.4355ZM2.27046 21.0098H4.54091V20.483H2.27046V21.0098ZM3.56786 28.893H4.21656V28.3662H3.56786V28.893ZM2.91916 28.3662H3.89221V27.8516H2.91916V28.3662ZM2.59481 27.8395H3.24351V27.3127H2.59481V27.8395ZM3.56786 27.8395H4.21656V27.3127H3.56786V27.8395ZM0 28.3723H0.648702V27.8516H0V28.3723ZM0.324351 27.8455H0.973053V27.3248H0.324351V27.8455ZM6.16267 28.3723H6.81137V27.8516H6.16267V28.3723ZM5.83832 27.8455H6.48702V27.3248H5.83832V27.8455ZM0 23.1289H0.324351V22.6021H0V23.1289ZM6.48702 23.1289H6.81137V22.6021H6.48702V23.1289ZM2.59481 18.3941H3.24351V17.8734H2.59481V18.3941ZM3.56786 18.3941H4.21656V17.8734H3.56786V18.3941ZM2.27046 17.8734H2.91916V17.3467H2.27046V17.8734ZM3.89221 17.8734H4.54091V17.3467H3.89221V17.8734ZM1.94611 17.3467H2.59481V16.8199H1.94611V17.3467ZM4.21656 17.3467H4.86526V16.8199H4.21656V17.3467ZM1.62176 16.8139H2.27046V16.2871H1.62176V16.8139ZM4.54091 16.8139H5.18962V16.2871H4.54091V16.8139ZM0.973053 16.2871H1.94611V15.7604H0.973053V16.2871ZM4.86526 16.2871H5.83832V15.7604H4.86526V16.2871ZM5.51397 16.8139H6.16267V16.2871H5.51397V16.8139ZM5.83832 17.3406H6.48702V16.8139H5.83832V17.3406ZM6.16267 17.8674H6.81137V17.3406H6.16267V17.8674ZM0.648702 16.8139H1.2974V16.2871H0.648702V16.8139ZM0.324351 17.3406H0.973053V16.8139H0.324351V17.3406ZM0 17.8613H0.648702V17.3346H0V17.8613ZM1.2974 15.7543H1.62176V15.2336H1.2974V15.7543ZM3.24351 17.3285H3.56786V16.8078H3.24351V17.3285ZM3.24351 23.1107H3.56786V22.59H3.24351V23.1107ZM1.62176 28.3662H1.94611V27.8516H1.62176V28.3662ZM4.86526 28.3662H5.18962V27.8516H4.86526V28.3662ZM2.91916 24.7031H3.89221V24.1764H2.91916V24.7031ZM2.27046 24.1764H3.24351V23.6496H2.27046V24.1764ZM2.59481 23.6496H2.91916V23.1229H2.59481V23.6496ZM1.94611 24.7031H2.59481V24.1764H1.94611V24.7031ZM2.27046 25.2178H3.24351V24.7031H2.27046V25.2178ZM2.59481 25.7445H2.91916V25.2238H2.59481V25.7445ZM3.56786 25.2178H4.54091V24.7031H3.56786V25.2178ZM3.89221 25.7445H4.21656V25.2238H3.89221V25.7445ZM4.21656 24.6971H4.86526V24.1703H4.21656V24.6971ZM3.56786 24.1703H4.54091V23.6436H3.56786V24.1703ZM3.89221 23.6436H4.21656V23.1168H3.89221V23.6436ZM5.18962 24.7031H5.83832V24.1764H5.18962V24.7031ZM5.51397 25.2178H6.48702V24.7031H5.51397V25.2178ZM6.16267 24.6971H6.81137V24.1703H6.16267V24.6971ZM5.51397 24.1703H6.48702V23.6436H5.51397V24.1703ZM5.83832 23.6436H6.16267V23.1168H5.83832V23.6436ZM5.83832 25.7445H6.16267V25.2238H5.83832V25.7445ZM0 24.7031H0.648702V24.1764H0V24.7031ZM0.324351 25.2178H1.2974V24.7031H0.324351V25.2178Z" fill="#B20000"/>
<path fill-rule="evenodd" clip-rule="evenodd" d="M0.973053 24.6971H1.62176V24.1703H0.973053V24.6971ZM0.324351 24.1703H1.2974V23.6436H0.324351V24.1703ZM0.648702 23.6436H0.973053V23.1168H0.648702V23.6436ZM0.648702 25.7445H0.973053V25.2238H0.648702V25.7445ZM0.324351 21.5426H1.62176V21.0158H0.324351V21.5426ZM1.94611 21.5426H3.24351V21.0158H1.94611V21.5426ZM3.56786 21.5426H4.86526V21.0158H3.56786V21.5426ZM5.18962 21.5426H6.48702V21.0158H5.18962V21.5426ZM2.59481 20.4891H4.21656V19.9684H2.59481V20.4891ZM0.324351 20.4891H1.94611V19.9684H0.324351V20.4891ZM4.86526 20.4891H6.48702V19.9684H4.86526V20.4891ZM6.48702 18.3941H6.81137V17.8613H6.48702V18.3941ZM0 18.3941H0.324351V17.8613H0V18.3941ZM2.91916 15.7604H3.24351V16.2871H2.91916V15.7604ZM3.56786 15.7604H3.89221V16.2871H3.56786V15.7604ZM3.56786 14.7129H3.89221V15.2396H3.56786V14.7129ZM2.91916 14.7129H3.24351V15.2396H2.91916V14.7129ZM0.648702 28.899H1.2974V29.4258H0.648702V28.899ZM5.18962 18.9148H5.51397V18.3881H5.18962V18.9148ZM1.2974 18.9148H1.62176V18.3881H1.2974V18.9148ZM2.91916 18.3881H3.89221V18.9148H2.91916V18.3881Z" fill="#B20000"/>
</g>
<defs>
<clipPath id="clip0_45_971">
<rect width="41" height="31" fill="white"/>
</clipPath>
</defs>
</svg>
