<svg width="42" height="32" viewBox="0 0 42 32" fill="none" xmlns="http://www.w3.org/2000/svg">
<g clip-path="url(#clip0_45_1217)">
<path fill-rule="evenodd" clip-rule="evenodd" d="M0 0H13.9978V32H0V0Z" fill="#00319C"/>
<path fill-rule="evenodd" clip-rule="evenodd" d="M13.9978 0H28.0022V32H13.9978V0Z" fill="#FFDE00"/>
<path fill-rule="evenodd" clip-rule="evenodd" d="M28.0022 0H42V32H28.0022V0Z" fill="#DE2110"/>
<path fill-rule="evenodd" clip-rule="evenodd" d="M23.6512 21.36L25.2394 23.6933C25.3312 23.8267 25.4166 23.9533 25.2853 24.04C25.1541 24.1267 25.1934 24.4667 25.2853 24.6C25.4625 24.86 25.6791 24.9 25.8103 24.8133L27.0178 24.04C27.1491 23.96 27.195 23.74 27.0178 23.48C26.9194 23.3467 26.6241 23.18 26.4928 23.2667C26.355 23.3533 26.2631 23.22 26.1778 23.0933L24.5831 20.76" fill="#FF1900"/>
<path d="M23.6512 21.36L25.2394 23.6933C25.3312 23.8267 25.4166 23.9533 25.2853 24.04C25.1541 24.1267 25.1934 24.4667 25.2853 24.6C25.4625 24.86 25.6791 24.9 25.8103 24.8133L27.0178 24.04C27.1491 23.96 27.195 23.74 27.0178 23.48C26.9194 23.3467 26.6241 23.18 26.4928 23.2667C26.355 23.3533 26.2631 23.22 26.1778 23.0933L24.5831 20.76" stroke="black" stroke-width="0.0875"/>
<path fill-rule="evenodd" clip-rule="evenodd" d="M24.2746 19.7152C24.9849 20.5348 25.232 21.4745 24.8271 21.8052C24.4223 22.1358 23.5108 21.7386 22.8005 20.919C22.0902 20.0994 21.8466 19.1568 22.2515 18.8262C22.6563 18.4956 23.5649 18.8894 24.2781 19.7124L24.2746 19.7152Z" fill="#A77B3B" stroke="black" stroke-width="0.210595"/>
<path fill-rule="evenodd" clip-rule="evenodd" d="M17.1938 20.4067L15.7828 22.8534C15.7041 22.9867 15.6253 23.1201 15.4875 23.0534C15.3497 22.9734 15.0544 23.1667 14.9756 23.3067C14.8181 23.5734 14.8772 23.7867 15.0216 23.8667L16.2816 24.5467C16.4128 24.6201 16.6359 24.5601 16.7934 24.2934C16.8656 24.1467 16.8853 23.8067 16.7475 23.7334C16.6097 23.6601 16.6819 23.5201 16.7672 23.3867L18.1716 20.9401" fill="#FF1900"/>
<path d="M17.1938 20.4067L15.7828 22.8534C15.7041 22.9867 15.6253 23.1201 15.4875 23.0534C15.3497 22.9734 15.0544 23.1667 14.9756 23.3067C14.8181 23.5734 14.8772 23.7867 15.0216 23.8667L16.2816 24.5467C16.4128 24.6201 16.6359 24.5601 16.7934 24.2934C16.8656 24.1467 16.8853 23.8067 16.7475 23.7334C16.6097 23.6601 16.6819 23.5201 16.7672 23.3867L18.1716 20.9401" stroke="black" stroke-width="0.0875"/>
<path fill-rule="evenodd" clip-rule="evenodd" d="M21.735 18.7066H20.4488C20.4094 18.7466 20.0419 21.0799 19.6481 21.9733C19.1691 23.0599 17.7319 24.0199 17.7319 24.0199C17.7319 24.0199 18.5916 24.2866 18.8475 24.4599C18.9131 24.4399 20.2913 24.1466 20.4488 22.4399C20.6063 24.1466 19.4906 24.9266 19.4906 24.9266C19.4906 24.9266 21.0919 25.3933 21.0919 26.4799C21.0919 25.3933 22.6931 24.9266 22.6931 24.9266C22.6931 24.9266 21.8925 24.1466 21.7284 22.4399C22.0566 24.1466 23.2706 24.4399 23.3362 24.4599C23.5922 24.2866 24.4519 24.0199 24.4519 24.0199C24.4519 24.0199 23.0147 23.0599 22.5356 21.9733C22.1419 21.0799 21.7744 18.7466 21.735 18.7066ZM16.2881 10.9266L18.69 11.7066C19.4841 11.7066 20.2913 10.9266 20.2913 10.1466C20.3175 8.41326 19.6481 7.81326 19.4906 7.81326L19.8056 7.50659L19.3266 7.03992C19.3266 7.03992 19.4906 6.23326 21.0919 6.25992C22.6931 6.29326 22.6931 7.03992 22.6931 7.81326C22.6931 8.58659 21.8925 8.59326 21.8925 10.1466C21.8925 10.9266 22.6931 11.7066 23.4937 11.7066L25.8956 10.9266V18.7066H16.2816V10.9266H16.2881Z" fill="#A77B3B" stroke="black" stroke-width="0.2125"/>
<path d="M19.9686 11.238L20.1283 11.7058L20.2891 11.238L20.4489 11.7058L20.7694 11.238L20.9259 11.7307L21.09 11.238L21.3263 11.7307L21.5703 11.238L21.7301 11.7058L21.8909 11.238" stroke="black" stroke-width="0.0174531"/>
<path d="M20.6113 9.52954L20.2902 11.2415M20.7695 9.52954V11.2415M21.0906 9.52954V11.2415M21.4116 9.52954L21.5699 11.2415M21.7327 9.52954L21.891 11.2415" stroke="black" stroke-width="0.0168392"/>
<path fill-rule="evenodd" clip-rule="evenodd" d="M14.6778 6.26367C13.0771 7.04062 13.0771 8.5989 13.0771 9.37585C13.1313 10.0826 13.0771 24.928 13.0771 24.928C13.0771 24.928 13.1811 24.0501 13.8774 23.3741L14.6733 22.5971L15.4737 21.8202C16.0615 21.3022 16.274 20.2619 16.274 19.4849V8.5989C16.274 8.5989 16.274 7.81757 14.6733 6.26367H14.6778Z" fill="#A77B3B" stroke="black" stroke-width="0.210489"/>
<path d="M16.2786 9.37582C16.2605 9.37582 15.4782 8.59888 15.4782 8.59888L14.6778 9.37582L13.8774 8.59888L13.0771 9.37582" stroke="black" stroke-width="0.210489"/>
<path d="M16.2786 10.1505C16.2605 10.1505 15.4782 10.9275 15.4782 10.9275L14.6778 10.1505L13.8774 10.9275L13.0771 10.1505" stroke="black" stroke-width="0.210489"/>
<path d="M16.2786 12.4825C16.2605 12.4825 15.4782 11.7056 15.4782 11.7056L14.6778 12.4825L13.8774 11.7056L13.0771 12.4825" stroke="black" stroke-width="0.210489"/>
<path d="M15.4691 8.59692L15.4782 21.8208" stroke="black" stroke-width="0.289918"/>
<path d="M14.6816 9.37427L14.6907 22.566" stroke="black" stroke-width="0.274663"/>
<path d="M13.881 8.60034L13.8901 23.3781" stroke="black" stroke-width="0.290705"/>
<path fill-rule="evenodd" clip-rule="evenodd" d="M27.4994 6.26367C29.1001 7.04062 29.1001 8.5989 29.1001 9.37585C29.0459 10.0826 29.1001 24.928 29.1001 24.928C29.1001 24.928 28.9961 24.0501 28.2997 23.3741L27.5039 22.5971L26.7035 21.8202C26.1157 21.3022 25.9031 20.2619 25.9031 19.4849V8.5989C25.9031 8.5989 25.9031 7.81757 27.5039 6.26367H27.4994Z" fill="#A77B3B" stroke="black" stroke-width="0.210489"/>
<path d="M25.8986 9.37582C25.9167 9.37582 26.699 8.59888 26.699 8.59888L27.4994 9.37582L28.2997 8.59888L29.1001 9.37582" stroke="black" stroke-width="0.210489"/>
<path d="M25.8986 10.1505C25.9167 10.1505 26.699 10.9275 26.699 10.9275L27.4994 10.1505L28.2997 10.9275L29.1001 10.1505" stroke="black" stroke-width="0.210489"/>
<path d="M25.8986 12.4825C25.9167 12.4825 26.699 11.7056 26.699 11.7056L27.4994 12.4825L28.2997 11.7056L29.1001 12.4825" stroke="black" stroke-width="0.210489"/>
<path d="M26.708 8.59692L26.699 21.8208" stroke="black" stroke-width="0.289918"/>
<path d="M27.5021 9.37427L27.4931 22.566" stroke="black" stroke-width="0.274663"/>
<path d="M28.3027 8.60034L28.2937 23.3781" stroke="black" stroke-width="0.290705"/>
<path fill-rule="evenodd" clip-rule="evenodd" d="M18.9836 20.1914C18.5593 21.1801 17.8125 21.8243 17.3241 21.6268C16.8357 21.4293 16.7811 20.4609 17.2055 19.4722C17.6299 18.4836 18.3808 17.841 18.8692 18.0385C19.3576 18.236 19.4139 19.2004 18.9878 20.1931L18.9836 20.1914Z" fill="#A77B3B" stroke="black" stroke-width="0.210544"/>
<path fill-rule="evenodd" clip-rule="evenodd" d="M16.2816 11.7068H25.8956V16.3735H16.2816V11.7068Z" fill="#FF0000"/>
<path fill-rule="evenodd" clip-rule="evenodd" d="M16.2816 16.3733H25.8956V18.7066C25.8956 20.26 23.4938 20.26 21.0919 21.8133C18.6834 20.2666 16.275 20.2666 16.275 18.7066V16.3733H16.2816Z" fill="#564DFF"/>
<path d="M16.2838 11.7068H25.8973V18.7125C25.8973 20.2664 23.4962 20.2664 21.0906 21.8247C18.6895 20.2664 16.2838 20.2664 16.2838 18.7081V11.7112V11.7068Z" stroke="#FFFF00" stroke-width="0.168392"/>
<path fill-rule="evenodd" clip-rule="evenodd" d="M19.3259 12.0173C19.3259 12.0173 17.7243 13.1613 17.7243 14.2557C17.7243 15.3502 19.4051 15.7171 19.4051 15.7171C19.4051 15.7171 18.8448 15.7171 18.8448 17.1764C18.8448 17.9081 20.5256 17.5432 20.5256 17.9081C20.5256 18.2729 20.5034 19.155 20.5256 19.7342C20.5256 20.099 19.4051 19.7342 19.4051 20.099C19.4051 20.2804 20.247 21.1935 21.089 21.1935C21.931 21.1935 22.7698 20.2804 22.7698 20.099C22.7698 19.7342 21.6493 20.099 21.6493 19.7342V17.9081C21.6493 17.5432 23.3301 17.9081 23.3301 17.1764C23.3301 15.7171 22.7698 15.7171 22.7698 15.7171C22.7698 15.7171 24.4538 15.3522 24.4538 14.2557C24.4538 13.1592 22.849 12.0173 22.849 12.0173C22.849 12.0173 23.7511 13.5261 23.7511 14.2557C23.7511 14.6205 23.3301 15.3522 22.2096 15.3522C22.2096 15.3522 21.9247 14.9854 21.6493 15.3522C21.6493 15.3522 21.3264 14.9854 21.089 15.3522C21.0067 15.4759 20.8611 14.9854 20.5256 15.3522C20.3863 15.4491 20.2724 14.9854 19.9653 15.3522C19.4051 15.3522 18.2845 14.9854 18.2845 14.2557C18.2845 13.5261 19.3259 12.0173 19.3259 12.0173Z" fill="#FFFF00" stroke="black" stroke-width="0.120677"/>
<path fill-rule="evenodd" clip-rule="evenodd" d="M19.3588 18.5517C19.2449 18.6259 19.5044 19.8151 19.5804 19.8667C19.6943 19.9388 20.3686 19.9388 20.4794 19.8667C20.5585 19.8151 20.4794 18.698 20.3686 18.6259C20.2546 18.5517 19.438 18.5022 19.3557 18.5517H19.3588Z" fill="#FFFF00" stroke="black" stroke-width="0.120677"/>
<path fill-rule="evenodd" clip-rule="evenodd" d="M22.8249 18.5517C22.9389 18.6259 22.6793 19.8151 22.6034 19.8667C22.4894 19.9388 21.8152 19.9388 21.7044 19.8667C21.6253 19.8151 21.7044 18.698 21.8152 18.6259C21.9291 18.5517 22.7458 18.5022 22.8281 18.5517H22.8249Z" fill="#FFFF00" stroke="black" stroke-width="0.120677"/>
<path fill-rule="evenodd" clip-rule="evenodd" d="M20.5114 18.1179C20.5114 18.2269 20.45 18.3315 20.3409 18.4086C20.2317 18.4857 20.0836 18.529 19.9292 18.529C19.7749 18.529 19.6268 18.4857 19.5176 18.4086C19.4085 18.3315 19.3471 18.2269 19.3471 18.1179C19.3471 18.0089 19.4085 17.9043 19.5176 17.8272C19.6268 17.7501 19.7749 17.7068 19.9292 17.7068C20.0836 17.7068 20.2317 17.7501 20.3409 17.8272C20.45 17.9043 20.5114 18.0089 20.5114 18.1179Z" fill="#FFFF00" stroke="black" stroke-width="0.144454"/>
<path fill-rule="evenodd" clip-rule="evenodd" d="M22.8282 18.1182C22.8282 18.2272 22.7669 18.3318 22.6577 18.4089C22.5485 18.486 22.4005 18.5293 22.2461 18.5293C22.0917 18.5293 21.9436 18.486 21.8344 18.4089C21.7253 18.3318 21.6639 18.2272 21.6639 18.1182C21.6639 18.0091 21.7253 17.9045 21.8344 17.8274C21.9436 17.7503 22.0917 17.707 22.2461 17.707C22.4005 17.707 22.5485 17.7503 22.6577 17.8274C22.7669 17.9045 22.8282 18.0091 22.8282 18.1182Z" fill="#FFFF00" stroke="black" stroke-width="0.144457"/>
<path fill-rule="evenodd" clip-rule="evenodd" d="M22.1025 20.5001C22.1025 20.6001 21.9712 20.6801 21.8203 20.6801C21.6628 20.6801 21.5381 20.6001 21.5381 20.5001C21.5381 20.4001 21.6694 20.3201 21.8203 20.3201C21.9712 20.3201 22.1025 20.4001 22.1025 20.5001ZM20.6391 20.5001C20.6391 20.6001 20.5144 20.6801 20.3634 20.6801C20.2059 20.6801 20.0812 20.6001 20.0812 20.5001C20.0812 20.4001 20.2059 20.3201 20.3634 20.3201C20.5144 20.3201 20.6391 20.4001 20.6391 20.5001Z" fill="black"/>
<path fill-rule="evenodd" clip-rule="evenodd" d="M21.091 14.667L20.7469 14.2259L20.1822 14.2987L20.2616 13.7505L19.8072 13.4208L20.2616 13.0867L20.1822 12.5386L20.7469 12.6157L21.091 12.1746L21.4351 12.6157L21.9954 12.5386L21.9204 13.0867L22.3704 13.4208L21.9204 13.7548L21.9954 14.2987L21.4307 14.2259L21.091 14.667Z" fill="#FFFF00" stroke="black" stroke-width="0.0903568"/>
<path fill-rule="evenodd" clip-rule="evenodd" d="M23.4917 16.3728L24.4549 16.8424L25.418 16.3728L24.4549 15.9075L23.4962 16.3728H23.4917Z" fill="#FFFF00" stroke="black" stroke-width="0.0926153"/>
<path fill-rule="evenodd" clip-rule="evenodd" d="M16.6011 16.3728L17.5642 16.8424L18.5274 16.3728L17.5642 15.9075L16.6056 16.3728H16.6011Z" fill="#FFFF00" stroke="black" stroke-width="0.0926153"/>
<path fill-rule="evenodd" clip-rule="evenodd" d="M24.9783 19.1562C24.6834 18.9663 24.1866 19.061 23.9082 19.2162C23.6298 19.3714 23.3514 19.5266 23.314 20.0891C22.9942 19.5486 23.246 19.0488 23.6695 18.8127C23.8941 18.7055 24.1513 18.6817 24.3927 18.7456C24.6341 18.8096 24.8432 18.957 24.9805 19.16L24.9783 19.1562Z" fill="#FFFF00" stroke="black" stroke-width="0.0926513"/>
<path fill-rule="evenodd" clip-rule="evenodd" d="M18.3626 18.2396C18.3626 18.3217 18.329 18.4004 18.2692 18.4585C18.2094 18.5165 18.1284 18.5491 18.0438 18.5491C17.9593 18.5491 17.8782 18.5165 17.8184 18.4585C17.7586 18.4004 17.725 18.3217 17.725 18.2396C17.725 18.1576 17.7586 18.0788 17.8184 18.0208C17.8782 17.9628 17.9593 17.9302 18.0438 17.9302C18.1284 17.9302 18.2094 17.9628 18.2692 18.0208C18.329 18.0788 18.3626 18.1576 18.3626 18.2396Z" fill="#FFFF00" stroke="black" stroke-width="0.0926153"/>
<path fill-rule="evenodd" clip-rule="evenodd" d="M18.041 19.3263C18.041 19.4084 18.0075 19.4871 17.9477 19.5451C17.8879 19.6032 17.8068 19.6358 17.7222 19.6358C17.6377 19.6358 17.5566 19.6032 17.4968 19.5451C17.437 19.4871 17.4035 19.4084 17.4035 19.3263C17.4035 19.2442 17.437 19.1655 17.4968 19.1075C17.5566 19.0494 17.6377 19.0168 17.7222 19.0168C17.8068 19.0168 17.8879 19.0494 17.9477 19.1075C18.0075 19.1655 18.041 19.2442 18.041 19.3263Z" fill="#FFFF00" stroke="black" stroke-width="0.0926153"/>
<path fill-rule="evenodd" clip-rule="evenodd" d="M17.8835 18.7064C17.8835 18.7885 17.85 18.8672 17.7902 18.9253C17.7304 18.9833 17.6493 19.0159 17.5647 19.0159C17.4802 19.0159 17.3991 18.9833 17.3393 18.9253C17.2795 18.8672 17.246 18.7885 17.246 18.7064C17.246 18.6244 17.2795 18.5456 17.3393 18.4876C17.3991 18.4296 17.4802 18.397 17.5647 18.397C17.6493 18.397 17.7304 18.4296 17.7902 18.4876C17.85 18.5456 17.8835 18.6244 17.8835 18.7064Z" fill="#FFFF00" stroke="black" stroke-width="0.0926153"/>
<path fill-rule="evenodd" clip-rule="evenodd" d="M18.6842 19.3263C18.6842 19.4084 18.6506 19.4871 18.5908 19.5451C18.531 19.6032 18.4499 19.6358 18.3654 19.6358C18.2808 19.6358 18.1997 19.6032 18.14 19.5451C18.0802 19.4871 18.0466 19.4084 18.0466 19.3263C18.0466 19.2442 18.0802 19.1655 18.14 19.1075C18.1997 19.0494 18.2808 19.0168 18.3654 19.0168C18.4499 19.0168 18.531 19.0494 18.5908 19.1075C18.6506 19.1655 18.6842 19.2442 18.6842 19.3263Z" fill="#FFFF00" stroke="black" stroke-width="0.0926153"/>
<path fill-rule="evenodd" clip-rule="evenodd" d="M18.8417 18.7064C18.8417 18.7885 18.8081 18.8672 18.7483 18.9253C18.6885 18.9833 18.6074 19.0159 18.5229 19.0159C18.4383 19.0159 18.3572 18.9833 18.2975 18.9253C18.2377 18.8672 18.2041 18.7885 18.2041 18.7064C18.2041 18.6244 18.2377 18.5456 18.2975 18.4876C18.3572 18.4296 18.4383 18.397 18.5229 18.397C18.6074 18.397 18.6885 18.4296 18.7483 18.4876C18.8081 18.5456 18.8417 18.6244 18.8417 18.7064Z" fill="#FFFF00" stroke="black" stroke-width="0.0926153"/>
<path fill-rule="evenodd" clip-rule="evenodd" d="M18.3626 18.8598C18.3626 18.9418 18.329 19.0205 18.2692 19.0786C18.2094 19.1366 18.1284 19.1692 18.0438 19.1692C17.9593 19.1692 17.8782 19.1366 17.8184 19.0786C17.7586 19.0205 17.725 18.9418 17.725 18.8598C17.725 18.7777 17.7586 18.699 17.8184 18.6409C17.8782 18.5829 17.9593 18.5503 18.0438 18.5503C18.1284 18.5503 18.2094 18.5829 18.2692 18.6409C18.329 18.699 18.3626 18.7777 18.3626 18.8598Z" fill="#FFFF00" stroke="black" stroke-width="0.0926153"/>
<path fill-rule="evenodd" clip-rule="evenodd" d="M19.5431 8.02659C18.7294 8.02659 18.6244 8.15993 18.2569 8.28659C18.2569 7.92659 19.1625 7.50659 19.9631 7.50659C19.9631 7.76659 19.7531 8.02659 19.5431 8.02659Z" fill="#DA4500"/>
<path fill-rule="evenodd" clip-rule="evenodd" d="M20.7703 7.20005C20.7703 7.36672 20.6259 7.50672 20.4488 7.50672C20.2716 7.50672 20.1272 7.36672 20.1272 7.19339C20.1272 7.02005 20.2716 6.88672 20.4488 6.88672C20.6259 6.88672 20.7703 7.02005 20.7703 7.19339V7.20005Z" fill="#CAC9C7"/>
<path fill-rule="evenodd" clip-rule="evenodd" d="M17.4052 6.11013V6.57542H18.2056V8.90626H18.6895V6.57542H19.4898V6.11013H18.6895V5.48682H18.2011V6.11013H17.4007H17.4052Z" fill="#FFFF00" stroke="black" stroke-width="0.0926153"/>
<path fill-rule="evenodd" clip-rule="evenodd" d="M19.9697 7.50656C19.3183 7.46876 18.6658 7.55699 18.0469 7.76656C18.0469 7.28656 18.5981 6.72656 19.5431 6.72656C19.7531 6.72656 19.9697 7.24656 19.9697 7.50656Z" fill="#DA4500"/>
<path fill-rule="evenodd" clip-rule="evenodd" d="M11.6326 15.766C11.402 15.261 11.4074 15.0998 11.8176 15.6776L16.7595 25.1952L16.6082 25.2385L11.6352 15.7679L11.6326 15.766Z" fill="#008500" stroke="black" stroke-width="0.0321037"/>
<path fill-rule="evenodd" clip-rule="evenodd" d="M14.9887 22.0267C15.0413 21.32 13.7681 20.56 13.7156 20.6067C13.6697 20.66 13.7944 21.0733 14.0372 21.28C13.5778 21.04 13.0922 20.8933 13.0791 20.9933C13.0397 21.14 13.8009 21.4733 13.8666 21.6067C13.8666 21.7 13.3022 21.6867 13.3153 21.78C13.3284 21.8733 14.91 22.6867 14.9887 22.0267ZM13.7156 19.9733C13.7681 19.2667 12.495 18.5067 12.4491 18.5533C12.3966 18.6 12.5213 19.0133 12.7641 19.2267C12.3047 18.9867 11.8191 18.8333 11.8059 18.94C11.7731 19.08 12.5278 19.42 12.5934 19.5533C12.6 19.6467 12.0356 19.6333 12.0422 19.7267C12.0553 19.82 13.6369 20.6267 13.7156 19.9733ZM12.7444 18.1067C12.7969 17.4 11.5238 16.64 11.4713 16.6867C11.4253 16.7333 11.55 17.1467 11.7928 17.36C11.3334 17.12 10.8478 16.9667 10.8347 17.0733C10.8019 17.2133 11.5566 17.5533 11.6222 17.6867C11.6222 17.78 11.0644 17.7667 11.0709 17.86C11.0841 17.9533 12.6656 18.7667 12.7444 18.1067ZM11.7863 16.08C11.8322 15.38 10.5656 14.6133 10.5131 14.66C10.4606 14.7133 10.5919 15.1267 10.8281 15.34C10.3688 15.0933 9.88313 14.9467 9.87656 15.0533C9.83719 15.1933 10.5984 15.5333 10.6575 15.66C10.6641 15.7533 10.0997 15.7467 10.1128 15.84C10.1194 15.9333 11.7009 16.74 11.7863 16.08Z" fill="#008F00"/>
<path fill-rule="evenodd" clip-rule="evenodd" d="M12.1144 15.9934C12.7313 15.6134 12.6066 14.1667 12.5409 14.1534C12.4688 14.1467 12.1997 14.4867 12.1669 14.8067C12.0947 14.3001 11.9306 13.8334 11.8388 13.8867C11.7009 13.9401 11.865 14.7334 11.7928 14.8601C11.7272 14.9267 11.3991 14.4734 11.3334 14.5401C11.2547 14.6067 11.5172 16.3201 12.1209 15.9934H12.1144ZM13.0069 17.7667C13.7156 17.6067 14.1028 16.2067 14.0372 16.1734C13.9716 16.1401 13.6041 16.3734 13.4663 16.6667C13.5713 16.1667 13.5778 15.6734 13.4663 15.6934C13.3153 15.7001 13.2038 16.5001 13.0922 16.5934C13.0069 16.6334 12.8494 16.1067 12.7641 16.1401C12.6722 16.1801 12.3309 17.8801 13.0069 17.7667ZM14.07 19.5801C14.7197 19.2601 14.7263 17.8067 14.6606 17.7934C14.595 17.7734 14.2997 18.0934 14.2341 18.4067C14.2078 17.8934 14.0897 17.4201 13.9913 17.4667C13.8469 17.5067 13.9388 18.3067 13.86 18.4267C13.7813 18.4867 13.4991 18.0067 13.4203 18.0667C13.3416 18.1201 13.4466 19.8534 14.0766 19.5801H14.07ZM15.225 21.9534C15.9009 21.6934 16.065 20.2534 15.9994 20.2267C15.9338 20.2067 15.6056 20.4934 15.5072 20.8001C15.5334 20.2867 15.4678 19.8001 15.3628 19.8401C15.2119 19.8667 15.225 20.6734 15.1331 20.7867C15.0478 20.8334 14.8181 20.3334 14.7394 20.3867C14.6541 20.4267 14.5753 22.1667 15.225 21.9534Z" fill="#008F00"/>
<path fill-rule="evenodd" clip-rule="evenodd" d="M16.7137 24.427C16.5417 24.7259 15.9979 24.753 15.4925 24.4791C14.9872 24.2052 14.7255 23.7416 14.8975 23.4427C15.0694 23.1437 15.6171 23.1188 16.1186 23.3906C16.62 23.6623 16.8856 24.128 16.7137 24.427Z" fill="#FF1900" stroke="black" stroke-width="0.0926506"/>
<path fill-rule="evenodd" clip-rule="evenodd" d="M29.7621 14.4139L29.8472 14.1909L30.0764 14.2642L30.1614 14.0411L30.3906 14.1144L30.3067 14.3343L30.5424 14.4097L30.4562 14.636L30.2204 14.5606L30.0083 15.1167L29.7792 15.0434L29.9913 14.4873L29.7621 14.4139ZM29.2699 16.3787L29.4991 16.452L27.0365 22.9089L26.8074 22.8355L29.2699 16.3787Z" fill="#FFFF00" stroke="black" stroke-width="0.0321346"/>
<path fill-rule="evenodd" clip-rule="evenodd" d="M26.7314 22.6878L27.1963 22.8365L26.5169 24.618L26.052 24.4693L26.7314 22.6878ZM29.4649 15.1931L30.1622 15.4162C30.6239 15.5638 29.577 16.6038 29.577 16.6038L29.1154 16.4562C29.1154 16.4562 29 15.0444 29.4649 15.1931ZM30.1058 15.2077C30.0699 15.302 29.9396 15.3449 29.8119 15.3041C29.6843 15.2632 29.6083 15.1543 29.643 15.0632C29.6778 14.9721 29.8092 14.926 29.9369 14.9669C30.0646 15.0077 30.1406 15.1166 30.1046 15.2109L30.1058 15.2077Z" fill="#FFFF00" stroke="black" stroke-width="0.0321346"/>
<path fill-rule="evenodd" clip-rule="evenodd" d="M27.1045 23.6132C27.2993 23.8987 27.0745 24.3801 26.5919 24.6904C26.1094 25.0006 25.565 25.0136 25.3703 24.7282C25.1755 24.4427 25.404 23.9588 25.8828 23.651C26.3616 23.3432 26.9097 23.3278 27.1045 23.6132Z" fill="#FF1900" stroke="black" stroke-width="0.0926565"/>
</g>
<defs>
<clipPath id="clip0_45_1217">
<rect width="42" height="32" fill="white"/>
</clipPath>
</defs>
</svg>
