<svg width="41" height="31" viewBox="0 0 41 31" fill="none" xmlns="http://www.w3.org/2000/svg">
<g clip-path="url(#clip0_45_1819)">
<mask id="mask0_45_1819" style="mask-type:luminance" maskUnits="userSpaceOnUse" x="0" y="0" width="41" height="31">
<path d="M0.00215149 0H40.9981V31H0.00215149V0Z" fill="white"/>
</mask>
<g mask="url(#mask0_45_1819)">
<path fill-rule="evenodd" clip-rule="evenodd" d="M-2.5625 0H43.5625V31H-2.5625V0Z" fill="#00843D"/>
<path fill-rule="evenodd" clip-rule="evenodd" d="M13.2509 8.32529C14.9266 9.13662 16.9205 8.32529 17.6412 7.19912C18.3859 6.14561 18.476 4.38369 17.1968 2.76709C19.1787 4.42607 19.6231 6.30908 18.6322 7.85908C17.3109 9.63311 14.392 9.57861 13.2509 8.32529Z" fill="white"/>
<path fill-rule="evenodd" clip-rule="evenodd" d="M16.2238 4.20195L16.5602 4.20801L16.2959 4.41992L16.398 4.75898L16.1157 4.55918L15.8455 4.75898L15.9355 4.42598L15.6653 4.21406L16.0016 4.20801L16.1157 3.875L16.2238 4.20195ZM14.5602 6.30898H14.8965L14.6323 6.52695L14.7344 6.85996L14.4521 6.66016L14.1758 6.86602L14.2719 6.52695L14.0017 6.32109L14.338 6.30898L14.4461 5.97598L14.5602 6.30898ZM14.6683 4.65H15.0106L14.7404 4.86797L14.8425 5.20098L14.5662 5.00117L14.2899 5.20703L14.386 4.86797L14.1158 4.65605L14.4521 4.65L14.5602 4.31699L14.6683 4.65ZM14.6683 2.98496H15.0106L14.7344 3.20898L14.8365 3.54199L14.5602 3.34824L14.2839 3.54805L14.38 3.21504L14.1098 3.00312L14.4461 2.99707L14.5542 2.66406L14.6683 2.98496ZM12.8245 5.09199H13.1608L12.8906 5.30996L12.9927 5.64297L12.7164 5.44316L12.4401 5.64902L12.5362 5.30996L12.266 5.1041L12.6023 5.09199L12.7104 4.75898L12.8245 5.09199Z" fill="white"/>
<path fill-rule="evenodd" clip-rule="evenodd" d="M0.290283 0H10.1759V31H0.290283V0Z" fill="#CA3745"/>
<path fill-rule="evenodd" clip-rule="evenodd" d="M0.290283 8.08301V7.85898L0.698682 7.30801L0.620605 7.19297L0.86084 6.86602L0.782764 6.75098L0.620605 6.975L0.536523 6.86602L1.11309 6.09102L1.19717 6.2L1.11309 6.30898L1.28125 6.53906L1.68965 5.98203L1.27524 5.44316L1.11309 5.64902L1.19717 5.76406L1.11309 5.87305L0.536523 5.09805L0.620605 4.98906L0.782764 5.20703L0.866846 5.09805L0.620605 4.76504L0.698682 4.65605L0.290283 4.09902V3.875L0.866846 4.65L0.782764 4.75898L1.029 5.09199L0.866846 5.31602L1.029 5.53398L1.28125 5.20703L1.86382 5.99414L1.28125 6.75703L1.04102 6.42402L0.872852 6.64805L1.03501 6.87207L0.794775 7.19902L0.872852 7.31406L0.296289 8.08906L0.290283 8.08301Z" fill="#FAAE29"/>
<path fill-rule="evenodd" clip-rule="evenodd" d="M0.290283 5.31592L0.374365 5.53389V5.87295H0.620605L0.788769 5.98193L0.620605 6.09697H0.380371V6.42393L0.296289 6.64795V5.31592H0.290283Z" fill="#FAAE29"/>
<path fill-rule="evenodd" clip-rule="evenodd" d="M0.290283 13.3991V13.1751L0.698682 12.6241L0.620605 12.5091L0.86084 12.1761L0.782764 12.0671L0.620605 12.2911L0.536523 12.1761L1.11309 11.4011L1.19717 11.5161L1.11309 11.6251L1.28125 11.8491L1.68965 11.2921L1.27524 10.7532L1.11309 10.9591L1.19717 11.0741L1.11309 11.1831L0.536523 10.4081L0.620605 10.2931L0.782764 10.511L0.866846 10.4021L0.620605 10.069L0.698682 9.96006L0.290283 9.40303V9.18506L0.866846 9.96006L0.782764 10.069L1.029 10.4021L0.866846 10.62L1.029 10.844L1.27524 10.511L1.85781 11.2981L1.27524 12.061L1.03501 11.728L0.866846 11.9521L1.029 12.17L0.788769 12.503L0.866846 12.6181L0.290283 13.3931V13.3991Z" fill="#FAAE29"/>
<path fill-rule="evenodd" clip-rule="evenodd" d="M0.290283 10.626L0.374365 10.85V11.183H0.620605L0.788769 11.292L0.620605 11.401H0.380371V11.734L0.296289 11.958V10.626H0.290283Z" fill="#FAAE29"/>
<path fill-rule="evenodd" clip-rule="evenodd" d="M0.290283 18.709V18.491L0.698682 17.934L0.620605 17.825L0.86084 17.492L0.782764 17.383L0.620605 17.601L0.536523 17.492L1.11309 16.717L1.19717 16.826L1.11309 16.941L1.28125 17.165L1.68965 16.608L1.27524 16.0631L1.11309 16.275L1.19717 16.384L1.11309 16.493L0.536523 15.718L0.620605 15.609L0.782764 15.833L0.866846 15.718L0.620605 15.391L0.698682 15.276L0.290283 14.725V14.501L0.866846 15.276L0.782764 15.391L1.029 15.718L0.866846 15.942L1.029 16.166L1.28125 15.833L1.85781 16.6201L1.27524 17.383L1.03501 17.05L0.866846 17.268L1.029 17.492L0.788769 17.825L0.866846 17.934L0.290283 18.709Z" fill="#FAAE29"/>
<path fill-rule="evenodd" clip-rule="evenodd" d="M0.290283 15.9421L0.380371 16.1661V16.4991H0.620605L0.788769 16.6081L0.620605 16.711H0.380371V17.044L0.296289 17.2681V15.936L0.290283 15.9421Z" fill="#FAAE29"/>
<path fill-rule="evenodd" clip-rule="evenodd" d="M0.290283 23.6919V23.4679L0.698682 22.9169L0.620605 22.8079L0.86084 22.4749L0.782764 22.3659L0.620605 22.5839L0.536523 22.4749L1.11309 21.6999L1.19717 21.8089L1.11309 21.9179L1.28125 22.1419L1.68965 21.5909L1.27524 21.046L1.11309 21.2579L1.19717 21.3669L1.11309 21.4759L0.536523 20.7009L0.620605 20.5919L0.782764 20.8159L0.866846 20.7009L0.620605 20.3679L0.698682 20.2589L0.290283 19.7079V19.4839L0.866846 20.2589L0.782764 20.3679L1.029 20.7009L0.866846 20.9249L1.029 21.1429L1.28125 20.8159L1.85781 21.603L1.27524 22.3659L1.03501 22.0329L0.866846 22.2509L1.029 22.4749L0.788769 22.8079L0.866846 22.9169L0.290283 23.6919Z" fill="#FAAE29"/>
<path fill-rule="evenodd" clip-rule="evenodd" d="M0.290283 20.925L0.374365 21.143V21.476H0.620605L0.788769 21.591L0.620605 21.7H0.380371V22.033L0.296289 22.251V20.9189L0.290283 20.925Z" fill="#FAAE29"/>
<path fill-rule="evenodd" clip-rule="evenodd" d="M10.1759 8.08301V7.85898L9.76753 7.30801L9.85161 7.19297L9.60537 6.86602L9.68345 6.75098L9.85161 6.975L9.93569 6.86602L9.35913 6.09102L9.27505 6.2L9.35913 6.30898L9.18496 6.53301L8.78257 5.97598L9.19097 5.43711L9.35913 5.64297L9.27505 5.75801L9.35312 5.86699L9.92969 5.09199L9.85161 4.98301L9.68345 5.20098L9.60537 5.09199L9.84561 4.75898L9.76753 4.65L10.1759 4.09297V3.875L9.60537 4.65L9.68345 4.75898L9.44321 5.09199L9.60537 5.31602L9.43721 5.53398L9.19097 5.20098L8.6084 5.98809L9.19097 6.75098L9.43721 6.41797L9.60537 6.64199L9.43721 6.86602L9.68345 7.19297L9.60537 7.30801L10.1759 8.08301Z" fill="#FAAE29"/>
<path fill-rule="evenodd" clip-rule="evenodd" d="M10.1759 5.31592L10.0918 5.53389V5.87295H9.85161L9.68345 5.98193L9.84561 6.09697H10.0918V6.42393L10.1759 6.64795V5.31592Z" fill="#FAAE29"/>
<path fill-rule="evenodd" clip-rule="evenodd" d="M10.206 13.3989V13.1749L9.79756 12.6239L9.87564 12.5089L9.6354 12.1759L9.71348 12.0669L9.87564 12.2909L9.95972 12.1759L9.38315 11.4009L9.29907 11.5159L9.38315 11.6249L9.21499 11.8489L8.80659 11.2919L9.221 10.753L9.38315 10.9589L9.29907 11.0679L9.38315 11.1829L9.95972 10.4079L9.87564 10.2929L9.71348 10.5169L9.62939 10.4079L9.87564 10.0749L9.79756 9.96592L10.206 9.40889V9.19092L9.62939 9.96592L9.71348 10.0749L9.46724 10.4079L9.62939 10.6259L9.46724 10.8499L9.221 10.5169L8.63843 11.304L9.221 12.0669L9.46123 11.7339L9.62939 11.9579L9.46724 12.1759L9.70747 12.5089L9.62939 12.6179L10.206 13.3929V13.3989Z" fill="#FAAE29"/>
<path fill-rule="evenodd" clip-rule="evenodd" d="M10.206 10.626L10.1219 10.85V11.183H9.86963L9.70146 11.292L9.86963 11.401H10.1099V11.734L10.1999 11.958V10.626H10.206Z" fill="#FAAE29"/>
<path fill-rule="evenodd" clip-rule="evenodd" d="M10.1759 18.709V18.491L9.76753 17.934L9.85161 17.825L9.60537 17.492L9.68345 17.383L9.85161 17.601L9.93569 17.492L9.35913 16.717L9.27505 16.826L9.35913 16.941L9.18496 17.165L8.78257 16.608L9.19097 16.0631L9.35913 16.275L9.27505 16.384L9.35312 16.493L9.92969 15.718L9.85161 15.609L9.68345 15.833L9.60537 15.718L9.84561 15.391L9.76753 15.276L10.1759 14.725V14.501L9.60537 15.276L9.68345 15.391L9.44321 15.718L9.60537 15.942L9.43721 16.166L9.19097 15.833L8.6084 16.6201L9.19097 17.383L9.43721 17.05L9.60537 17.268L9.43721 17.492L9.68345 17.825L9.60537 17.934L10.1699 18.709H10.1759Z" fill="#FAAE29"/>
<path fill-rule="evenodd" clip-rule="evenodd" d="M10.1759 15.9419L10.0918 16.1659V16.4989H9.85161L9.68345 16.6079L9.84561 16.7169H10.0918V17.0499L10.1759 17.2739V15.9419Z" fill="#FAAE29"/>
<path fill-rule="evenodd" clip-rule="evenodd" d="M10.1759 23.6919V23.4679L9.76753 22.9169L9.85161 22.808L9.60537 22.475L9.68345 22.366L9.85161 22.5839L9.93569 22.475L9.35913 21.7L9.27505 21.8089L9.35913 21.9179L9.18496 22.1419L8.78257 21.591L9.19097 21.046L9.35913 21.258L9.27505 21.3669L9.35312 21.4759L9.92969 20.707L9.85161 20.598L9.68345 20.822L9.60537 20.707L9.84561 20.374L9.76753 20.265L10.1759 19.714V19.49L9.60537 20.265L9.68345 20.374L9.44321 20.707L9.60537 20.931L9.43721 21.149L9.19097 20.822L8.6084 21.6091L9.19097 22.372L9.43721 22.039L9.60537 22.257L9.43721 22.481L9.68345 22.814L9.60537 22.923L10.1759 23.698V23.6919Z" fill="#FAAE29"/>
<path fill-rule="evenodd" clip-rule="evenodd" d="M10.1759 20.925L10.0918 21.143V21.476H9.85161L9.68345 21.591L9.84561 21.7H10.0918V22.033L10.1759 22.251V20.9189V20.925Z" fill="#FAAE29"/>
<path fill-rule="evenodd" clip-rule="evenodd" d="M0.290285 2.10098V1.88301L0.698683 1.32598L0.620607 1.21699L0.860841 0.883984L0.782765 0.775L0.620607 0.999023L0.536525 0.883984L1.11309 0.108984L1.19717 0.224023L1.11309 0.333008L1.28125 0.557031L1.68965 0H1.85781L1.28125 0.775L1.02901 0.441992L0.866847 0.666016L1.02901 0.883984L0.788771 1.21699L0.860841 1.33203L0.290285 2.10703V2.10098ZM0.290285 0H0.788771L0.620607 0.108984H0.380373V0.441992L0.284279 0.666016V0H0.290285ZM10.1759 2.10098V1.88301L9.76753 1.32598L9.85161 1.21699L9.60537 0.883984L9.68345 0.775L9.85161 0.999023L9.92969 0.883984L9.35313 0.108984L9.27505 0.224023L9.35313 0.333008L9.18496 0.557031L8.77656 0H8.6084L9.19097 0.775L9.43721 0.441992L9.60537 0.666016L9.43721 0.883984L9.68345 1.21699L9.60537 1.32598L10.1759 2.10098ZM10.1759 0H9.68345L9.84561 0.108984H10.0918V0.441992L10.1759 0.666016V0ZM4.4103 30.558C4.4103 30.558 4.77066 29.9283 5.65952 29.7406C6.5544 29.5469 6.71055 30.1584 7.22105 30.1584C7.73154 30.1584 8.54234 29.7346 8.54234 29.7346C8.54234 29.7346 7.73154 30.5398 7.10093 30.5217C6.48233 30.5035 6.27212 30.0979 5.62949 30.1584C4.99287 30.2189 4.4103 30.5762 4.4103 30.558Z" fill="#FAAE29"/>
<path fill-rule="evenodd" clip-rule="evenodd" d="M6.13398 30.558C6.13398 30.558 5.77964 29.9283 4.89077 29.7406C3.98989 29.5468 3.83974 30.1583 3.32925 30.1583C2.81875 30.1583 2.00796 29.7345 2.00796 29.7345C2.00796 29.7345 2.81875 30.5398 3.44336 30.5216C4.06797 30.5035 4.28418 30.0978 4.91479 30.1583C5.55742 30.2189 6.13398 30.5761 6.13398 30.558Z" fill="#FAAE29"/>
<path fill-rule="evenodd" clip-rule="evenodd" d="M3.21514 29.5165C3.13706 29.3531 2.93887 28.6265 3.04097 28.5357C3.20313 28.4751 3.62354 29.2199 3.58149 29.8798C3.30522 30.0312 2.38032 29.8193 2.38633 29.6255C2.45239 29.3531 2.98091 29.4439 3.21514 29.5165Z" fill="#FAAE29"/>
<path fill-rule="evenodd" clip-rule="evenodd" d="M2.65059 28.8807C2.60254 28.6991 2.51846 27.9362 2.63858 27.8756C2.80073 27.8635 3.09502 28.7051 2.95689 29.3409C2.6626 29.4135 1.78574 28.9473 1.82779 28.7596C1.93589 28.5174 2.42837 28.7475 2.65059 28.8807Z" fill="#FAAE29"/>
<path fill-rule="evenodd" clip-rule="evenodd" d="M2.19414 28.1784C2.1581 27.9847 2.14609 27.2097 2.26621 27.1733C2.42837 27.1854 2.65058 28.0694 2.4584 28.681C2.1581 28.7052 1.3293 28.0997 1.38935 27.9241C1.50947 27.694 1.98994 28.0028 2.19414 28.1784Z" fill="#FAAE29"/>
<path fill-rule="evenodd" clip-rule="evenodd" d="M1.83379 27.4276C1.82178 27.2278 1.89385 26.4589 2.01997 26.4468C2.18213 26.4892 2.29624 27.4095 2.03199 27.9726C1.7377 27.9362 0.986967 27.1673 1.07105 27.0038C1.21519 26.804 1.65362 27.2097 1.83379 27.4276Z" fill="#FAAE29"/>
<path fill-rule="evenodd" clip-rule="evenodd" d="M1.58154 26.6344C1.59356 26.4346 1.74971 25.6959 1.87583 25.7019C2.02598 25.7807 2.044 26.707 1.72569 27.2156C1.4374 27.1187 0.770754 26.2166 0.866847 26.0652C1.04102 25.8957 1.42539 26.3861 1.58755 26.6344H1.58154Z" fill="#FAAE29"/>
<path fill-rule="evenodd" clip-rule="evenodd" d="M1.65362 25.7323C1.6356 26.5194 1.49146 26.5315 1.23321 25.9503C1.11309 25.7263 1.10108 24.8181 1.20318 24.7817C1.35333 24.7817 1.64761 25.4296 1.65362 25.7323Z" fill="#FAAE29"/>
<path fill-rule="evenodd" clip-rule="evenodd" d="M7.28711 29.6076C7.36518 29.4381 7.56338 28.7115 7.46128 28.6207C7.29912 28.5601 6.88472 29.2988 6.92075 29.9648C7.19702 30.1162 8.12793 29.9043 8.11592 29.7105C8.04985 29.4381 7.52734 29.5289 7.28711 29.6015V29.6076Z" fill="#FAAE29"/>
<path fill-rule="evenodd" clip-rule="evenodd" d="M7.85166 28.9657C7.90571 28.784 7.98379 28.0211 7.86968 27.9606C7.70752 27.9485 7.40723 28.784 7.55137 29.4258C7.83965 29.4985 8.72251 29.0323 8.67446 28.8446C8.57236 28.5963 8.07388 28.8325 7.85166 28.9657Z" fill="#FAAE29"/>
<path fill-rule="evenodd" clip-rule="evenodd" d="M8.3081 28.2634C8.34414 28.0696 8.35615 27.2946 8.23603 27.2583C8.07388 27.2704 7.85166 28.1483 8.04985 28.7599C8.35015 28.7841 9.17895 28.1847 9.1189 28.003C8.98677 27.7729 8.51831 28.0878 8.3081 28.2634Z" fill="#FAAE29"/>
<path fill-rule="evenodd" clip-rule="evenodd" d="M8.66846 27.5065C8.68047 27.3128 8.6084 26.5438 8.48227 26.5317C8.32012 26.5741 8.206 27.4944 8.47026 28.0575C8.77056 28.0212 9.51528 27.2522 9.43721 27.0888C9.28706 26.8829 8.85464 27.2946 8.66846 27.5065Z" fill="#FAAE29"/>
<path fill-rule="evenodd" clip-rule="evenodd" d="M8.9207 26.7134C8.9147 26.5196 8.75254 25.7749 8.63242 25.787C8.47627 25.8597 8.45825 26.7921 8.78257 27.3007C9.07085 27.2038 9.73149 26.3017 9.6354 26.1503C9.46123 25.9808 9.07685 26.4712 8.9147 26.7134H8.9207Z" fill="#FAAE29"/>
<path fill-rule="evenodd" clip-rule="evenodd" d="M8.84863 25.8173C8.87266 26.6044 9.01079 26.6104 9.26904 26.0292C9.38916 25.8112 9.40117 24.897 9.29907 24.8667C9.14893 24.8667 8.85464 25.5145 8.84863 25.8173Z" fill="#FAAE29"/>
<path fill-rule="evenodd" clip-rule="evenodd" d="M8.64389 19.9149H8.15231V20.2474H7.67861V20.5798H5.7838L5.46204 20.9218L5.62292 21.0928H6.41838L6.57032 20.9218H5.7838L5.93574 20.7508H7.04402L6.57032 21.2542H5.47097L5.15815 21.0928L4.83639 21.2542H3.72811L3.2544 20.7508H4.36269L4.52357 20.9218H3.72811L3.88899 21.0928H4.68445L4.83639 20.9218L4.52357 20.5798H2.7807V20.2474H2.307V19.9149H1.8333V18.3952H2.307V18.0627H2.7807V17.7208H4.52357L4.83639 17.3883L4.68445 17.2174H3.88899L3.72811 17.3883H4.52357L4.36269 17.5498H3.2544L3.72811 17.0464H4.84533L5.16709 17.2174L5.47991 17.0464H6.5882L7.0619 17.5498H5.95361L5.80167 17.3883H6.5882L6.42732 17.2174H5.64079L5.47097 17.3883L5.79273 17.7208H7.68754V18.0627H8.16125V18.3952H8.64389V19.9149Z" fill="#CA3745" stroke="black" stroke-width="0.0179057"/>
<path fill-rule="evenodd" clip-rule="evenodd" d="M1.99202 18.5722V19.75H2.46572V20.0825H2.93941V20.4149H4.52585L5.16042 20.9231L5.79053 20.4197H7.53337V20.0872L8.00707 20.0825V19.75H8.4897V18.5675H8.01153V18.235H7.53784V17.8931H5.79499L5.16489 17.3896L4.53031 17.8931H2.94388V18.235H2.47018V18.5675H1.99649L1.99202 18.5722Z" fill="#00843D" stroke="#FAAE29" stroke-width="0.125339"/>
<path fill-rule="evenodd" clip-rule="evenodd" d="M4.20679 18.0579L3.258 18.9005V18.0579H4.20679ZM6.10435 18.0579L7.05914 18.9005V18.0579H6.10435ZM4.20679 20.2486L3.258 19.406V20.2486H4.20679ZM6.10435 20.2486L7.05914 19.406V20.2486H6.10435ZM6.42262 18.5634L6.10435 18.9005H6.74088L6.42262 18.5634ZM3.88852 18.5634L3.57627 18.9005H4.20679L3.88852 18.5634ZM3.88852 19.7431L3.57627 19.406H4.20679L3.88852 19.7431ZM6.42262 19.7431L6.10435 19.406H6.74088L6.42262 19.7431Z" fill="#CA3745"/>
<path fill-rule="evenodd" clip-rule="evenodd" d="M5.15557 20.5856L4.8373 20.2485H5.47383L5.15557 20.5856ZM5.15557 18.9004L4.8373 18.5633H5.47383L5.15557 18.9004ZM5.15557 17.7207L4.8373 18.0654H5.47383L5.15557 17.7207ZM5.15557 19.4059L4.8373 19.743H5.47383L5.15557 19.4059Z" fill="#FAAE29"/>
<path fill-rule="evenodd" clip-rule="evenodd" d="M6.10782 18.9045H6.74686V19.0708H6.11229L6.10782 18.9045Z" fill="#FAAE29" stroke="black" stroke-width="0.00895277"/>
<path fill-rule="evenodd" clip-rule="evenodd" d="M3.73486 19.0708H4.04768V19.2418H3.73486V19.0708ZM6.26869 19.0708H6.58151V19.2418H6.26869V19.0708Z" fill="#CC0000" stroke="black" stroke-width="0.00895277"/>
<path fill-rule="evenodd" clip-rule="evenodd" d="M4.84314 18.064H5.47324V18.2302H4.84314V18.064ZM4.84314 18.3964H5.47324V18.5674H4.84314V18.3964Z" fill="#990000" stroke="black" stroke-width="0.00895277"/>
<path fill-rule="evenodd" clip-rule="evenodd" d="M4.68226 18.2302H5.63412V18.4012H4.68226V18.2302ZM4.84314 19.75H5.47324V19.9115H4.84314V19.75ZM4.84314 20.0824H5.47324V20.2487H4.84314V20.0824ZM4.68226 19.9162H5.63412V20.0824H4.68226V19.9162Z" fill="#990000" stroke="black" stroke-width="0.00895277"/>
<path fill-rule="evenodd" clip-rule="evenodd" d="M6.10782 19.2417H6.74686V19.408H6.11228L6.10782 19.2417ZM3.57399 18.9045H4.20856V19.0708H3.57399V18.9045ZM3.57399 19.237H4.20856V19.408H3.57399V19.237ZM3.41758 19.0708H3.7304V19.2417H3.41758V19.0708ZM4.05215 19.0708H4.36497V19.2417H4.05215V19.0708ZM5.95141 19.0708H6.26422V19.2417H5.95141V19.0708ZM6.58598 19.0708H6.8988V19.2417H6.58598V19.0708Z" fill="#FAAE29" stroke="black" stroke-width="0.00895277"/>
<path d="M4.76954 20.034C4.79175 20.034 4.80976 20.0148 4.80976 19.9912C4.80976 19.9676 4.79175 19.9485 4.76954 19.9485C4.74732 19.9485 4.72932 19.9676 4.72932 19.9912C4.72932 20.0148 4.74732 20.034 4.76954 20.034Z" fill="white"/>
<path d="M5.15986 20.034C5.18207 20.034 5.20008 20.0148 5.20008 19.9912C5.20008 19.9676 5.18207 19.9485 5.15986 19.9485C5.13764 19.9485 5.11964 19.9676 5.11964 19.9912C5.11964 20.0148 5.13764 20.034 5.15986 20.034Z" fill="white"/>
<path d="M5.55618 20.034C5.57839 20.034 5.5964 20.0148 5.5964 19.9912C5.5964 19.9676 5.57839 19.9485 5.55618 19.9485C5.53397 19.9485 5.51596 19.9676 5.51596 19.9912C5.51596 20.0148 5.53397 20.034 5.55618 20.034Z" fill="white"/>
<path d="M4.92567 19.8731C4.94788 19.8731 4.96588 19.8539 4.96588 19.8303C4.96588 19.8067 4.94788 19.7876 4.92567 19.7876C4.90345 19.7876 4.88544 19.8067 4.88544 19.8303C4.88544 19.8539 4.90345 19.8731 4.92567 19.8731Z" fill="white"/>
<path d="M5.39405 19.8731C5.41626 19.8731 5.43427 19.8539 5.43427 19.8303C5.43427 19.8067 5.41626 19.7876 5.39405 19.7876C5.37184 19.7876 5.35383 19.8067 5.35383 19.8303C5.35383 19.8539 5.37184 19.8731 5.39405 19.8731Z" fill="white"/>
<path d="M4.91966 20.2024C4.94187 20.2024 4.95988 20.1833 4.95988 20.1597C4.95988 20.1361 4.94187 20.1169 4.91966 20.1169C4.89745 20.1169 4.87944 20.1361 4.87944 20.1597C4.87944 20.1833 4.89745 20.2024 4.91966 20.2024Z" fill="white"/>
<path d="M5.39405 20.2102C5.41626 20.2102 5.43427 20.1911 5.43427 20.1675C5.43427 20.1439 5.41626 20.1248 5.39405 20.1248C5.37184 20.1248 5.35383 20.1439 5.35383 20.1675C5.35383 20.1911 5.37184 20.2102 5.39405 20.2102Z" fill="white"/>
<path d="M6.02457 19.1914C6.04679 19.1914 6.06479 19.1723 6.06479 19.1487C6.06479 19.1251 6.04679 19.106 6.02457 19.106C6.00236 19.106 5.98435 19.1251 5.98435 19.1487C5.98435 19.1723 6.00236 19.1914 6.02457 19.1914Z" fill="white"/>
<path d="M6.4209 19.1914C6.44311 19.1914 6.46112 19.1723 6.46112 19.1487C6.46112 19.1251 6.44311 19.106 6.4209 19.106C6.39868 19.106 6.38068 19.1251 6.38068 19.1487C6.38068 19.1723 6.39868 19.1914 6.4209 19.1914Z" fill="white"/>
<path d="M6.81723 19.1914C6.83944 19.1914 6.85745 19.1723 6.85745 19.1487C6.85745 19.1251 6.83944 19.106 6.81723 19.106C6.79502 19.106 6.77701 19.1251 6.77701 19.1487C6.77701 19.1723 6.79502 19.1914 6.81723 19.1914Z" fill="white"/>
<path d="M6.1867 19.0227C6.20892 19.0227 6.22692 19.0036 6.22692 18.98C6.22692 18.9564 6.20892 18.9373 6.1867 18.9373C6.16449 18.9373 6.14648 18.9564 6.14648 18.98C6.14648 19.0036 6.16449 19.0227 6.1867 19.0227Z" fill="white"/>
<path d="M6.65509 19.0227C6.6773 19.0227 6.69531 19.0036 6.69531 18.98C6.69531 18.9564 6.6773 18.9373 6.65509 18.9373C6.63288 18.9373 6.61487 18.9564 6.61487 18.98C6.61487 19.0036 6.63288 19.0227 6.65509 19.0227Z" fill="white"/>
<path d="M6.1807 19.3523C6.20291 19.3523 6.22092 19.3332 6.22092 19.3096C6.22092 19.286 6.20291 19.2668 6.1807 19.2668C6.15849 19.2668 6.14048 19.286 6.14048 19.3096C6.14048 19.3332 6.15849 19.3523 6.1807 19.3523Z" fill="white"/>
<path d="M6.65509 19.3599C6.6773 19.3599 6.69531 19.3408 6.69531 19.3172C6.69531 19.2936 6.6773 19.2744 6.65509 19.2744C6.63288 19.2744 6.61487 19.2936 6.61487 19.3172C6.61487 19.3408 6.63288 19.3599 6.65509 19.3599Z" fill="white"/>
<path d="M4.76353 18.3565C4.78575 18.3565 4.80375 18.3373 4.80375 18.3137C4.80375 18.2901 4.78575 18.271 4.76353 18.271C4.74132 18.271 4.72331 18.2901 4.72331 18.3137C4.72331 18.3373 4.74132 18.3565 4.76353 18.3565Z" fill="white"/>
<path d="M5.15986 18.3565C5.18207 18.3565 5.20008 18.3373 5.20008 18.3137C5.20008 18.2901 5.18207 18.271 5.15986 18.271C5.13764 18.271 5.11964 18.2901 5.11964 18.3137C5.11964 18.3373 5.13764 18.3565 5.15986 18.3565Z" fill="white"/>
<path d="M5.55618 18.3487C5.57839 18.3487 5.5964 18.3295 5.5964 18.3059C5.5964 18.2823 5.57839 18.2632 5.55618 18.2632C5.53397 18.2632 5.51596 18.2823 5.51596 18.3059C5.51596 18.3295 5.53397 18.3487 5.55618 18.3487Z" fill="white"/>
<path d="M4.91966 18.1878C4.94187 18.1878 4.95988 18.1686 4.95988 18.145C4.95988 18.1214 4.94187 18.1023 4.91966 18.1023C4.89745 18.1023 4.87944 18.1214 4.87944 18.145C4.87944 18.1686 4.89745 18.1878 4.91966 18.1878Z" fill="white"/>
<path d="M5.39405 18.1878C5.41626 18.1878 5.43427 18.1686 5.43427 18.145C5.43427 18.1214 5.41626 18.1023 5.39405 18.1023C5.37184 18.1023 5.35383 18.1214 5.35383 18.145C5.35383 18.1686 5.37184 18.1878 5.39405 18.1878Z" fill="white"/>
<path d="M4.91966 18.5174C4.94187 18.5174 4.95988 18.4982 4.95988 18.4746C4.95988 18.451 4.94187 18.4319 4.91966 18.4319C4.89745 18.4319 4.87944 18.451 4.87944 18.4746C4.87944 18.4982 4.89745 18.5174 4.91966 18.5174Z" fill="white"/>
<path d="M5.39405 18.5249C5.41626 18.5249 5.43427 18.5058 5.43427 18.4822C5.43427 18.4586 5.41626 18.4395 5.39405 18.4395C5.37184 18.4395 5.35383 18.4586 5.35383 18.4822C5.35383 18.5058 5.37184 18.5249 5.39405 18.5249Z" fill="white"/>
<path d="M3.49648 19.2066C3.51869 19.2066 3.5367 19.1874 3.5367 19.1638C3.5367 19.1402 3.51869 19.1211 3.49648 19.1211C3.47427 19.1211 3.45626 19.1402 3.45626 19.1638C3.45626 19.1874 3.47427 19.2066 3.49648 19.2066Z" fill="white"/>
<path d="M3.89281 19.2066C3.91503 19.2066 3.93303 19.1874 3.93303 19.1638C3.93303 19.1402 3.91503 19.1211 3.89281 19.1211C3.8706 19.1211 3.85259 19.1402 3.85259 19.1638C3.85259 19.1874 3.8706 19.2066 3.89281 19.2066Z" fill="white"/>
<path d="M4.28914 19.199C4.31135 19.199 4.32936 19.1799 4.32936 19.1563C4.32936 19.1327 4.31135 19.1135 4.28914 19.1135C4.26692 19.1135 4.24892 19.1327 4.24892 19.1563C4.24892 19.1799 4.26692 19.199 4.28914 19.199Z" fill="white"/>
<path d="M3.65862 19.0381C3.68083 19.0381 3.69884 19.019 3.69884 18.9954C3.69884 18.9718 3.68083 18.9526 3.65862 18.9526C3.63641 18.9526 3.6184 18.9718 3.6184 18.9954C3.6184 19.019 3.63641 19.0381 3.65862 19.0381Z" fill="white"/>
<path d="M4.127 19.0381C4.14922 19.0381 4.16722 19.019 4.16722 18.9954C4.16722 18.9718 4.14922 18.9526 4.127 18.9526C4.10479 18.9526 4.08678 18.9718 4.08678 18.9954C4.08678 19.019 4.10479 19.0381 4.127 19.0381Z" fill="white"/>
<path d="M3.65262 19.3675C3.67483 19.3675 3.69284 19.3483 3.69284 19.3247C3.69284 19.3011 3.67483 19.282 3.65262 19.282C3.6304 19.282 3.6124 19.3011 3.6124 19.3247C3.6124 19.3483 3.6304 19.3675 3.65262 19.3675Z" fill="white"/>
<path d="M4.127 19.3753C4.14922 19.3753 4.16722 19.3561 4.16722 19.3325C4.16722 19.3089 4.14922 19.2898 4.127 19.2898C4.10479 19.2898 4.08678 19.3089 4.08678 19.3325C4.08678 19.3561 4.10479 19.3753 4.127 19.3753Z" fill="white"/>
<path fill-rule="evenodd" clip-rule="evenodd" d="M5.77964 15.4878L6.0499 15.3546L6.32617 15.4878H5.77964ZM4.96284 15.4878L5.2331 15.3546L5.50937 15.4878H4.96284ZM4.14604 15.4878L4.41631 15.3546L4.69258 15.4878H4.14604ZM5.77964 12.521L6.0499 12.6542L6.32617 12.5271H5.77964V12.521ZM4.96284 12.521L5.2331 12.6542L5.50937 12.5271H4.96284V12.521ZM4.14604 12.521L4.41631 12.6542L4.69258 12.5271H4.14604V12.521Z" fill="white"/>
<path fill-rule="evenodd" clip-rule="evenodd" d="M5.55142 15.8693L5.23311 16.1297L4.91479 15.8693L4.59648 16.1297L4.27817 15.8693V16.0025L4.49438 16.1236L4.38628 16.2568V16.384H4.49438L4.59648 16.2629L4.70459 16.384H4.8127V16.2629L4.70459 16.1297L4.91479 16.0025L5.13101 16.1236L5.0229 16.2568V16.384H5.13101L5.23311 16.2629L5.34121 16.384H5.44331V16.2629L5.34121 16.1297L5.55142 16.0025L5.76162 16.1236L5.65952 16.2568V16.384H5.76162L5.86973 16.2629L5.97783 16.384H6.07993V16.2629L5.97783 16.1297L6.18804 16.0025V15.8633L5.86973 16.1236L5.55142 15.8633V15.8693ZM5.55142 12.1396L5.23311 11.8793L4.91479 12.1396L4.59648 11.8793L4.27817 12.1396V12.0125L4.49438 11.8793L4.38628 11.7582V11.625H4.49438L4.59648 11.7521L4.70459 11.625H4.8127V11.7521L4.70459 11.8854L4.91479 12.0064L5.13101 11.8854L5.0229 11.7521V11.625H5.13101L5.23311 11.7521L5.34121 11.625H5.44331V11.7521L5.34121 11.8854L5.55142 12.0064L5.76162 11.8854L5.65952 11.7521V11.625H5.76162L5.86973 11.7521L5.97783 11.625H6.07993V11.7521L5.97783 11.8854L6.18804 12.0064V12.1396L5.86973 11.8793L5.55142 12.1396ZM7.95376 14.283L8.3021 14.0045L7.95977 13.726L8.3021 13.4475L7.95977 13.1689H8.12793L8.3021 13.3506L8.47026 13.2598H8.63843V13.3566L8.47026 13.4475L8.63843 13.5383V13.6352H8.47026L8.3021 13.5383L8.12793 13.726L8.3021 13.9076L8.47026 13.8229H8.63843V13.9137L8.47026 14.0045L8.63843 14.0953V14.1922H8.47026L8.3021 14.0953L8.12793 14.283L8.3021 14.4646L8.47026 14.3738H8.63843V14.4707L8.47026 14.5615L8.63843 14.6584V14.7492H8.47026L8.3021 14.6584L8.12793 14.84H7.95977L8.3021 14.5615L7.95977 14.283H7.95376ZM2.51245 14.283L2.17012 14.0045L2.51245 13.726L2.17012 13.4475L2.51245 13.1689H2.33828L2.17012 13.3506L2.00195 13.2598H1.82178V13.3566L2.00195 13.4414L1.82778 13.5322V13.6291H2.00195L2.17012 13.5322L2.33828 13.7199L2.17012 13.9016L2.00195 13.8168H1.82178V13.9076L1.99595 13.9984L1.82178 14.0893V14.1861H2.00195L2.17012 14.0893L2.33828 14.277L2.17012 14.4646L2.00195 14.3738H1.82178V14.4646L1.99595 14.5555L1.82178 14.6523V14.7432H2.00195L2.17012 14.6523L2.33828 14.834H2.51245L2.17012 14.5555L2.51245 14.277V14.283Z" fill="#00843D"/>
<path fill-rule="evenodd" clip-rule="evenodd" d="M8.08933 15.2318H8.22768V15.3553H8.08933V15.2318ZM7.95097 15.3553H8.08933V15.486H7.95866L7.95097 15.3553ZM7.27458 16.0017H7.41293V16.1324H7.27458V16.0017ZM7.41293 15.871H7.5436V16.0017H7.41293V15.871ZM2.91645 15.871H3.0548V16.0017H2.90876L2.91645 15.871ZM2.23237 15.2318H2.37072V15.3553H2.23237V15.2318ZM2.37072 15.3553H2.50908V15.486H2.37072V15.3553ZM2.37072 12.5229H2.50908V12.6536H2.37072V12.5229ZM2.23237 12.6536H2.37072V12.7844H2.23237V12.6536ZM3.0548 11.8838H3.18547V12.0145H3.06249L3.0548 11.8838ZM2.91645 12.0145H3.0548V12.1452H2.90876L2.91645 12.0145ZM7.27458 11.8838H7.41293V12.0145H7.27458V11.8838ZM7.41293 12.0145H7.5436V12.1452H7.41293V12.0145ZM7.95097 12.5229H8.08933V12.6536H7.95866L7.95097 12.5229ZM8.08933 12.6609H8.22768V12.7844H8.08933V12.6609ZM3.06249 16.0017H3.19316V16.1324H3.06249V16.0017Z" fill="#00843D"/>
<path d="M8.08933 15.3553H8.22768V15.2318H8.08933V15.3553ZM8.08933 15.3553H7.95098L7.95866 15.486H8.08933V15.3553ZM7.41293 16.0017H7.27458V16.1324H7.41293V16.0017ZM7.41293 16.0017H7.5436V15.871H7.41293V16.0017ZM2.37072 15.3553V15.2318H2.23237V15.3553H2.37072ZM2.37072 15.3553H2.50908V15.486H2.37072V15.3553ZM2.37072 12.6536H2.50908V12.5229H2.37072V12.6536ZM2.37072 12.6536H2.23237V12.7844H2.37072V12.6536ZM7.41293 12.0145V11.8838H7.27458V12.0145H7.41293ZM7.41293 12.0145H7.5436V12.1452H7.41293V12.0145ZM2.91645 15.871H3.0548V16.0017H2.90876L2.91645 15.871ZM3.0548 11.8838H3.18547V12.0145H3.06249L3.0548 11.8838ZM2.91645 12.0145H3.0548V12.1452H2.90876L2.91645 12.0145ZM7.95098 12.5229H8.08933V12.6536H7.95866L7.95098 12.5229ZM8.08933 12.6609H8.22768V12.7844H8.08933V12.6609ZM3.06249 16.0017H3.19316V16.1324H3.06249V16.0017Z" stroke="black" stroke-width="0.0435586"/>
<path fill-rule="evenodd" clip-rule="evenodd" d="M4.8187 14.0045H4.41631V13.7502H4.68657V13.5141H4.95083V13.2961H5.22109V13.5686C4.99887 13.5686 4.8187 13.7502 4.8187 14.0045Z" fill="white"/>
<path fill-rule="evenodd" clip-rule="evenodd" d="M5.62348 14.0045H6.02588V13.7502H5.75561V13.5141H5.48535V13.2961H5.22109V13.5686C5.44331 13.5686 5.62348 13.7502 5.62348 14.0045Z" fill="#FAAE29"/>
<path fill-rule="evenodd" clip-rule="evenodd" d="M5.62348 14.0044H6.02588V14.2587H5.75561V14.4948H5.48535V14.7128H5.22109V14.4403C5.44331 14.4403 5.62348 14.2587 5.62348 14.0044Z" fill="white"/>
<path fill-rule="evenodd" clip-rule="evenodd" d="M4.8187 14.0044H4.41631V14.2587H4.68657V14.4948H4.95083V14.7128H5.22109V14.4403C4.99887 14.4403 4.8187 14.2587 4.8187 14.0044Z" fill="#FAAE29"/>
<path fill-rule="evenodd" clip-rule="evenodd" d="M5.62348 14.0045H5.22109V13.5686C5.44331 13.5686 5.62348 13.7684 5.62348 14.0045Z" fill="#00843D"/>
<path fill-rule="evenodd" clip-rule="evenodd" d="M5.62348 14.0044H5.22109V14.4403C5.44331 14.4403 5.62348 14.2466 5.62348 14.0044Z" fill="#CA3745"/>
<path fill-rule="evenodd" clip-rule="evenodd" d="M4.8187 14.0044H5.2211V14.4403C4.99888 14.4403 4.8187 14.2466 4.8187 14.0044Z" fill="#00843D"/>
<path fill-rule="evenodd" clip-rule="evenodd" d="M4.8187 14.0045H5.2211V13.5686C4.99888 13.5686 4.8187 13.7684 4.8187 14.0045Z" fill="#CA3745"/>
<path fill-rule="evenodd" clip-rule="evenodd" d="M5.64151 15.6151L5.23311 15.3548L4.82471 15.6151L4.41631 15.3548L4.00791 15.6151V15.488L4.27818 15.3548L4.14605 15.2276V15.1005H4.27818L4.41631 15.2276L4.55444 15.1005H4.69258V15.2276L4.55444 15.3548L4.82471 15.488L5.10098 15.3548L4.96284 15.2276V15.1005H5.10098L5.23311 15.2276L5.37124 15.1005H5.50938V15.2276L5.37124 15.3548L5.64151 15.488L5.91777 15.3548L5.77964 15.2276V15.1005H5.91777L6.0499 15.2276L6.18804 15.1005H6.32617V15.2276L6.18804 15.3548L6.4583 15.488V15.6091L6.0499 15.3548L5.64151 15.6151ZM5.64151 12.4001L5.23311 12.6544L4.82471 12.4001L4.41631 12.6544L4.00791 12.4001V12.5212L4.27818 12.6544L4.14605 12.7815V12.9147H4.27818L4.41631 12.7815L4.55444 12.9147H4.69258V12.7755L4.55444 12.6544L4.82471 12.5212L5.10098 12.6483L4.96284 12.7755V12.9087H5.10098L5.23311 12.7755L5.37124 12.9087H5.50938V12.7755L5.37124 12.6544L5.64151 12.5212L5.91777 12.6483L5.77964 12.7755V12.9087H5.91777L6.0499 12.7755L6.18804 12.9087H6.32617V12.7755L6.18804 12.6544L6.4583 12.5212V12.394L6.0499 12.6483L5.64151 12.394V12.4001ZM7.14297 14.3255L6.93877 14.0046L7.14297 13.6837L6.93877 13.3628L7.14297 13.0419H7.04087L6.93877 13.2538L6.83667 13.1448H6.73457V13.2538L6.83667 13.3628L6.73457 13.4718V13.5747H6.83667L6.93877 13.4718L7.04087 13.6837L6.93877 13.8956L6.83667 13.7927H6.73457V13.8956L6.83667 14.0046L6.73457 14.1136V14.2226H6.83667L6.93877 14.1136L7.04087 14.3255L6.93877 14.5435L6.83667 14.4345H6.73457V14.5435L6.83667 14.6464L6.73457 14.7554V14.8644H6.83667L6.93877 14.7554L7.04087 14.9733H7.14297L6.93877 14.6464L7.14297 14.3255Z" fill="#00843D"/>
<path fill-rule="evenodd" clip-rule="evenodd" d="M4.01033 12.5304L3.47228 13.0387V14.9706L4.01033 15.4862H6.46994L7.00798 14.9779V13.046L6.46226 12.5304H4.01033ZM3.87197 12.1382L2.5115 13.4309V14.5929L3.87966 15.8712H6.60061L7.96108 14.5857V13.4237L6.60061 12.1382H3.87966H3.87197Z" fill="#00843D" stroke="black" stroke-width="0.0580781"/>
<path fill-rule="evenodd" clip-rule="evenodd" d="M4.57615 15.6121L4.79137 15.8735L5.01273 15.6121H4.57H4.57615Z" fill="#FAAE29" stroke="black" stroke-width="0.0318106"/>
<path fill-rule="evenodd" clip-rule="evenodd" d="M4.57615 12.397L4.79137 12.1355L5.01273 12.397H4.57H4.57615Z" fill="#FAAE29" stroke="black" stroke-width="0.0318106"/>
<path fill-rule="evenodd" clip-rule="evenodd" d="M5.453 12.397L5.66822 12.1355L5.88958 12.397H5.44685H5.453Z" fill="#FAAE29" stroke="black" stroke-width="0.0318106"/>
<path fill-rule="evenodd" clip-rule="evenodd" d="M5.453 15.6121L5.66822 15.8735L5.88958 15.6121H5.44685H5.453Z" fill="#FAAE29" stroke="black" stroke-width="0.0318106"/>
<path fill-rule="evenodd" clip-rule="evenodd" d="M4.14373 12.397L4.35895 12.1355L4.58031 12.397H4.13758H4.14373Z" fill="#CA3745" stroke="black" stroke-width="0.0318106"/>
<path fill-rule="evenodd" clip-rule="evenodd" d="M5.01458 12.397L5.2298 12.1355L5.45116 12.397H5.00843H5.01458Z" fill="#CA3745" stroke="black" stroke-width="0.0318106"/>
<path fill-rule="evenodd" clip-rule="evenodd" d="M5.88543 12.397L6.10065 12.1355L6.32201 12.397H5.87928H5.88543Z" fill="#CA3745" stroke="black" stroke-width="0.0318106"/>
<path fill-rule="evenodd" clip-rule="evenodd" d="M3.60563 15.2276L4.00914 15.6089H3.60563V15.2276Z" fill="#CA3745" stroke="black" stroke-width="0.0653334"/>
<path fill-rule="evenodd" clip-rule="evenodd" d="M3.32324 14.3253L3.53345 14.0044L3.32324 13.6835L3.52744 13.3626L3.32324 13.0417H3.42534L3.52744 13.2537L3.62954 13.1447H3.73164V13.2537L3.62954 13.3626L3.73164 13.4716V13.5746H3.62954L3.52744 13.4716L3.42534 13.6835L3.52744 13.8955L3.62954 13.7925H3.73164V13.8955L3.62954 14.0044L3.73164 14.1134V14.2224H3.62954L3.52744 14.1134L3.42534 14.3253L3.52744 14.5433L3.62954 14.4343H3.73164V14.5433L3.62954 14.6462L3.73164 14.7552V14.8642H3.62954L3.52744 14.7552L3.42534 14.9732H3.32324L3.52744 14.6462L3.32324 14.3253Z" fill="#00843D"/>
<path fill-rule="evenodd" clip-rule="evenodd" d="M7.27385 13.6572H7.81958L7.95793 13.7748L7.81958 13.8925H7.28154V13.6506L7.27385 13.6572Z" fill="#CA3745" stroke="black" stroke-width="0.0413239"/>
<path fill-rule="evenodd" clip-rule="evenodd" d="M3.60214 12.7844L3.32544 13.0459V14.9705L3.60214 15.2319H3.19477V12.7844H3.60214Z" fill="#CA3745" stroke="black" stroke-width="0.0580781"/>
<path fill-rule="evenodd" clip-rule="evenodd" d="M4.14373 15.6121L4.35895 15.8735L4.58031 15.6121H4.13758H4.14373Z" fill="#CA3745" stroke="black" stroke-width="0.0318106"/>
<path fill-rule="evenodd" clip-rule="evenodd" d="M5.01458 15.6121L5.2298 15.8735L5.45116 15.6121H5.00843H5.01458Z" fill="#CA3745" stroke="black" stroke-width="0.0318106"/>
<path fill-rule="evenodd" clip-rule="evenodd" d="M5.88543 15.6121L6.10065 15.8735L6.32201 15.6121H5.87928H5.88543Z" fill="#CA3745" stroke="black" stroke-width="0.0318106"/>
<path fill-rule="evenodd" clip-rule="evenodd" d="M6.86406 12.7844L7.14077 13.0459V14.9705L6.86406 15.2319H7.27144V12.7844H6.86406Z" fill="#CA3745" stroke="black" stroke-width="0.0580781"/>
<path fill-rule="evenodd" clip-rule="evenodd" d="M6.86659 15.2276L6.46308 15.6089H6.86659V15.2276Z" fill="#CA3745" stroke="black" stroke-width="0.0653334"/>
<path fill-rule="evenodd" clip-rule="evenodd" d="M6.86659 12.7814L6.46308 12.4001H6.86659V12.7814Z" fill="#CA3745" stroke="black" stroke-width="0.0653334"/>
<path fill-rule="evenodd" clip-rule="evenodd" d="M3.60563 12.7814L4.00914 12.4001H3.60563V12.7814Z" fill="#CA3745" stroke="black" stroke-width="0.0653334"/>
<path fill-rule="evenodd" clip-rule="evenodd" d="M4.01033 12.5301L3.47228 13.0385V14.9704L4.01033 15.486H6.46994L7.00798 14.9776V13.0458L6.46226 12.5301H4.01033ZM4.01033 12.3994L3.33393 13.0385V14.9704L4.01033 15.6167H6.46994L7.14634 14.9704V13.0385L6.46226 12.3994H4.01033Z" fill="#00843D" stroke="black" stroke-width="0.0580781"/>
<path fill-rule="evenodd" clip-rule="evenodd" d="M7.27385 13.8879H7.81958L7.95793 14.0055L7.81958 14.1232H7.28154V13.8813L7.27385 13.8879Z" fill="#FAAE29" stroke="black" stroke-width="0.0413252"/>
<path fill-rule="evenodd" clip-rule="evenodd" d="M7.27385 14.1174H7.81958L7.95793 14.235L7.81958 14.3527H7.28154V14.1108L7.27385 14.1174Z" fill="#CA3745" stroke="black" stroke-width="0.0413239"/>
<path fill-rule="evenodd" clip-rule="evenodd" d="M7.27385 14.3481H7.81958L7.95793 14.4658L7.81958 14.5834H7.28154V14.3416L7.27385 14.3481Z" fill="#FAAE29" stroke="black" stroke-width="0.0413252"/>
<path fill-rule="evenodd" clip-rule="evenodd" d="M7.27385 13.4216H7.81958L7.95793 13.5392L7.81958 13.6569H7.28154V13.415L7.27385 13.4216Z" fill="#FAAE29" stroke="black" stroke-width="0.0413252"/>
<path fill-rule="evenodd" clip-rule="evenodd" d="M3.19236 13.6572H2.64663L2.50828 13.7748L2.64663 13.8925H3.18467V13.6506L3.19236 13.6572Z" fill="#CA3745" stroke="black" stroke-width="0.0413239"/>
<path fill-rule="evenodd" clip-rule="evenodd" d="M3.19236 13.8879H2.64663L2.50828 14.0055L2.64663 14.1232H3.18467V13.8813L3.19236 13.8879Z" fill="#FAAE29" stroke="black" stroke-width="0.0413252"/>
<path fill-rule="evenodd" clip-rule="evenodd" d="M3.19236 14.1174H2.64663L2.50828 14.235L2.64663 14.3527H3.18467V14.1108L3.19236 14.1174Z" fill="#CA3745" stroke="black" stroke-width="0.0413239"/>
<path fill-rule="evenodd" clip-rule="evenodd" d="M3.19236 14.3481H2.64663L2.50828 14.4658L2.64663 14.5834H3.18467V14.3416L3.19236 14.3481Z" fill="#FAAE29" stroke="black" stroke-width="0.0413252"/>
<path fill-rule="evenodd" clip-rule="evenodd" d="M3.19236 13.4216H2.64663L2.50828 13.5392L2.64663 13.6569H3.18467V13.415L3.19236 13.4216Z" fill="#FAAE29" stroke="black" stroke-width="0.0413252"/>
<path fill-rule="evenodd" clip-rule="evenodd" d="M2.37073 12.6611V15.3482H3.05481V15.9946H7.41294V15.3482H8.08933V12.6611H7.41294V12.022H3.05481V12.6611H2.37073ZM2.50908 12.7845V15.232H3.18548V15.8711H7.27459V15.232H7.95867V12.7845H7.27459V12.1527H3.18548V12.7918H2.50908V12.7845Z" fill="#970000" stroke="black" stroke-width="0.0435586"/>
<path fill-rule="evenodd" clip-rule="evenodd" d="M8.63564 2.6039L8.22827 2.10803V1.73787L7.82089 1.36772H7.00615L6.32207 0.997559H4.14684L3.46276 1.36772H2.64801L2.24064 1.73787V2.10803L1.83327 2.59691V3.59564L2.24064 4.08452V4.46166L2.64801 4.83182H3.46276L4.14684 5.20198H6.32207L7.00615 4.83182H7.82089L8.23595 4.46166V4.09151L8.64333 3.59564V2.59691L8.63564 2.6039Z" fill="#CA3745" stroke="black" stroke-width="0.0427152"/>
<path fill-rule="evenodd" clip-rule="evenodd" d="M1.96592 3.1001V3.46943L2.37432 3.96592V4.33525L2.78272 4.71064H3.59951L4.28418 5.07393H5.23311V3.10615H1.96592V3.1001Z" fill="#FAAE29"/>
<path fill-rule="evenodd" clip-rule="evenodd" d="M4.08599 3.96582L3.5875 4.28672H3.28721L3.38931 4.38965L3.19112 4.60156L3.29322 4.71055L3.59351 4.60156L3.6896 4.71055L3.73164 4.42598L4.28418 4.08691L4.08599 3.96582Z" fill="#CA3745"/>
<path fill-rule="evenodd" clip-rule="evenodd" d="M3.53945 3.71768L3.04096 4.03857H2.74668L2.84277 4.1415L2.65058 4.35342L2.74668 4.4624L3.04697 4.35342L3.14306 4.4624L3.19111 4.17783L3.73764 3.84482L3.53945 3.72373V3.71768ZM3.26919 3.22119L2.7707 3.54209H2.47041L2.57251 3.65107L2.37431 3.86299L2.47641 3.96592L2.77671 3.85693L2.8728 3.96592L2.91484 3.68135L3.46738 3.34834L3.26919 3.22725V3.22119Z" fill="#CA3745"/>
<path fill-rule="evenodd" clip-rule="evenodd" d="M8.5003 3.1V2.73066L8.0919 2.23418V1.86484L7.6835 1.48945H6.8667L6.18804 1.12012H5.23311V3.1H8.5003Z" fill="#FAAE29"/>
<path fill-rule="evenodd" clip-rule="evenodd" d="M5.23311 5.07993H4.98086L4.69258 4.83169H4.22412L3.97188 4.7106L4.098 4.5895L4.35025 4.7106H4.60249L4.85474 4.33521L5.23311 4.4563V4.7106H4.85474L5.23311 5.07388V5.07993Z" fill="#CA3745"/>
<path fill-rule="evenodd" clip-rule="evenodd" d="M1.96592 3.1V2.73066L2.37432 2.23418V1.86484L2.78272 1.48945H3.59951L4.28418 1.12012H5.23311V3.1H1.96592Z" fill="white"/>
<path fill-rule="evenodd" clip-rule="evenodd" d="M5.23311 1.12012H4.98086L4.69258 1.3623H4.22412L3.97188 1.48945L4.098 1.61055L4.35025 1.48945H4.60249L4.85474 1.86484L5.23311 1.74375V1.48945H4.85474L5.23311 1.12012Z" fill="#CA3745"/>
<path fill-rule="evenodd" clip-rule="evenodd" d="M5.23311 1.12012H5.48535L5.77964 1.3623H6.24209L6.49434 1.48945L6.37422 1.61055L6.11597 1.48945H5.86372L5.61148 1.86484L5.23311 1.74375V1.48945H5.61148L5.23311 1.12012Z" fill="#CA3745"/>
<path fill-rule="evenodd" clip-rule="evenodd" d="M8.5003 3.1001V3.46943L8.0919 3.96592V4.33525L7.6835 4.71064H6.8667L6.18804 5.07393H5.23311V3.10615H8.5003V3.1001Z" fill="white"/>
<path fill-rule="evenodd" clip-rule="evenodd" d="M5.23311 5.07993H5.48535L5.77964 4.83169H6.24209L6.49434 4.7106L6.37422 4.5895L6.11597 4.7106H5.86372L5.61148 4.33521L5.23311 4.4563V4.7106H5.61148L5.23311 5.07388V5.07993ZM3.53946 2.47642L3.04097 2.16157H2.74668L2.84278 2.05864L2.65059 1.84673L2.74668 1.73774L3.04698 1.84673L3.14307 1.73774L3.19112 2.02231L3.73765 2.35532L3.53946 2.47642ZM6.38623 2.23423L6.87871 1.91333H7.17901L7.07691 1.8104L7.2751 1.59849L7.17901 1.4895L6.87871 1.59849L6.78262 1.4895L6.73457 1.77407L6.18804 2.11313L6.38623 2.23423Z" fill="#CA3745"/>
<path fill-rule="evenodd" clip-rule="evenodd" d="M4.08598 2.23423L3.5875 1.91333H3.28721L3.38931 1.8104L3.19111 1.59849L3.29321 1.4895L3.5935 1.59849L3.6896 1.4895L3.73164 1.77407L4.28418 2.10708L4.08598 2.22817V2.23423ZM3.26318 2.97896L2.7647 2.65806H2.4644L2.5665 2.54907L2.36831 2.33716L2.48242 2.24028L2.78271 2.34927L2.87881 2.24028L2.92085 2.52485L3.47339 2.85786L3.27519 2.97896H3.26318Z" fill="#CA3745"/>
<path fill-rule="evenodd" clip-rule="evenodd" d="M2.21216 3.1001H2.33228L2.4584 3.22119L2.58452 3.1001H5.23311V4.83174H5.11299L5.23311 4.95283V5.08604L4.85474 4.7167V4.59561H4.98086V4.7167H5.10698V4.59561L4.08599 4.05068H3.22114V3.50576L2.84277 3.2333H2.59053L2.4644 3.35439L2.58452 3.47549H2.4644L2.21216 3.11221V3.1001Z" fill="white"/>
<path fill-rule="evenodd" clip-rule="evenodd" d="M2.21216 3.1H2.33228L2.4584 2.97891L2.58452 3.1H5.23311V1.36836H5.11299L5.23311 1.24727V1.12012L4.85474 1.48945V1.61055H4.98086V1.48945H5.10698V1.61055L4.08599 2.16152H3.22114V2.70039L2.84277 2.97891H2.59053L2.4644 2.85781L2.58452 2.73066H2.4644L2.21216 3.1Z" fill="#FAAE29"/>
<path fill-rule="evenodd" clip-rule="evenodd" d="M2.78271 3.1001H5.23311V4.5835L4.14604 3.96592H3.32925V3.46943L2.78872 3.1001H2.78271Z" fill="#00843D"/>
<path fill-rule="evenodd" clip-rule="evenodd" d="M6.92676 2.48252L7.42525 2.16162H7.72554L7.62344 2.05869L7.82163 1.84678L7.72554 1.73779L7.42525 1.84678L7.32915 1.73779L7.28111 2.02236L6.73457 2.35537L6.92676 2.47646V2.48252ZM7.20303 2.979L7.70152 2.65811H7.9958L7.8937 2.54912L8.0919 2.33721L7.9958 2.23428L7.69551 2.34326L7.59942 2.23428L7.55137 2.51885L7.00484 2.85186L7.20303 2.97295V2.979Z" fill="#CA3745"/>
<path fill-rule="evenodd" clip-rule="evenodd" d="M8.26006 3.1H8.13394L8.00782 2.97891L7.88169 3.1H5.23311V1.36836H5.35923L5.23311 1.24727V1.12012L5.61148 1.48945V1.61055H5.48535V1.48945H5.35923V1.61055L6.38023 2.16152H7.24507V2.70039L7.62945 2.97891H7.88169L8.00181 2.85781L7.88169 2.73066H8.00181L8.26006 3.1Z" fill="white"/>
<path fill-rule="evenodd" clip-rule="evenodd" d="M7.6835 3.1001H5.23311V1.6167L6.32617 2.23428H7.14297V2.73076L7.6895 3.1001H7.6835Z" fill="#00843D"/>
<path fill-rule="evenodd" clip-rule="evenodd" d="M6.38623 3.96582L6.87871 4.28672H7.179L7.0769 4.38965L7.27509 4.60156L7.179 4.71055L6.87871 4.60156L6.78261 4.71055L6.73457 4.42598L6.18803 4.08691L6.38623 3.96582Z" fill="#CA3745"/>
<path fill-rule="evenodd" clip-rule="evenodd" d="M6.92676 3.71768L7.42525 4.03857H7.72554L7.62344 4.1415L7.82163 4.35342L7.72554 4.4624L7.42525 4.35342L7.32915 4.4624L7.28111 4.17783L6.73457 3.84482L6.92676 3.72373V3.71768ZM7.20303 3.22119L7.70152 3.54209H7.9958L7.8937 3.64502L8.0919 3.85693L7.9958 3.96592L7.69551 3.85693L7.59942 3.96592L7.55137 3.68135L7.00484 3.34834L7.20303 3.22725V3.22119Z" fill="#CA3745"/>
<path fill-rule="evenodd" clip-rule="evenodd" d="M8.26006 3.1001H8.13394L8.00782 3.22119L7.88169 3.1001H5.23311V4.83174H5.35923L5.23311 4.95283V5.08604L5.61148 4.7167V4.59561H5.48535V4.7167H5.35923V4.59561L6.38023 4.05068H7.24507V3.50576L7.62945 3.2333H7.88169L8.00181 3.35439L7.88169 3.47549H8.00181L8.26006 3.11221V3.1001Z" fill="#FAAE29"/>
<path fill-rule="evenodd" clip-rule="evenodd" d="M7.6835 3.1001H5.23311V4.5835L6.32617 3.96592H7.14297V3.46943L7.6895 3.1001H7.6835ZM2.78271 3.1001H5.23311V1.6167L4.14604 2.23428H3.32925V2.73076L2.78872 3.1001H2.78271Z" fill="#CA3745"/>
<path fill-rule="evenodd" clip-rule="evenodd" d="M5.50337 3.09995L6.18804 2.73062H6.59644L6.4583 2.60952L6.73457 2.35522L6.59644 2.23413L6.18804 2.35522L6.0499 2.23413L5.98984 2.56714L5.23311 2.95464L5.50337 3.09995ZM4.96284 3.09995L4.28418 3.46929H3.87578L4.00791 3.59038L3.73765 3.84468L3.87578 3.96577L4.28418 3.84468L4.41631 3.96577L4.47637 3.63276L5.23311 3.24526L4.96284 3.09995Z" fill="#CA3745"/>
<path fill-rule="evenodd" clip-rule="evenodd" d="M4.96284 3.09995L4.28418 2.73062H3.87578L4.01392 2.60952L3.74365 2.35522L3.88179 2.23413L4.29019 2.35522L4.42231 2.23413L4.48237 2.56714L5.23911 2.95464L4.96885 3.09995H4.96284ZM5.50337 3.09995L6.18804 3.46929H6.59644L6.4583 3.59038L6.73457 3.84468L6.59644 3.96577L6.18804 3.84468L6.0499 3.96577L5.98984 3.63276L5.23311 3.24526L5.50337 3.09995Z" fill="#00843D"/>
<path fill-rule="evenodd" clip-rule="evenodd" d="M4.41631 3.1L5.2331 2.48242L6.0499 3.1L5.2331 3.71758L4.41631 3.1Z" fill="white"/>
<path fill-rule="evenodd" clip-rule="evenodd" d="M2.58452 3.34834L2.71065 3.46943L2.59053 3.59053H2.4584L2.08003 3.1001H2.20616L2.4584 3.46943H2.58452L2.46441 3.34834L2.58452 3.22725H2.84278V3.34834H2.59053H2.58452Z" fill="#CA3745"/>
<path fill-rule="evenodd" clip-rule="evenodd" d="M2.58452 2.85181L2.71065 2.73071L2.59053 2.60962H2.4584L2.08003 3.10005H2.20616L2.4584 2.73071H2.58452L2.46441 2.85181L2.58452 2.9729H2.84278V2.85181H2.59053H2.58452ZM7.88169 3.34829L7.76157 3.46938L7.88169 3.59048H8.00782L8.38618 3.10005H8.26607L8.00782 3.46938H7.8877L8.00782 3.34829L7.8877 3.2272H7.62945V3.34829H7.88169Z" fill="#CA3745"/>
<path fill-rule="evenodd" clip-rule="evenodd" d="M7.88769 2.85181L7.75556 2.73071L7.88169 2.60962H8.00781L8.38618 3.10005H8.26606L8.00781 2.73071H7.88769L8.00781 2.85181L7.88769 2.9729H7.62944V2.85181H7.88169H7.88769ZM5.10698 2.60962H5.35923V3.59653H5.10698V2.60962Z" fill="#CA3745"/>
<path fill-rule="evenodd" clip-rule="evenodd" d="M4.72861 2.85181H5.7376V3.34829H4.72861V2.85181Z" fill="#CA3745"/>
<path fill-rule="evenodd" clip-rule="evenodd" d="M4.08088 21.9053L1.81769 23.1631V25.2128L4.10223 26.4706H6.36542L8.6286 25.2128V23.1631L6.36542 21.9286H4.10223L4.08088 21.9053Z" fill="#00843D" stroke="black" stroke-width="0.0433373"/>
<path fill-rule="evenodd" clip-rule="evenodd" d="M2.67461 23.9948H2.80674V23.7345H3.083V23.9888H3.22114V23.3954H3.083V23.6497H2.81274V23.3954H2.67461V23.9888V23.9948ZM6.152 25.9687H6.29013V25.7144H6.5604V25.9687H6.69853V25.3692H6.5664V25.6235H6.29013V25.3692H6.158V25.9626L6.152 25.9687ZM3.95385 23.0019H4.09199V22.7536H4.36826V23.0079H4.50039V22.4146H4.36826V22.6688H4.09199V22.4146H3.95385V23.0079V23.0019ZM5.96582 23.0019H6.10395V22.7536H6.38022V23.0079H6.51836V22.4146H6.38022V22.6688H6.10395V22.4146H5.96582V23.0079V23.0019ZM7.25107 23.9948H7.3832V23.7345H7.65947V23.9888H7.7976V23.3954H7.65947V23.6497H7.3832V23.3954H7.25107V23.9888V23.9948ZM7.25107 24.9817H7.3832V24.7274H7.65947V24.9817H7.7976V24.3884H7.65947V24.6427H7.3832V24.3884H7.25107V24.9817Z" fill="#CC0000"/>
<path fill-rule="evenodd" clip-rule="evenodd" d="M5.23311 26.3622V24.1886H8.53032V25.1755L6.32617 26.3622H5.2271H5.23311ZM5.23311 22.021V24.1886H1.94189V23.2017L4.13403 22.021H5.23311Z" fill="#FAAE29"/>
<path fill-rule="evenodd" clip-rule="evenodd" d="M5.23311 22.021V24.1886H8.53032V23.2017L6.32617 22.021H5.2271H5.23311ZM5.23311 26.3622V24.1886H1.94189V25.1755L4.13403 26.3622H5.23311Z" fill="white"/>
<path fill-rule="evenodd" clip-rule="evenodd" d="M6.99354 23.3056H8.31385L6.99354 22.7151V23.3056ZM8.5308 23.2053V24.1913H6.44806V23.4059H6.00795L5.45627 23.1106V22.4199L5.791 22.1191H5.35089V23.1106H5.23932V22.0244H6.33648L8.5308 23.2053Z" fill="#FAAE29" stroke="black" stroke-width="0.0114192"/>
<path fill-rule="evenodd" clip-rule="evenodd" d="M4.13403 23.4983V24.8849H4.46436L5.23311 25.2845L6.00186 24.8849H6.33218V23.5044H6.00186L5.23311 23.1108L4.46436 23.5044H4.13403V23.4983Z" fill="#CA3745"/>
<path fill-rule="evenodd" clip-rule="evenodd" d="M3.47868 25.0772H2.15837L3.47868 25.6677V25.0772ZM1.94141 25.1775V24.1915H4.02416V24.977H4.46426L5.01594 25.2722V25.9629L4.68122 26.2637H5.12132V25.2722H5.23289V26.3584H4.13573L1.94141 25.1775Z" fill="#FAAE29" stroke="black" stroke-width="0.0114192"/>
<path fill-rule="evenodd" clip-rule="evenodd" d="M3.47868 23.3056H2.15837L3.47868 22.7151V23.3056ZM1.94141 23.2053V24.1913H4.02416V23.4059H4.46426L5.01594 23.1106V22.4199L4.68122 22.1191H5.12132V23.1106H5.23289V22.0244H4.13573L1.94141 23.2053Z" fill="white" stroke="black" stroke-width="0.0114192"/>
<path fill-rule="evenodd" clip-rule="evenodd" d="M6.99354 25.0772H8.31385L6.99354 25.6677V25.0772ZM8.5308 25.1775V24.1915H6.44806V24.977H6.00795L5.45627 25.2722V25.9629L5.791 26.2637H5.35089V25.2722H5.23932V26.3584H6.33648L8.5308 25.1775Z" fill="white" stroke="black" stroke-width="0.0114192"/>
<path fill-rule="evenodd" clip-rule="evenodd" d="M2.60254 24.9817H2.73467V24.679H3.01094V24.9817H3.14907V24.2915H3.01094V24.5881H2.73467V24.2854H2.60254V24.9817ZM3.91782 25.9686H4.05596V25.6659H4.32622V25.9686H4.46436V25.2784H4.32622V25.575H4.05596V25.2723H3.91782V25.9747V25.9686ZM2.59653 23.4014H2.73467V23.6981H3.01094V23.3954H3.14907V24.0977H3.01094V23.795H2.73467V24.0916H2.60254V23.4014H2.59653ZM3.91782 22.4145H4.05596V22.7112H4.32622V22.4084H4.46436V23.1047H4.32622V22.8081H4.05596V23.1108H3.91782V22.4145ZM6.00186 25.9686H6.13999V25.6659H6.41626V25.9686H6.5544V25.2784H6.41626V25.575H6.13999V25.2723H6.00186V25.9747V25.9686ZM7.32315 24.0916H7.46128V23.795H7.73154V24.0977H7.86968V23.4014H7.73154V23.6981H7.46729V23.3954H7.32915V24.0977L7.32315 24.0916Z" fill="#CA3745"/>
<path fill-rule="evenodd" clip-rule="evenodd" d="M6.00185 25.9685H6.13999V25.6658H6.41626V25.9685H6.55439V25.2783H6.41626V25.575H6.13999V25.2722H6.00185V25.9746V25.9685Z" fill="#CA3745"/>
<path fill-rule="evenodd" clip-rule="evenodd" d="M6.00185 25.9686H6.13999V25.6659H6.41626V25.9686H6.55439V25.2784H6.41626V25.575H6.13999V25.2723H6.00185V25.9747V25.9686ZM7.32314 24.9817H7.46128V24.679H7.73154V24.9817H7.86968V24.2915H7.73154V24.5821H7.46728V24.2854H7.32915V24.9817H7.32314ZM6.00185 23.1047H6.13999V22.8081H6.41626V23.1108H6.55439V22.4145H6.41626V22.7112H6.13999V22.4084H6.00185V23.1047Z" fill="#CA3745"/>
<path fill-rule="evenodd" clip-rule="evenodd" d="M5.34721 24.1885L5.78564 23.8252H6.00185V24.0069H5.78564V24.0977H6.11596V23.7405H5.78564V23.468H5.34721V23.7405H5.45532V23.5588H5.67153V23.7405L5.2331 24.1038L4.79467 23.7405V23.5588H5.01689V23.7405H5.125V23.468H4.68657V23.7405H4.35625V24.1038H4.68657V24.0129H4.46435V23.8313H4.68657L5.125 24.1946L4.68657 24.5518H4.46435V24.3702H4.68657V24.2793H4.35625V24.6426H4.68657V24.909H5.125V24.6426H5.01689V24.8243H4.79467V24.6426L5.2331 24.2793L5.67153 24.6426V24.8243H5.45532V24.6426H5.34721V24.909H5.78564V24.6426H6.11596V24.2793H5.78564V24.3702H6.00185V24.5518H5.78564L5.34721 24.1885Z" fill="white"/>
<path fill-rule="evenodd" clip-rule="evenodd" d="M2.15655 8.89487L2.36731 8.67437H3.64423L4.59882 7.70532H5.87574L6.83033 8.68017H8.10725L8.31801 8.89487L8.10725 9.10957H6.82413L5.86954 10.0844H4.59262L3.64423 9.10957H2.36111L2.15035 8.89487H2.15655Z" fill="#CA3745"/>
<path fill-rule="evenodd" clip-rule="evenodd" d="M2.26483 8.91256L2.38026 8.80706H3.69609L4.68296 7.78369H5.77949L6.77213 8.81234H8.08796L8.19761 8.91784L8.08796 9.01807H6.77213L5.88914 9.94121H4.57331L3.69609 9.01807H2.37448L2.26483 8.91256Z" fill="#CA3745" stroke="black" stroke-width="0.0321675"/>
<path fill-rule="evenodd" clip-rule="evenodd" d="M5.77036 9.00517L6.19187 9.43457L5.98111 9.64927L5.86954 9.54482H5.77036V9.64927L5.87574 9.75952H6.09269L6.30344 9.54482V9.32432L5.87574 8.89492L6.30344 8.45971V8.24501L6.09269 8.03032H5.87574L5.77036 8.13476V8.24501H5.87574L5.98731 8.13476L6.19807 8.35527L5.77036 8.78466L5.34885 8.35527L5.77036 7.92006V7.80981H5.66498L5.24347 8.24501L4.81577 7.80981H4.71039V7.92006L5.1319 8.35527L4.71039 8.78466L4.28268 8.35527L4.49964 8.13476L4.60501 8.24501H4.71039V8.13476L4.60501 8.03032H4.38806L4.17731 8.24501V8.45971L4.60501 8.89492L4.17731 9.32432V9.54482L4.38806 9.75952H4.60501L4.71039 9.64927V9.54482H4.59262L4.48724 9.64927L4.27029 9.43457L4.69799 9.00517L5.1195 9.43457L4.69799 9.86977V9.97422H4.80337L5.23108 9.54482L5.65259 9.97422H5.75796V9.86977L5.33645 9.43457L5.75796 9.00517H5.77036ZM5.23728 8.45971L4.80957 8.89492L5.23728 9.32432L5.65878 8.89492L5.23728 8.45971ZM4.59882 10.0845V10.9549L4.70419 10.8388L4.80957 10.9549L4.91495 10.8388L5.02032 10.9549L5.1319 10.8388L5.23728 10.9549L5.34265 10.8388L5.44803 10.9549L5.55341 10.8388L5.65878 10.9549L5.76416 10.8388L5.87574 10.9549V10.0845H4.59262H4.59882ZM5.87574 7.70536V6.83496L5.76416 6.95101L5.65878 6.83496L5.55341 6.95101L5.44803 6.83496L5.34265 6.95101L5.23728 6.83496L5.1257 6.95101L5.02032 6.83496L4.91495 6.95101L4.80957 6.83496L4.70419 6.95101L4.59882 6.83496V7.70536H5.87574ZM7.67335 8.68022V7.80981L7.57417 7.92587L7.46879 7.80981L7.36341 7.92587L7.25184 7.80981L7.14646 7.92587L7.04108 7.80981L6.93571 7.92587L6.83033 7.80981V8.68022H7.67954H7.67335ZM3.64422 8.68022V7.80981L3.53265 7.92587L3.42727 7.80981L3.32189 7.92587L3.21652 7.80981L3.11114 7.92587L3.00576 7.80981L2.89419 7.92587L2.78881 7.80981V8.68022H3.63803H3.64422ZM7.67954 9.10962V9.98002L7.57417 9.86397L7.46879 9.98002L7.36341 9.86397L7.25184 9.98002L7.14646 9.86397L7.04108 9.98002L6.93571 9.86397L6.83033 9.98002V9.10962H7.67954ZM3.63803 9.10962V9.98002L3.53265 9.86397L3.42727 9.98002L3.32189 9.86397L3.21652 9.98002L3.11114 9.86397L3.00576 9.98002L2.89419 9.86397L2.78881 9.98002V9.10962H3.63803Z" fill="#FAAE29"/>
<path fill-rule="evenodd" clip-rule="evenodd" d="M5.86954 10.0845V10.6242L5.98112 10.5139L6.08649 10.63L6.19187 10.5139L6.29725 10.63L6.40262 10.5139L6.508 10.63L6.61958 10.5139L6.72495 10.63L6.83033 10.5139V9.10967L5.86954 10.0845ZM4.59882 10.0845V10.6242L4.48724 10.5139L4.38187 10.63L4.27649 10.5139L4.17111 10.63L4.06573 10.5139L3.96036 10.63L3.85498 10.5139L3.7496 10.63L3.63803 10.5139V9.10967L4.59882 10.0845ZM4.59882 7.70542V7.16577L4.48724 7.27022L4.38187 7.16577L4.27649 7.27022L4.17111 7.16577L4.06573 7.27022L3.96036 7.16577L3.85498 7.27022L3.7496 7.16577L3.63803 7.27022V8.68027L4.59882 7.70542ZM5.86954 7.70542V7.16577L5.98112 7.27022L6.08649 7.16577L6.19187 7.27022L6.29725 7.16577L6.40262 7.27022L6.508 7.16577L6.61338 7.27022L6.72495 7.16577L6.83033 7.27022V8.68027L5.86954 7.70542ZM2.78881 9.75957L2.68344 9.64932L2.57806 9.76538L2.47268 9.64932L2.3673 9.76538L2.26193 9.64932L2.15035 9.76538L2.04498 9.64932L1.9396 9.76538V8.02457L2.04498 8.14062L2.15035 8.02457L2.26193 8.14062L2.3673 8.02457L2.47268 8.14062L2.57806 8.02457L2.68344 8.14062L2.78881 8.02457V8.68027H2.3673L2.15035 8.89497L2.3673 9.10967H2.78881V9.75957ZM7.67955 9.75957L7.78492 9.64932L7.8903 9.76538L7.99568 9.64932L8.10725 9.76538L8.21263 9.64932L8.31801 9.76538L8.42338 9.64932L8.52876 9.76538V8.02457L8.42338 8.14062L8.31801 8.02457L8.21263 8.14062L8.10725 8.02457L7.99568 8.14062L7.8903 8.02457L7.78492 8.14062L7.67955 8.02457V8.68027H8.10725L8.31801 8.89497L8.10725 9.10967H7.67955V9.75957Z" fill="#00843D"/>
<path fill-rule="evenodd" clip-rule="evenodd" d="M4.07193 10.1542C4.07193 10.1542 3.98515 10.2355 3.98515 10.2819C3.98515 10.3225 4.07813 10.4096 4.12152 10.4096C4.17111 10.4096 4.25169 10.3225 4.25169 10.2819C4.25169 10.2413 4.16491 10.1542 4.16491 10.1542V9.98016C4.16491 9.98016 4.35087 10.2761 4.35087 10.1484C4.35087 10.0556 4.16491 9.89893 4.16491 9.89893H4.07193C4.07193 9.89893 3.88597 10.0846 3.88597 10.1484C3.88597 10.2761 4.07193 9.98016 4.07193 9.98016V10.1542Z" fill="white"/>
<path fill-rule="evenodd" clip-rule="evenodd" d="M5.18149 10.485C5.18149 10.485 5.07611 10.6011 5.07611 10.6591C5.07611 10.7171 5.18769 10.8448 5.23728 10.8448C5.29926 10.8448 5.39224 10.7229 5.39224 10.6649C5.39224 10.6069 5.28687 10.485 5.28687 10.485V10.2413C5.28687 10.2413 5.47283 10.6359 5.47283 10.456C5.47283 10.3399 5.28687 10.1252 5.28687 10.1252H5.18149C5.18149 10.1252 4.96454 10.3922 4.99553 10.456C4.99553 10.6359 5.18149 10.2413 5.18149 10.2413V10.485Z" fill="#CA3745"/>
<path d="M4.06389 8.99869C4.17984 8.99869 4.27384 8.94947 4.27384 8.88875C4.27384 8.82803 4.17984 8.77881 4.06389 8.77881C3.94793 8.77881 3.85394 8.82803 3.85394 8.88875C3.85394 8.94947 3.94793 8.99869 4.06389 8.99869Z" fill="#00843D"/>
<path d="M5.23543 8.99869C5.35138 8.99869 5.44538 8.94947 5.44538 8.88875C5.44538 8.82803 5.35138 8.77881 5.23543 8.77881C5.11947 8.77881 5.02547 8.82803 5.02547 8.88875C5.02547 8.94947 5.11947 8.99869 5.23543 8.99869Z" fill="#00843D"/>
<path d="M6.40077 8.99869C6.51673 8.99869 6.61073 8.94947 6.61073 8.88875C6.61073 8.82803 6.51673 8.77881 6.40077 8.77881C6.28482 8.77881 6.19082 8.82803 6.19082 8.88875C6.19082 8.94947 6.28482 8.99869 6.40077 8.99869Z" fill="#00843D"/>
<path fill-rule="evenodd" clip-rule="evenodd" d="M4.05333 7.64735C4.05333 7.64735 3.96655 7.56031 3.96655 7.51969C3.96655 7.47907 4.05953 7.38623 4.09672 7.38623C4.14631 7.38623 4.2269 7.47327 4.2269 7.51389C4.2269 7.56031 4.14011 7.64735 4.14011 7.64735V7.82143C4.14011 7.82143 4.33227 7.51969 4.33227 7.64735C4.33227 7.74019 4.14631 7.90267 4.14631 7.90267H4.05333C4.05333 7.90267 3.86118 7.71698 3.86118 7.65315C3.86118 7.52549 4.04713 7.81563 4.04713 7.81563V7.64155L4.05333 7.64735Z" fill="white"/>
<path fill-rule="evenodd" clip-rule="evenodd" d="M5.1567 7.31075C5.1567 7.31075 5.05132 7.1947 5.05132 7.13667C5.05132 7.07864 5.1691 6.95679 5.21249 6.95679C5.27447 6.95679 5.37365 7.07284 5.37365 7.13087C5.37365 7.18889 5.26827 7.31655 5.26827 7.31655V7.54866C5.26827 7.54866 5.45423 7.15988 5.45423 7.33976C5.45423 7.45582 5.26827 7.67632 5.26827 7.67632H5.1505C5.1505 7.67632 4.93355 7.40359 4.96454 7.33976C4.96454 7.16568 5.1505 7.55446 5.1505 7.55446V7.31075H5.1567Z" fill="#CA3745"/>
<path fill-rule="evenodd" clip-rule="evenodd" d="M6.33444 10.1541C6.33444 10.1541 6.24766 10.2354 6.24766 10.2818C6.24766 10.3224 6.34064 10.4094 6.38403 10.4094C6.43362 10.4094 6.5142 10.3224 6.5142 10.2818C6.5142 10.2412 6.42742 10.1541 6.42742 10.1541V9.98003C6.42742 9.98003 6.61338 10.276 6.61338 10.1483C6.61338 10.0555 6.42742 9.8988 6.42742 9.8988H6.32824C6.32824 9.8988 6.14228 10.0845 6.14228 10.1483C6.14228 10.276 6.32824 9.98003 6.32824 9.98003V10.1541H6.33444ZM6.31585 7.64735C6.31585 7.64735 6.22906 7.56031 6.22906 7.51389C6.22906 7.47907 6.32204 7.38623 6.35924 7.38623C6.40883 7.38623 6.48941 7.47327 6.48941 7.51389C6.48941 7.56031 6.40263 7.64735 6.40263 7.64735V7.82143C6.40263 7.82143 6.59478 7.51969 6.59478 7.64735C6.59478 7.74019 6.40883 7.90267 6.40883 7.90267H6.31585C6.31585 7.90267 6.12369 7.71698 6.12369 7.65315C6.12369 7.52549 6.30965 7.81563 6.30965 7.81563V7.64155L6.31585 7.64735Z" fill="white"/>
<path fill-rule="evenodd" clip-rule="evenodd" d="M3.14833 9.55062C3.14833 9.55062 3.03056 9.63186 3.03056 9.66667C3.03056 9.70729 3.15453 9.79433 3.21032 9.78853C3.27231 9.78853 3.38388 9.71309 3.38388 9.67247C3.38388 9.63186 3.26611 9.55062 3.26611 9.55062V9.38814C3.26611 9.38814 3.47686 9.64926 3.47686 9.53321C3.47686 9.45197 3.26611 9.3069 3.26611 9.3069H3.14833C3.14833 9.3069 2.90659 9.49259 2.94378 9.53321C2.94378 9.64926 3.14833 9.38814 3.14833 9.38814V9.55062ZM3.12354 8.32625C3.12354 8.32625 3.00576 8.24501 3.00576 8.20439C3.00576 8.16377 3.12974 8.08254 3.18552 8.08834C3.24751 8.08834 3.35909 8.16377 3.35909 8.20439C3.35909 8.24501 3.24131 8.32045 3.24131 8.32045V8.48292C3.24131 8.48292 3.45207 8.2218 3.45207 8.34366C3.45207 8.41909 3.24131 8.56416 3.24131 8.56416H3.12354C3.12354 8.56416 2.88179 8.38428 2.91898 8.34366C2.91898 8.2276 3.12354 8.48292 3.12354 8.48292V8.32625ZM7.23324 9.5216C7.23324 9.5216 7.10927 9.60284 7.10927 9.64346C7.10927 9.68408 7.23944 9.76532 7.29523 9.76532C7.35721 9.76532 7.46879 9.68408 7.46879 9.64926C7.46879 9.60284 7.34482 9.5216 7.34482 9.5216V9.36493C7.34482 9.36493 7.55557 9.62605 7.55557 9.5042C7.55557 9.42876 7.35102 9.28369 7.35102 9.28369H7.22704C7.22704 9.28369 6.99149 9.46358 7.02249 9.5042C7.02249 9.62605 7.23324 9.36493 7.23324 9.36493V9.52741V9.5216ZM7.20845 8.30304C7.20845 8.30304 7.08447 8.2218 7.08447 8.18118C7.08447 8.14056 7.21464 8.05933 7.27043 8.05933C7.33242 8.05933 7.44399 8.14056 7.44399 8.17538C7.44399 8.2218 7.32002 8.29724 7.32002 8.29724V8.45971C7.32002 8.45971 7.53078 8.19859 7.53078 8.31464C7.53078 8.39588 7.32622 8.54095 7.32622 8.54095H7.20225C7.20225 8.54095 6.9667 8.36107 6.99769 8.32045C6.99769 8.19859 7.20845 8.45971 7.20845 8.45971V8.29724V8.30304Z" fill="#CA3745"/>
<path fill-rule="evenodd" clip-rule="evenodd" d="M2.28052 9.53896C2.24333 9.46352 2.25573 9.42871 2.25573 9.38809C2.25573 9.34747 2.36111 9.27204 2.3983 9.27204C2.44789 9.27204 2.52847 9.35327 2.52847 9.3997C2.52847 9.44031 2.52847 9.47513 2.50987 9.55057L2.46028 9.42871C2.3921 9.60279 2.3859 9.60279 2.34871 9.42291L2.28672 9.53896H2.28052ZM2.28052 8.29138C2.24953 8.36682 2.25573 8.40163 2.25573 8.44225C2.25573 8.48287 2.36111 8.55831 2.4045 8.55831C2.45409 8.55831 2.53467 8.47707 2.53467 8.43065C2.53467 8.39003 2.53467 8.35521 2.51607 8.27978L2.46028 8.40163C2.3983 8.22755 2.3921 8.22755 2.34871 8.40744L2.28672 8.29138H2.28052ZM8.01427 9.52155C7.97708 9.44612 7.98328 9.4113 7.98328 9.37068C7.98328 9.33006 8.09486 9.25463 8.13205 9.25463C8.18164 9.25463 8.26222 9.34167 8.26222 9.38229C8.26222 9.42291 8.26222 9.46353 8.24362 9.53316L8.18784 9.4113C8.12585 9.58538 8.11965 9.59118 8.07626 9.4113L8.01427 9.52155ZM8.01427 8.27978C7.97708 8.34941 7.98948 8.38422 7.98948 8.43065C7.98948 8.46546 8.09486 8.5467 8.13205 8.5467C8.18164 8.5467 8.26842 8.45966 8.26842 8.41904C8.26842 8.37262 8.26842 8.3378 8.24982 8.26237L8.18784 8.39003C8.12585 8.21014 8.12585 8.20434 8.08246 8.39003L8.02047 8.27397L8.01427 8.27978Z" fill="white"/>
<path fill-rule="evenodd" clip-rule="evenodd" d="M4.58022 10.978V10.6647H3.58844V10.0496H2.70823V9.84652H1.9396V7.98968H2.70823V7.78659H3.58844V7.17151H4.58022V6.86397H5.89433V7.17151H6.88612V7.78659H7.76013V7.99548H8.53496V9.84652H7.76633V10.0496H6.89232V10.6647H5.90053V10.9722H4.58642L4.58022 10.978ZM4.46865 11.0767V10.7691H3.47686V10.1541H2.60285V9.94517H1.83422V7.89103H2.60285V7.68794H3.47686V7.06706H4.46865V6.75952H6.00591V7.06706H6.99769V7.68794H7.8717V7.89103H8.64034V9.94517H7.8717V10.1541H6.9915V10.7691H5.99971V11.0767H4.46865Z" fill="#CA3745" stroke="black" stroke-width="0.011655"/>
</g>
</g>
<defs>
<clipPath id="clip0_45_1819">
<rect width="41" height="31" fill="white"/>
</clipPath>
</defs>
</svg>
