<svg width="76" height="76" viewBox="0 0 76 76" fill="none" xmlns="http://www.w3.org/2000/svg">
<path d="M76 38C76 58.9868 58.9868 76 38 76C17.0132 76 0 58.9868 0 38C0 17.0132 17.0132 0 38 0C58.9868 0 76 17.0132 76 38Z" fill="url(#paint0_linear_51_115)"/>
<path d="M25.0605 13.1269C23.8984 13.5078 22.9707 14.416 22.5703 15.5683L22.3945 16.0761L21.2812 16.1249C20.0508 16.1835 19.7773 16.2812 19.4453 16.8378C19.2598 17.1406 19.25 17.414 19.25 27.7753C19.25 37.4531 19.2598 38.4394 19.4062 38.7519C19.5039 38.9374 19.6797 39.1523 19.7969 39.2402L20.0312 39.3867V49.123C20.0312 58.6542 20.0312 58.8593 20.2266 59.1718C20.5781 59.748 20.9199 59.8749 22.1113 59.8749H23.1562V60.9199C23.1562 62.1113 23.2832 62.4531 23.8594 62.8046C24.1816 62.9999 24.3867 62.9999 39.9531 62.9999C55.5195 62.9999 55.7246 62.9999 56.0469 62.8046C56.2227 62.6972 56.4473 62.4726 56.5547 62.2968C56.75 61.9746 56.75 61.7597 56.75 41.5156C56.75 21.2714 56.75 21.0566 56.5547 20.7343C56.2031 20.1581 55.8613 20.0312 54.6797 20.0312H53.625V18.9765C53.625 17.7949 53.498 17.4531 52.9219 17.1015C52.6094 16.916 52.4141 16.9062 47.5508 16.9062C42.5508 16.9062 42.502 16.9062 42.3945 16.7011C42.3359 16.5937 42.1406 16.4179 41.9746 16.3203C41.6719 16.1347 41.4375 16.1249 35.8906 16.1249H30.1289L29.9531 15.5976C29.7773 15.0214 29.25 14.2597 28.752 13.8398C28.5859 13.7031 28.1855 13.4589 27.873 13.3124C27.4043 13.0976 27.1504 13.0488 26.3789 13.0292C25.8223 13.0097 25.2949 13.0585 25.0605 13.1269ZM27.1406 14.7187C27.668 14.9335 28.4297 15.7343 28.4297 16.0761C28.4297 16.1054 27.8633 16.1249 27.1602 16.1249C26.0176 16.1249 25.8711 16.1445 25.6953 16.3203C25.4902 16.5253 25.4414 16.9941 25.5977 17.2968C25.8027 17.6777 26.0762 17.6874 33.7129 17.6874H41.125V37.9999H20.8125V17.6874H22.3652L22.4238 25.7441L22.6875 26.3007C23.4199 27.873 25.2461 28.8496 26.877 28.5468C27.7266 28.3906 28.459 28.0195 29.0059 27.4726C29.9824 26.496 30.1875 25.7539 30.1875 23.1953C30.1875 20.6269 29.9824 20.041 28.8984 19.5039C27.9219 19.0156 26.7695 19.2109 26.0957 19.9824C25.5781 20.5781 25.5 20.8613 25.5 22.2187C25.5 23.5761 25.5781 23.791 26.1543 23.8984C26.418 23.9472 26.5156 23.9081 26.7695 23.664C27.0625 23.371 27.0625 23.3515 27.0625 22.3261C27.0625 21.3593 27.082 21.2812 27.3066 21.0566C27.6875 20.666 28.2441 20.7441 28.4785 21.2128C28.6934 21.6132 28.6836 24.6796 28.4688 25.3925C28.166 26.4081 26.9746 27.1796 25.9688 27.0234C25.1191 26.8867 24.2402 26.1542 24.0352 25.4121C23.9766 25.207 23.9375 23.2831 23.9375 20.7148V16.3691L24.1719 15.8808C24.4062 15.3632 24.8555 14.914 25.3535 14.6992C25.7539 14.5234 26.7012 14.5331 27.1406 14.7187ZM52.0625 22.5898L52.3555 22.8828C52.6094 23.1269 52.707 23.166 52.9707 23.1171C53.4395 23.0292 53.625 22.7363 53.625 22.121V21.5937H55.1875V61.5351H24.7188V59.8749H45.7734L46.2617 59.6308C46.9453 59.289 53.1367 53.0781 53.4199 52.4531C53.6152 52.0136 53.625 51.8671 53.625 38.5566C53.625 25.2363 53.625 25.1093 53.4297 24.914C53.1758 24.6601 52.6484 24.6601 52.3457 24.9042L52.1113 25.0898L52.0625 51.2812H49.2012C46.4277 51.2812 46.3301 51.291 45.9102 51.5058C45.5879 51.6621 45.4121 51.8378 45.2559 52.1601C45.041 52.58 45.0312 52.6777 45.0312 55.4511V58.3124H21.5938V39.5624L31.6426 39.5429C41.623 39.5136 41.7012 39.5136 41.9648 39.3085C42.1113 39.2011 42.3262 38.9863 42.4336 38.8398C42.6387 38.5761 42.6387 38.498 42.668 28.5175L42.6875 18.4687H52.0625V22.5898ZM50.9883 52.873C50.9883 52.8828 50.002 53.8789 48.791 55.0898L46.5938 57.2871V52.8437H48.791C50.002 52.8437 50.9883 52.8535 50.9883 52.873Z" fill="white"/>
<path d="M32.7461 23.3808C32.4824 23.664 32.4727 24.1328 32.7168 24.4355C32.9023 24.6699 32.9316 24.6699 35.0312 24.6992C36.2031 24.7187 37.2676 24.7089 37.3848 24.6699C37.9707 24.5234 38.1758 23.8984 37.7949 23.4101L37.5996 23.1562H35.2754C32.9805 23.1562 32.9512 23.1562 32.7461 23.3808Z" fill="white"/>
<path d="M32.7461 27.2871C32.4824 27.5703 32.4727 28.039 32.7168 28.3417L32.9023 28.5761H37.6289L37.8145 28.3417C38.0586 28.0488 38.0488 27.6386 37.7949 27.3164L37.5996 27.0624H35.2754C32.9805 27.0624 32.9512 27.0624 32.7461 27.2871Z" fill="white"/>
<path d="M24.1523 31.1933C23.8398 31.5253 23.8594 32.0624 24.1914 32.3261C24.4453 32.5312 24.5234 32.5312 30.9883 32.5312H37.5215L37.7559 32.2871C38.0781 31.9746 38.0781 31.5253 37.7559 31.2128L37.5215 30.9687H24.3574L24.1523 31.1933Z" fill="white"/>
<path d="M46.0176 23.4101C45.7832 23.7031 45.7637 23.9179 45.9199 24.2695C46.0957 24.6406 46.4668 24.7382 47.5703 24.6992C48.4785 24.6699 48.5762 24.6503 48.752 24.4355C49.0059 24.123 48.9961 23.6347 48.7129 23.371C48.5078 23.1757 48.3809 23.1562 47.3555 23.1562C46.2422 23.1562 46.2129 23.166 46.0176 23.4101Z" fill="white"/>
<path d="M46.0566 27.3066C45.793 27.5605 45.7539 27.8046 45.9199 28.166C46.0859 28.5273 46.4082 28.6249 47.4824 28.6249C48.3906 28.6249 48.4785 28.6054 48.6934 28.3808C49.0156 28.0683 49.0254 27.5703 48.7129 27.2773C48.5078 27.082 48.3809 27.0624 47.3848 27.0624C46.3496 27.0624 46.2813 27.0722 46.0566 27.3066Z" fill="white"/>
<path d="M46.0371 31.2226C45.832 31.4277 45.8027 31.5351 45.8418 31.8281C45.9395 32.414 46.0762 32.4824 47.3262 32.5117C48.4102 32.5507 48.4492 32.541 48.6934 32.2968C49.0156 31.9746 49.0254 31.4765 48.7129 31.1835C48.5078 30.9882 48.3809 30.9687 47.3848 30.9687C46.3398 30.9687 46.2812 30.9785 46.0371 31.2226Z" fill="white"/>
<path d="M46.0371 35.1289C45.832 35.3339 45.8027 35.4414 45.8516 35.7343C45.9395 36.3398 46.1641 36.4374 47.375 36.4374C48.2832 36.4374 48.459 36.4081 48.6836 36.2324C48.8789 36.0761 48.9375 35.9492 48.9375 35.6562C48.9375 35.3632 48.8789 35.2363 48.6836 35.08C48.459 34.9042 48.2832 34.8749 47.3555 34.8749C46.3398 34.8749 46.2812 34.8847 46.0371 35.1289Z" fill="white"/>
<path d="M24.9727 42.1113C24.6309 42.3749 24.6211 42.9511 24.9434 43.2539C25.1484 43.4492 25.2754 43.4687 26.2422 43.4687C27.4336 43.4687 27.6875 43.371 27.7949 42.8925C27.873 42.5214 27.6387 42.0527 27.3359 41.9648C27.209 41.9355 26.6914 41.9062 26.1738 41.9062C25.373 41.9062 25.1973 41.9355 24.9727 42.1113Z" fill="white"/>
<path d="M30.4316 42.1503C30.0898 42.4824 30.0996 42.9902 30.4414 43.2636C30.7051 43.4687 30.7441 43.4687 39.6113 43.4687H48.5176L48.7227 43.2441C49.0156 42.9316 49.0059 42.4531 48.6934 42.1503L48.459 41.9062H30.666L30.4316 42.1503Z" fill="white"/>
<path d="M24.9629 46.0566C24.6406 46.3691 24.6309 46.8671 24.9434 47.1601C25.1484 47.3554 25.2754 47.3749 26.2422 47.3749C27.0234 47.3749 27.3652 47.3359 27.5215 47.2285C27.9512 46.9257 27.8828 46.1445 27.3945 45.9199C27.2578 45.8613 26.7109 45.8124 26.1738 45.8124C25.2656 45.8124 25.1777 45.832 24.9629 46.0566Z" fill="white"/>
<path d="M30.4316 46.0566C30.1094 46.3691 30.0996 46.8671 30.4121 47.1601L30.6367 47.3749H48.5176L48.7227 47.1503C49.0156 46.8378 49.0059 46.3593 48.6934 46.0566L48.459 45.8124H30.666L30.4316 46.0566Z" fill="white"/>
<path d="M25.1387 49.8164C24.6797 50.0019 24.5723 50.7148 24.9434 51.0664C25.1484 51.2617 25.2754 51.2812 26.2715 51.2812C27.3066 51.2812 27.375 51.2714 27.5996 51.0371C27.9805 50.666 27.8633 50.041 27.3848 49.8261C27.1113 49.6992 25.4512 49.6894 25.1387 49.8164Z" fill="white"/>
<path d="M30.6074 49.8164C30.1484 50.0019 30.041 50.7148 30.4121 51.0664L30.6367 51.2812H42.2676L42.4727 51.0566C42.7363 50.7734 42.7461 50.3046 42.502 50.0019L42.3164 49.7675L36.5645 49.748C33.3711 49.7382 30.7246 49.7675 30.6074 49.8164Z" fill="white"/>
<defs>
<linearGradient id="paint0_linear_51_115" x1="38" y1="0" x2="38" y2="76" gradientUnits="userSpaceOnUse">
<stop stop-color="#346CEC"/>
<stop offset="1" stop-color="#0A2C79"/>
</linearGradient>
</defs>
</svg>
