<svg width="76" height="76" viewBox="0 0 76 76" fill="none" xmlns="http://www.w3.org/2000/svg">
<circle cx="38" cy="38" r="38" fill="url(#paint0_linear_51_141)"/>
<g clip-path="url(#clip0_51_141)">
<path d="M14.4356 13.201C13.9188 13.4307 13.6412 13.6795 13.2967 14.1963L13.0479 14.5791L13.0192 37.299C13.0096 53.3963 13.0287 60.1242 13.1053 60.4018C13.2393 60.909 14.0815 61.7512 14.5887 61.8947C14.8471 61.9713 20.015 62 31.8631 62H48.7547L49.2619 61.7512C49.8744 61.4449 50.3721 60.8133 50.5156 60.1338C50.5922 59.8084 50.6113 58.2293 50.5922 55.3295C50.5635 51.109 50.5539 50.9941 50.3625 50.8027C50.2572 50.6975 50.0084 50.5826 49.817 50.5443C49.5203 50.4965 49.4342 50.5348 49.1758 50.7836L48.8887 51.0707V55.3486C48.8887 59.8467 48.8695 60.0572 48.458 60.2199C48.3719 60.2486 40.84 60.2773 31.7195 60.2773H15.1342L14.9332 60.0572L14.7227 59.8371V15.1342L14.9428 14.9332L15.1629 14.7227H31.7291C40.84 14.7227 48.3719 14.7514 48.458 14.7801C48.8887 14.9523 48.8887 14.9045 48.8887 23.2402V31.107L49.1758 31.3941C49.4342 31.643 49.5203 31.6812 49.817 31.6334C50.0084 31.5951 50.2572 31.4803 50.3625 31.375C50.5635 31.1836 50.5635 31.1262 50.5635 22.9723C50.5635 15.048 50.5539 14.7609 50.3816 14.3973C50.1328 13.8996 49.6256 13.402 49.1375 13.1818C48.7643 13.0096 48.1231 13 31.8057 13C14.9619 13 14.8662 13.0096 14.4356 13.201Z" fill="white"/>
<path d="M20.3213 18.3402L20.2926 20.1586C20.2543 22.1779 20.3404 22.5895 20.7998 22.7617C21.1826 22.9053 42.5244 22.8957 42.7924 22.7426C43.1082 22.5799 43.2326 22.3693 43.2326 21.9961C43.2326 21.6229 43.1082 21.4123 42.7924 21.2496C42.6393 21.1635 39.9309 21.1348 32.2938 21.1348H21.9961V19.6035L42.7828 19.5557L43.0125 19.2877C43.3283 18.924 43.3188 18.4646 42.9934 18.1297L42.735 17.8809H20.8572L20.3213 18.3402Z" fill="white"/>
<path d="M59.1301 23.1322C58.5846 23.3332 58.1157 23.7351 57.7329 24.3476C57.4266 24.8357 57.3596 24.8931 57.1395 24.8453C56.8715 24.7974 56.5079 24.941 56.3165 25.1898C56.2495 25.276 55.7518 26.099 55.2159 27.0273L54.2301 28.7213L53.7995 28.4916C53.5602 28.3672 53.2252 28.2619 53.0625 28.2619C52.5362 28.2619 52.1629 28.8074 52.3065 29.3625C52.3639 29.573 52.9573 30.0994 53.2444 30.1951C53.3018 30.2142 51.7993 32.9226 49.8948 36.2053L46.4495 42.1867L45.5881 44.4836C45.1096 45.7469 44.478 47.2494 44.1717 47.8332C43.6454 48.8189 43.6166 48.9242 43.6071 49.5558C43.6071 50.0439 43.6549 50.331 43.7985 50.6086L43.9995 50.9914L43.186 51.9963C42.7457 52.5513 42.3534 53.0394 42.3151 53.0777C42.2768 53.116 42.1332 52.848 41.9897 52.4748C41.5399 51.3359 41.0805 50.9435 40.1905 50.9435C39.6163 50.9435 39.1952 51.1541 38.8602 51.6039C38.7454 51.7666 38.6209 51.8719 38.5827 51.8527C38.5444 51.824 38.487 51.3455 38.4487 50.7808C38.286 48.3883 38.1329 47.9672 37.3002 47.5844C36.8217 47.3642 36.4868 47.3547 36.0178 47.5556C35.2618 47.8619 35.2235 47.9576 34.0463 51.5082C33.2711 53.8433 32.9649 54.8961 33.0032 55.0875C33.118 55.6426 33.9219 55.9297 34.3622 55.5564C34.5057 55.4416 34.8598 54.5037 35.5584 52.4269C36.6782 49.0773 36.5633 49.1635 36.7643 51.489C36.8696 52.7523 36.9557 53.0777 37.2715 53.4127C38.018 54.2166 39.31 54.1113 39.9321 53.1926C40.0565 53.0107 40.1809 52.8576 40.2096 52.8576C40.2383 52.8576 40.3627 53.1256 40.4872 53.451C40.8987 54.5515 41.3868 54.9631 42.2672 54.9631C43.0233 54.9631 43.2913 54.7429 44.7077 52.9437L45.4254 52.025H46.0475C47.2151 52.025 47.7415 51.6422 48.6985 50.1013C49.0047 49.6228 49.9139 48.4265 50.7082 47.4599L52.1725 45.699L55.637 39.6793C57.5319 36.3775 59.111 33.65 59.1301 33.6213C59.1971 33.5447 59.8479 33.9467 60.0393 34.1859C60.1637 34.3486 60.2116 34.5209 60.1733 34.6836C60.1446 34.8271 59.3502 36.2818 58.4028 37.9279C56.9098 40.5119 56.6897 40.9617 56.7375 41.2201C56.8428 41.8422 57.6276 42.1676 58.087 41.7847C58.2592 41.6316 61.0442 36.9039 61.6471 35.7267C61.8194 35.4109 61.8768 35.1334 61.8768 34.674C61.8768 33.65 61.4557 32.9609 60.4891 32.358L60.0202 32.0709L60.3264 31.5349C60.4987 31.2287 60.9676 30.4056 61.3791 29.6974C61.8002 28.9701 62.1256 28.3002 62.1256 28.1566C62.1256 28.0131 62.0491 27.8025 61.9438 27.6781C61.7715 27.458 61.7715 27.4484 62.0873 26.7881C62.518 25.9076 62.5372 25.1037 62.1639 24.3572C61.628 23.2758 60.269 22.7303 59.1301 23.1322ZM60.5274 25.0176C60.6135 25.1324 60.6901 25.3238 60.6901 25.4578C60.6901 25.7449 60.3456 26.4435 60.202 26.4435C60.1063 26.4435 59.1206 25.9267 58.9674 25.8023C58.8909 25.7353 59.2928 25.0846 59.5321 24.8931C59.8288 24.6635 60.2786 24.7209 60.5274 25.0176ZM58.7569 27.6877C59.4459 28.0801 60.0106 28.4533 59.9915 28.5107C59.934 28.7787 58.5272 31.1234 58.4315 31.1043C58.1635 31.0469 55.8092 29.64 55.8379 29.5443C55.8954 29.2763 57.3022 26.9316 57.3979 26.9508C57.4457 26.9603 58.0582 27.2953 58.7569 27.6877ZM56.3165 31.9369L57.6276 32.6929L57.4457 32.9896C57.35 33.1523 55.8954 35.6502 54.2301 38.55C52.5649 41.4402 51.1772 43.8328 51.1581 43.8519C51.0815 43.9381 48.4879 42.3494 48.5166 42.2346C48.5645 42.0144 54.8809 31.1234 54.9479 31.1521C54.9766 31.1713 55.5987 31.5254 56.3165 31.9369ZM48.7846 44.5601C49.3588 44.8951 49.8948 45.2109 49.9809 45.2588C50.1149 45.3353 49.9905 45.5363 49.1483 46.5412C48.5932 47.2015 48.1147 47.7375 48.0764 47.7375C47.9137 47.7375 46.6217 46.9623 46.6217 46.8666C46.6217 46.7996 46.8418 46.1775 47.1002 45.4789C47.3682 44.7707 47.5979 44.139 47.6266 44.0721C47.6457 44.0146 47.684 43.9572 47.7032 43.9572C47.7319 43.9572 48.2104 44.2252 48.7846 44.5601ZM47.0045 49.2209C47.129 49.2974 47.129 49.3453 46.9663 49.642C46.7079 50.1205 46.4782 50.3023 46.1241 50.3023C45.7891 50.3023 45.3776 49.9195 45.3776 49.5941C45.3776 49.4027 45.5977 48.9051 45.7795 48.6754C45.8657 48.5605 46.0475 48.6371 47.0045 49.2209Z" fill="white"/>
<path d="M23.0393 24.6662C22.6182 25.0873 22.7043 25.7764 23.2115 26.0061C23.5274 26.1496 40.1127 26.1592 40.3902 26.0061C40.6869 25.8434 40.8688 25.3266 40.7443 24.9725C40.5338 24.36 40.9262 24.3887 31.71 24.3887H23.3168L23.0393 24.6662Z" fill="white"/>
<path d="M26.3889 30.2553C25.9678 30.5807 25.9295 31.2697 26.3123 31.6238C26.5037 31.7961 26.8483 31.8057 35.7199 31.8344C42.6584 31.8535 44.984 31.8248 45.1945 31.7387C45.5104 31.6143 45.7688 31.0879 45.6731 30.7721C45.6443 30.6572 45.5199 30.4658 45.4147 30.3414L45.2233 30.1309H35.8826C28.6858 30.1404 26.5037 30.1596 26.3889 30.2553Z" fill="white"/>
<path d="M18.9623 35.2414C18.5891 35.5668 18.5891 36.1793 18.9623 36.5047L19.2303 36.7344H36.1506L36.4186 36.5047C36.7918 36.1793 36.7918 35.5668 36.4186 35.2414L36.1506 35.0117H19.2303L18.9623 35.2414Z" fill="white"/>
<path d="M38.5432 35.2893C38.3518 35.4807 38.2656 35.6625 38.2656 35.873C38.2656 36.0836 38.3518 36.2654 38.5432 36.4568L38.8207 36.7344H45.1467L45.4147 36.5047C45.6252 36.3229 45.6826 36.1984 45.6826 35.873C45.6826 35.5477 45.6252 35.4232 45.4147 35.2414L45.1467 35.0117H38.8207L38.5432 35.2893Z" fill="white"/>
<path d="M18.9623 39.3375C18.6752 39.6533 18.6178 39.9309 18.7805 40.3137C19.0006 40.8496 19.1441 40.8592 23.8336 40.8305L28.0254 40.8018L28.2742 40.5529C28.5996 40.218 28.6188 39.6916 28.3029 39.3566L28.0924 39.127H19.1537L18.9623 39.3375Z" fill="white"/>
<path d="M30.3701 39.3662C30.0352 39.6916 30.0447 40.2563 30.3797 40.5721L30.6285 40.8018H37.0024L37.2512 40.5721C37.6053 40.2371 37.6053 39.6055 37.2512 39.3279C37.0024 39.1365 36.8875 39.127 33.7963 39.127H30.5998L30.3701 39.3662Z" fill="white"/>
<path d="M22.1971 44.8883C18.79 45.3668 16.2539 48.3049 16.2539 51.7502C16.2539 52.9848 16.4549 53.8365 16.9621 54.8701C17.7086 56.3631 18.6369 57.2914 20.1299 58.0379C21.1635 58.5451 22.0152 58.7461 23.2498 58.7461C26.81 58.7557 29.6811 56.1813 30.1309 52.5924C30.217 51.9129 30.2074 51.7023 30.0926 51.4344C29.8629 50.8697 29.1068 50.774 28.6762 51.243C28.5805 51.3578 28.4848 51.7406 28.4274 52.2479C28.1881 54.1811 27.1354 55.7027 25.4893 56.4875C24.5514 56.9373 23.9484 57.0617 22.9149 56.9947C21.8238 56.9373 20.9338 56.6215 20.0916 55.9803C18.8188 55.0328 18.0914 53.6643 18.0053 52.0852C17.9096 50.5252 18.4072 49.2141 19.4983 48.1326C21.2879 46.343 23.8432 46.0559 26.0539 47.3957C26.7621 47.8168 27.0875 47.8359 27.4608 47.4627C28.0733 46.8502 27.7096 46.2568 26.3027 45.5486C25.1256 44.9648 23.5082 44.6969 22.1971 44.8883Z" fill="white"/>
<path d="M24.5322 50.8984L23.001 52.4297L22.0344 51.4631C21.1539 50.5826 21.0295 50.4965 20.7137 50.4965C20.0533 50.4965 19.6609 51.109 19.9385 51.7023C20.149 52.1426 21.8908 53.827 22.3119 54.0088C22.7522 54.1906 23.2498 54.1906 23.6805 54.0088C24.0633 53.8461 26.9057 51.109 27.1258 50.6879C27.4512 50.0562 27.0875 49.3672 26.4176 49.3672C26.1018 49.3672 25.9486 49.5012 24.5322 50.8984Z" fill="white"/>
</g>
<defs>
<linearGradient id="paint0_linear_51_141" x1="38" y1="0" x2="38" y2="76" gradientUnits="userSpaceOnUse">
<stop stop-color="#346CEC"/>
<stop offset="1" stop-color="#0A2C79"/>
</linearGradient>
<clipPath id="clip0_51_141">
<rect width="49" height="49" fill="white" transform="translate(13 13)"/>
</clipPath>
</defs>
</svg>
