<svg width="76" height="76" viewBox="0 0 76 76" fill="none" xmlns="http://www.w3.org/2000/svg">
<circle cx="38" cy="38" r="38" fill="url(#paint0_linear_51_183)"/>
<path d="M13.7812 24.8946C13.5957 24.9825 13.3418 25.2071 13.2246 25.3926L13 25.7247V44.0254L13.2148 44.3477C13.5469 44.8165 14.0059 45.0313 14.7285 45.0313H15.3438V46.0958C15.3438 47.0333 15.373 47.1895 15.5684 47.4825C15.9199 48.0196 16.3105 48.1563 17.4727 48.1563C18.3418 48.1563 18.4785 48.1758 18.5273 48.3223C19.123 50.0899 20.3926 51.1543 22.0332 51.2618C23.2539 51.3399 24.1816 51.0079 25.0703 50.1875L25.4902 49.8067L25.8906 50.2071C26.9941 51.3106 28.9375 51.6036 30.3926 50.8809C31.2227 50.4708 32.1699 49.2989 32.375 48.4297L32.4336 48.1563H50.5684L50.7832 48.7422C51.5547 50.8614 54.0254 51.8868 56.0664 50.9297C57.2578 50.3731 58.1953 49.0938 58.293 47.8926L58.332 47.375H60.1094C62.1016 47.375 62.375 47.3067 62.7754 46.7012C63 46.3692 63 46.3594 63 42.6192C63 39.504 62.9707 38.8106 62.8535 38.5176C62.7754 38.3223 62.4043 37.8536 62.043 37.4727L61.3887 36.7696L60.4219 33.8594L59.4648 30.9493L59.6699 30.7344C59.9531 30.4317 59.9434 29.8946 59.6504 29.6211C59.4258 29.4063 59.3867 29.4063 55.7441 29.4063H52.0723L52.043 27.5215C52.0137 25.7637 52.0039 25.627 51.7988 25.3438C51.3203 24.67 52.8926 24.7188 32.5117 24.7188C15.1973 24.7188 14.1035 24.7286 13.7812 24.8946ZM50.5 43.4688H49.6699C48.7227 43.4688 48.4102 43.5762 48.2441 43.9668C48.1074 44.2989 48.2637 44.7872 48.5566 44.9336C48.6543 44.9922 49.3086 45.0313 50.0117 45.0313H51.291L51.0566 45.4415C50.9199 45.6758 50.7637 46.0274 50.6953 46.2227L50.5781 46.5938H32.4531L32.3359 46.2227C32.2676 46.0274 32.1113 45.6758 31.9941 45.4415L31.7598 45.0313H46.1445L46.3691 44.8165C46.6523 44.5528 46.6621 44.0645 46.4082 43.752L46.2227 43.5176L14.4648 43.4688V26.2813H50.5V43.4688ZM58.293 32.5313H56.2227C54.2891 32.5313 54.1328 32.5411 53.9375 32.7266C53.6445 33.0098 53.6055 33.3321 53.6445 35.6172C53.6738 37.8829 53.7227 38.0684 54.3281 38.5079C54.6504 38.7325 54.6797 38.7325 57.8828 38.7618C61.7598 38.7911 61.457 38.6739 61.5156 40.1583L61.5547 41.125H61.0176C60.2461 41.125 59.9141 41.4375 59.9629 42.1211C59.9824 42.4727 60.3633 42.6875 60.9688 42.6875H61.5352V45.8125H58.0391L57.7949 45.3926C57.4727 44.8458 56.7207 44.1524 56.1641 43.879C55.5195 43.5665 54.8359 43.4688 53.3711 43.4688H52.0625V30.9688H57.7852L58.293 32.5313ZM59.3477 35.6758L59.8555 37.2188H55.1875V34.0938L57.0137 34.1133L58.8301 34.1426L59.3477 35.6758ZM19.1523 45.0508C19.1523 45.0704 19.0156 45.3438 18.8594 45.6563C18.6934 45.9688 18.5664 46.3106 18.5664 46.4083C18.5664 46.5743 18.4785 46.5938 17.7363 46.5938H16.9062V45.0313H18.0293C18.6445 45.0313 19.1523 45.0411 19.1523 45.0508ZM23.0293 45.1778C23.9668 45.461 24.6504 46.379 24.6504 47.375C24.6504 49.709 21.6035 50.5879 20.3828 48.6055C20.041 48.0684 19.9336 47.2286 20.1289 46.6426C20.2754 46.2032 20.8223 45.5684 21.2422 45.3536C21.916 45.002 22.3164 44.9629 23.0293 45.1778ZM29.2988 45.1875C30.0215 45.4024 30.6074 46.0079 30.832 46.7403C31.4961 49.0352 28.6641 50.7149 26.9746 49.0254C25.7051 47.7559 26.2715 45.6563 28.0391 45.1192C28.4297 45.002 28.752 45.0215 29.2988 45.1875ZM55.4512 45.3145C55.9492 45.5586 56.4961 46.1739 56.6523 46.6426C56.7207 46.8379 56.75 47.2579 56.7305 47.5704C56.5938 49.4844 54.3379 50.3829 52.873 49.1036C51.5254 47.9219 52.0625 45.6758 53.8301 45.1387C54.2793 45.002 55.002 45.0801 55.4512 45.3145Z" fill="white"/>
<path d="M16.3789 40.5489C16.1836 40.7051 16.125 40.8321 16.125 41.125C16.125 41.418 16.1836 41.545 16.3789 41.7012L16.6426 41.9063H48.4199L48.6836 41.7012C49.0254 41.4278 49.0352 40.92 48.6934 40.5879L48.459 40.3438H16.6426L16.3789 40.5489Z" fill="white"/>
<path d="M22.0137 46.6915C21.5547 46.877 21.4473 47.5899 21.8184 47.9415C22.209 48.3028 22.7754 48.2149 23.0195 47.7461C23.2148 47.375 23.0586 46.8672 22.707 46.7012C22.4238 46.5743 22.3066 46.5743 22.0137 46.6915Z" fill="white"/>
<path d="M28.2637 46.6915C27.8047 46.877 27.6973 47.5899 28.0684 47.9415C28.332 48.1856 28.7812 48.2247 29.084 48.0098C29.5137 47.7071 29.4453 46.9258 28.957 46.7012C28.6738 46.5743 28.5566 46.5743 28.2637 46.6915Z" fill="white"/>
<path d="M54.1133 46.7208C53.7519 46.9063 53.6055 47.2774 53.7324 47.6583C54.0254 48.4786 55.1875 48.2442 55.1875 47.3555C55.1875 46.7989 54.6113 46.4571 54.1133 46.7208Z" fill="white"/>
<defs>
<linearGradient id="paint0_linear_51_183" x1="38" y1="0" x2="38" y2="76" gradientUnits="userSpaceOnUse">
<stop stop-color="#346CEC"/>
<stop offset="1" stop-color="#0A2C79"/>
</linearGradient>
</defs>
</svg>
