<svg width="76" height="76" viewBox="0 0 76 76" fill="none" xmlns="http://www.w3.org/2000/svg">
<circle cx="38" cy="38" r="38" fill="url(#paint0_linear_51_120)"/>
<g clip-path="url(#clip0_51_120)">
<path d="M19.7383 13.0879C19.1133 13.2832 18.4492 13.8301 18.0586 14.4648C17.8926 14.748 17.6875 15.5098 17.6875 15.8711V16.125H16.5156C15.5879 16.125 15.2461 16.1641 14.8262 16.3203C14.1816 16.5645 13.5371 17.1699 13.2344 17.8242L13 18.3223V57.6777L13.2344 58.1758C13.5371 58.8301 14.1816 59.4355 14.8262 59.6797C15.2461 59.8359 15.5879 59.875 16.5156 59.875H17.6875V60.1289C17.6875 60.4902 17.8926 61.252 18.0586 61.5352C18.3223 61.9648 18.8984 62.5215 19.2988 62.7363L19.6895 62.9512L55.0215 63L55.5293 62.7656C56.2129 62.4531 56.7891 61.8477 57.043 61.1836C57.2285 60.6758 57.2383 60.4414 57.2383 55.9785V51.3105L57.0137 51.1055C56.7305 50.832 56.1738 50.8223 55.8613 51.0762L55.627 51.2617L55.5781 55.8906C55.5293 60.9102 55.5391 60.793 54.9629 61.1445C54.6602 61.3398 54.3086 61.3398 37.4629 61.3398C20.3926 61.3398 20.2754 61.3398 19.9531 61.1445C19.3086 60.7441 19.3477 61.9941 19.3477 43.1758V26.0762L19.1035 25.8418C18.7031 25.4316 18.0781 25.5391 17.8047 26.0566C17.7168 26.2129 17.6875 30.2852 17.6875 42.2383V58.2148H16.7109C15.5586 58.2148 15.1387 58.0781 14.8555 57.6094C14.6602 57.2871 14.6602 57.1699 14.6602 38C14.6602 18.8301 14.6602 18.7129 14.8555 18.3906C15.1387 17.9219 15.5586 17.7852 16.7109 17.7852H17.6875V23.5371L17.9219 23.8008C18.2246 24.1621 18.7422 24.1719 19.1035 23.8398L19.3477 23.6152V19.6699C19.3477 15.3047 19.3574 15.2168 19.9531 14.8555C20.2754 14.6602 20.3926 14.6602 37.4629 14.6602C54.3379 14.6602 54.6602 14.6602 54.9629 14.8555C55.6172 15.2559 55.5781 14.3477 55.5781 27.8926V40.1484L52.3164 44.5039L49.0449 48.8496L47.7168 47.082C46.0078 44.8164 45.4902 44.4551 44.084 44.5723C43.0684 44.6504 42.1504 45.2559 41.6914 46.1445C41.3984 46.7109 41.3301 47.9121 41.5645 48.5176C41.7109 48.8984 46.1445 54.9434 46.9062 55.7832C47.873 56.877 49.6699 57.0137 50.8711 56.0957C51.3008 55.7734 62.5703 40.7441 62.8145 40.1777C63.0879 39.543 63.0684 38.4883 62.7656 37.8535C62.4336 37.1406 62.0918 36.7793 61.418 36.4473C60.9395 36.2031 60.6953 36.1445 60.207 36.1445C59.1035 36.1445 58.3418 36.5254 57.6094 37.4434L57.2383 37.9219V26.6328C57.2383 15.5098 57.2383 15.3438 57.043 14.8164C56.7891 14.1621 56.2129 13.5469 55.5488 13.2344L55.041 13L37.5117 13.0098C27.873 13.0098 19.875 13.0488 19.7383 13.0879ZM60.7637 38.0293C61.418 38.4688 61.5254 39.1621 61.0469 39.8652C60.2168 41.0957 49.9238 54.6699 49.6992 54.8262C49.377 55.0605 48.7422 55.0801 48.4004 54.8555C48.1758 54.709 43.4492 48.4688 43.1855 47.9707C42.8926 47.4336 43.2246 46.5938 43.8105 46.3398C44.6602 45.9883 44.9141 46.1836 46.7012 48.5664C48.5664 51.0664 48.5859 51.0859 49.0254 51.0859C49.2207 51.0859 49.4746 51.0078 49.582 50.9102C49.6992 50.8223 51.8965 47.9316 54.4746 44.4941C57.0527 41.0566 59.25 38.1758 59.3477 38.0879C59.748 37.7363 60.3047 37.7168 60.7637 38.0293Z" fill="white"/>
<path d="M25.373 22.6094C25.1094 22.8145 25.0117 23.2637 25.1582 23.625C25.2559 23.8496 25.3926 23.957 25.666 24.0352C25.9297 24.1133 29.3672 24.1328 37.7168 24.1133C48.9375 24.084 49.416 24.0742 49.6016 23.8984C49.7188 23.8008 49.8359 23.5957 49.8652 23.4492C49.9336 23.1367 49.7188 22.6289 49.4746 22.5313C49.3867 22.502 43.9668 22.4727 37.4336 22.4727C27.5801 22.4824 25.5195 22.502 25.373 22.6094Z" fill="white"/>
<path d="M31.0859 26.8965C30.8418 27.1504 30.8027 27.6973 31.0078 27.9609C31.0762 28.0586 31.252 28.1758 31.3984 28.2344C31.5742 28.293 33.7031 28.332 37.5215 28.332C43.7129 28.332 43.8301 28.3223 43.9961 27.8926C44.123 27.541 44.0547 27.0918 43.8301 26.8867L43.6055 26.6719H31.291L31.0859 26.8965Z" fill="white"/>
<path d="M25.5293 33.0684C25.0313 33.2832 24.9336 33.9375 25.334 34.3574L25.5293 34.582H43.166L43.3613 34.3281C43.6348 33.9863 43.6152 33.5762 43.332 33.2441L43.0977 32.9707L34.4648 32.9512C27.2383 32.9316 25.793 32.9512 25.5293 33.0684Z" fill="white"/>
<path d="M47.7656 32.9805C47.1895 33.2148 47.0137 33.8496 47.3848 34.3281C47.5703 34.5723 47.6289 34.582 48.4492 34.582C48.9277 34.582 49.3867 34.5527 49.4746 34.5234C49.7188 34.4258 49.9336 33.918 49.8652 33.6055C49.7578 33.127 49.5039 32.9902 48.6641 32.9609C48.2539 32.9414 47.8438 32.9512 47.7656 32.9805Z" fill="white"/>
<path d="M25.5391 37.2578C25.1973 37.4043 25.1094 37.5703 25.1094 38.0586C25.1094 38.459 25.373 38.752 25.8125 38.8301C25.9883 38.8594 29.9531 38.8789 34.6113 38.8594L43.0977 38.8301L43.332 38.5566C43.6348 38.2051 43.6348 37.7949 43.332 37.4434L43.0977 37.1699L34.4648 37.1504C27.3652 37.1309 25.793 37.1504 25.5391 37.2578Z" fill="white"/>
<path d="M47.8145 37.1895C47.1895 37.3457 46.9551 38.1465 47.4141 38.5762C47.707 38.8594 48.7129 38.9668 49.2695 38.7813C50.0313 38.5371 50.0898 37.5605 49.3672 37.2578C49.0547 37.1309 48.2246 37.0918 47.8145 37.1895Z" fill="white"/>
<path d="M25.3535 48.9668C25.0117 49.2598 24.9922 49.8262 25.3145 50.168L25.5293 50.4023H37.8145L38.0488 50.1582C38.293 49.9238 38.3613 49.5234 38.2344 49.1816C38.0684 48.752 37.9609 48.7422 31.6133 48.7422H25.6074L25.3535 48.9668Z" fill="white"/>
<path d="M25.5293 53.0391C25.0605 53.2246 24.9434 53.9668 25.3145 54.3672L25.5293 54.6016H27.9805C30.6465 54.5918 30.6855 54.5918 30.8809 54.0352C31.0078 53.6641 30.8418 53.2539 30.4805 53.0684C30.1973 52.9219 25.8809 52.9023 25.5293 53.0391Z" fill="white"/>
</g>
<defs>
<linearGradient id="paint0_linear_51_120" x1="38" y1="0" x2="38" y2="76" gradientUnits="userSpaceOnUse">
<stop stop-color="#346CEC"/>
<stop offset="1" stop-color="#0A2C79"/>
</linearGradient>
<clipPath id="clip0_51_120">
<rect width="50" height="50" fill="white" transform="translate(13 13)"/>
</clipPath>
</defs>
</svg>
