<svg width="20" height="20" viewBox="0 0 20 20" fill="none" xmlns="http://www.w3.org/2000/svg">
<g clip-path="url(#clip0_57_311)">
<path d="M8.16406 0.132886C6.91406 0.351636 5.51562 0.929761 4.36719 1.67976C3.61719 2.17195 2.16406 3.62507 1.67969 4.37507C0.507812 6.16414 0 7.86726 0 10.0001C0 12.8282 0.929688 15.0782 2.92969 17.0704C4.91406 19.0548 7.1875 20.0001 10 20.0001C12.8203 20.0001 15.0781 19.0626 17.0703 17.0704C19.0625 15.086 20 12.8204 20 10.0001C20 7.18757 19.0625 4.91414 17.0703 2.92976C15.5234 1.37507 13.8359 0.484448 11.7578 0.125073C10.8828 -0.0311768 9.03125 -0.0233643 8.16406 0.132886ZM11.5547 1.7657C14.8047 2.34382 17.5391 5.0157 18.2031 8.27351C18.625 10.3516 18.2656 12.4766 17.1641 14.3438C16.6016 15.3126 15.3125 16.6016 14.3438 17.1641C12.9453 17.9923 11.6094 18.3594 10.0391 18.3673C6 18.3907 2.51562 15.5235 1.76562 11.5626C1.60938 10.7344 1.60938 9.2657 1.76562 8.43757C2 7.18757 2.61719 5.81257 3.35938 4.88289C5.38281 2.34382 8.38281 1.2032 11.5547 1.7657Z" fill="white"/>
<path d="M8.99219 4.22663C6.96875 4.56257 5.16406 6.09382 4.47656 8.05476C3.73438 10.1876 4.27344 12.5391 5.88281 14.1485C7.63281 15.8985 10.2969 16.3438 12.5547 15.2657C13.0469 15.0313 14.0625 14.3048 14.125 14.1563C14.1328 14.1251 13.8828 13.8438 13.5781 13.5391L13.0078 12.9688L12.6562 13.2579C10.5391 14.9532 7.44531 14.2735 6.25 11.8516C5.77344 10.8829 5.67188 10.0548 5.89844 9.07038C6.41406 6.8907 8.60156 5.4532 10.7891 5.85945C11.2891 5.9532 12.3516 6.46101 12.7344 6.79695L13.0078 7.03132L14.1719 5.86726L13.8672 5.58601C12.6172 4.47663 10.7188 3.94538 8.99219 4.22663Z" fill="white"/>
</g>
<defs>
<clipPath id="clip0_57_311">
<rect width="20" height="20" fill="white"/>
</clipPath>
</defs>
</svg>
