<svg width="24" height="24" viewBox="0 0 24 24" fill="none" xmlns="http://www.w3.org/2000/svg">
<path d="M1.46719 3.64222C1.33125 3.68441 1.21875 3.73597 1.21875 3.75941C1.21875 3.78753 3.55313 6.14535 6.4125 9.00472L11.6016 14.1985L11.8266 14.2313C12.3469 14.3016 11.9437 14.6625 17.6203 8.9766C20.4609 6.13128 22.7812 3.78284 22.7812 3.75941C22.7812 3.73597 22.6594 3.67972 22.5094 3.63753C22.2609 3.56722 21.3281 3.56253 11.9719 3.56722C2.85469 3.57191 1.68281 3.57659 1.46719 3.64222Z" fill="#0A2C79"/>
<path d="M0.1125 4.93128C0.0281251 5.12347 0.0234376 5.42347 0.00937507 11.9016C7.2876e-08 17.8172 0.00937507 18.7032 0.0703126 18.9094C0.107813 19.0407 0.159375 19.1813 0.1875 19.2188C0.225 19.275 0.965625 18.5578 3.87656 15.6469L7.52344 12L3.89063 8.36722C1.89375 6.37035 0.24375 4.73441 0.229688 4.73441C0.210938 4.73441 0.159375 4.82347 0.1125 4.93128Z" fill="#0A2C79"/>
<path d="M20.1094 8.36722L16.4766 12L20.1234 15.6469C23.0344 18.5578 23.775 19.275 23.8125 19.2188C23.8406 19.1813 23.8922 19.0407 23.9297 18.9094C23.9906 18.7032 24 17.8172 23.9906 11.9016C23.9766 5.42347 23.9719 5.12347 23.8875 4.93128C23.8406 4.82347 23.7891 4.73441 23.7703 4.73441C23.7563 4.73441 22.1063 6.37035 20.1094 8.36722Z" fill="#0A2C79"/>
<path d="M4.81406 16.5938C2.83594 18.5766 1.21875 20.2172 1.21875 20.2407C1.21875 20.2641 1.34063 20.3203 1.49063 20.3625C1.73906 20.4328 2.67656 20.4375 12 20.4375C21.3234 20.4375 22.2609 20.4328 22.5094 20.3625C22.6594 20.3203 22.7812 20.2641 22.7812 20.2407C22.7812 20.2172 21.1594 18.5719 19.1766 16.5797L15.5719 12.961L14.4281 14.0907C13.4625 15.0516 13.2422 15.2438 12.9844 15.3657C12.3516 15.675 11.6438 15.675 11.0203 15.3703C10.7578 15.2438 10.5422 15.0563 9.58125 14.1C8.9625 13.486 8.44219 12.9844 8.42813 12.9844C8.41875 12.9844 6.7875 14.6063 4.81406 16.5938Z" fill="#0A2C79"/>
</svg>
