<svg width="54" height="54" viewBox="0 0 54 54" fill="none" xmlns="http://www.w3.org/2000/svg">
<path d="M23.5722 0.158203C18.6996 0.791016 14.2383 2.65781 10.3359 5.67422C9.10193 6.63398 7.0031 8.70117 5.98005 9.9668C3.06912 13.5738 1.13904 17.8348 0.316382 22.4754C0.0210693 24.1207 -0.0949463 28.0758 0.0948975 29.8793C0.959741 37.9582 5.42107 45.225 12.2871 49.7074C15.7043 51.9328 19.5539 53.3355 23.7304 53.8523C25.3336 54.0527 28.7086 54.0422 30.375 53.8418C42.6094 52.323 52.323 42.6094 53.8418 30.375C54.0527 28.6664 54.0527 25.3336 53.8418 23.625C52.8715 15.7781 48.4734 8.74336 41.8183 4.36641C38.3484 2.08828 34.4883 0.674999 30.375 0.158203C28.7719 -0.0316391 25.091 -0.0316391 23.5722 0.158203ZM30.6176 10.7578C37.9265 12.1816 43.3054 18.4043 43.6324 25.8398C43.8433 30.5859 42.082 34.8891 38.5699 38.243C33.8449 42.757 26.7785 43.9277 20.8722 41.1645L19.8597 40.6898L15.6515 41.7973C13.3418 42.3984 11.4328 42.8836 11.4117 42.873C11.3906 42.8625 11.8863 41.0062 12.498 38.7598L13.6265 34.6676L13.0886 33.5496C12.0023 31.2398 11.6121 29.6262 11.5277 27.0527C11.4855 25.5445 11.5066 25.0594 11.6859 23.9941C12.9304 16.7379 18.7312 11.3063 26.1035 10.5047C27.0422 10.4098 29.5101 10.5363 30.6176 10.7578Z" fill="url(#paint0_linear_6_97)"/>
<path d="M25.7555 13.1836C20.6508 13.9008 16.4109 17.4445 14.7656 22.3383C14.3227 23.6566 14.1328 24.9223 14.1328 26.5254C14.1328 29.2043 14.734 31.398 16.0945 33.6551L16.4426 34.2351L15.7676 36.7031C15.3984 38.0637 15.1031 39.1816 15.1242 39.2027C15.1348 39.2133 16.2844 38.9285 17.666 38.5699L20.1867 37.9055L21.1676 38.4117C23.3086 39.5402 25.1332 39.9937 27.5801 39.9937C29.3203 39.9937 30.6703 39.7828 32.0836 39.2766C36.0809 37.8422 39.1605 34.6359 40.4367 30.5859C40.9008 29.1199 41.059 27.8859 40.9957 26.0508C40.9219 23.8992 40.5633 22.4437 39.6668 20.6191C37.8105 16.8855 34.5516 14.3121 30.4805 13.384C29.4469 13.1414 26.8102 13.0359 25.7555 13.1836ZM23.2453 19.4273C23.5195 19.8387 24.7852 22.9816 24.7852 23.2242C24.7852 23.3613 24.5004 23.8465 24.1523 24.3105C23.7727 24.8168 23.5195 25.2598 23.5195 25.418C23.5195 26.0719 25.3863 28.3078 26.7258 29.2676C27.5379 29.8371 28.9828 30.5754 29.4574 30.6598C29.7844 30.7125 29.8477 30.6598 30.3328 30.1008C30.6281 29.7527 31.0184 29.2781 31.2082 29.025C31.4297 28.7508 31.6406 28.582 31.7777 28.582C31.9043 28.582 32.8219 28.9828 33.8133 29.468C35.1 30.0902 35.6484 30.4172 35.7012 30.5754C35.775 30.8285 35.6168 31.7883 35.4059 32.2945C35.0367 33.1805 33.5074 34.1297 32.2523 34.2457C31.377 34.3195 30.5332 34.1613 29.2148 33.6762C27.8859 33.1805 26.7258 32.6004 25.7449 31.9254C24.7535 31.2504 22.4016 28.9301 21.5578 27.791C19.9969 25.6711 19.459 24.4055 19.459 22.834C19.4695 21.7266 19.691 21.0832 20.3977 20.1551C21.0094 19.343 21.2941 19.1953 22.275 19.1953C23.0027 19.1953 23.1082 19.2164 23.2453 19.4273Z" fill="url(#paint1_linear_6_97)"/>
<defs>
<linearGradient id="paint0_linear_6_97" x1="27.0011" y1="53.9975" x2="27.0011" y2="0.0158195" gradientUnits="userSpaceOnUse">
<stop stop-color="#0A2C79"/>
<stop offset="1" stop-color="#1346BA"/>
</linearGradient>
<linearGradient id="paint1_linear_6_97" x1="27.5709" y1="39.9937" x2="27.5709" y2="13.1158" gradientUnits="userSpaceOnUse">
<stop stop-color="#0A2C79"/>
<stop offset="1" stop-color="#1346BA"/>
</linearGradient>
</defs>
</svg>
