<svg width="24" height="24" viewBox="0 0 24 24" fill="none" xmlns="http://www.w3.org/2000/svg">
<g clip-path="url(#clip0_57_294)">
<path d="M1.32656 0.0655352C0.84375 0.220221 0.370313 0.63741 0.15 1.11553L0.0234375 1.38272L0.028125 2.5546C0.028125 3.75928 0.084375 4.42022 0.285938 5.60147C1.34531 11.9015 5.06719 17.3952 10.5703 20.789C11.3719 21.2812 13.0172 22.1108 13.875 22.4483C16.4859 23.4796 19.3875 24.0421 21.8438 23.9905C22.6078 23.9765 22.6219 23.9765 22.9266 23.8265C23.3016 23.639 23.6719 23.264 23.85 22.889L23.9766 22.6171V17.1327L23.85 16.8608C23.6156 16.3593 23.0953 15.9187 22.5938 15.8015C22.4766 15.7733 21.9703 15.7312 21.4688 15.703C20.1656 15.6327 19.1625 15.464 18.0984 15.1312C17.5172 14.953 17.0859 14.9155 16.6875 15.0187C16.2984 15.1171 16.2609 15.1452 14.5875 16.4155L13.1859 17.4749L12.6516 17.1702C10.0828 15.6983 8.33906 13.9687 6.88594 11.4421L6.52031 10.8187L7.58438 9.40772C8.17031 8.63428 8.69531 7.93585 8.75625 7.85616C8.91563 7.64053 9.04688 7.16241 9.04688 6.80147C9.04688 6.57647 9 6.31866 8.88281 5.92491C8.51719 4.6921 8.3625 3.74522 8.29688 2.39053C8.25938 1.51866 8.22656 1.34522 8.025 0.95616C7.88438 0.679597 7.51406 0.342097 7.17188 0.173346L6.86719 0.0233465L4.19531 0.0139719C2.07656 0.0045973 1.48125 0.0186602 1.32656 0.0655352Z" fill="#0A2C79"/>
</g>
<defs>
<clipPath id="clip0_57_294">
<rect width="24" height="24" fill="white"/>
</clipPath>
</defs>
</svg>
